<svg width="104" height="20" viewBox="0 0 104 20" fill="none" xmlns="http://www.w3.org/2000/svg">
<path d="M16.1 8.33333H3.90833C2.67499 8.33333 1.67499 7.325 1.67499 6.1V3.90833C1.67499 2.67499 2.68333 1.67499 3.90833 1.67499H16.1C17.3333 1.67499 18.3333 2.68333 18.3333 3.90833V6.1C18.3333 7.325 17.325 8.33333 16.1 8.33333Z" stroke="#65717C" stroke-width="1.5" stroke-linecap="round" stroke-linejoin="round"/>
<path d="M16.1 18.3333H3.90833C2.67499 18.3333 1.67499 17.325 1.67499 16.1V13.9083C1.67499 12.675 2.68333 11.675 3.90833 11.675H16.1C17.3333 11.675 18.3333 12.6833 18.3333 13.9083V16.1C18.3333 17.325 17.325 18.3333 16.1 18.3333Z" stroke="#65717C" stroke-width="1.5" stroke-linecap="round" stroke-linejoin="round"/>
<path d="M5 4.16666V5.83332" stroke="#65717C" stroke-width="1.5" stroke-linecap="round" stroke-linejoin="round"/>
<path d="M8.33331 4.16666V5.83332" stroke="#65717C" stroke-width="1.5" stroke-linecap="round" stroke-linejoin="round"/>
<path d="M5 14.1667V15.8333" stroke="#65717C" stroke-width="1.5" stroke-linecap="round" stroke-linejoin="round"/>
<path d="M8.33331 14.1667V15.8333" stroke="#65717C" stroke-width="1.5" stroke-linecap="round" stroke-linejoin="round"/>
<path d="M11.6667 5H15" stroke="#65717C" stroke-width="1.5" stroke-linecap="round" stroke-linejoin="round"/>
<path d="M11.6667 15H15" stroke="#65717C" stroke-width="1.5" stroke-linecap="round" stroke-linejoin="round"/>
<path d="M38.048 2.608L42.496 14H40.816L39.552 10.512H34.768L33.472 14H31.872L36.352 2.608H38.048ZM39.104 9.312L37.168 4.048L35.2 9.312H39.104ZM50.247 5.744V14H48.983V12.704C48.279 13.7173 47.3297 14.224 46.135 14.224C45.2603 14.224 44.583 13.984 44.103 13.504C43.623 13.024 43.383 12.3307 43.383 11.424V5.744H44.743V11.056C44.743 11.7067 44.8657 12.2027 45.111 12.544C45.367 12.8747 45.8203 13.04 46.471 13.04C48.0817 13.04 48.887 12.048 48.887 10.064V5.744H50.247ZM59.7296 2.608V14H58.4496V12.784C57.927 13.744 57.0203 14.224 55.7296 14.224C54.5563 14.224 53.623 13.8347 52.9296 13.056C52.247 12.2667 51.9056 11.2 51.9056 9.856C51.9056 8.608 52.2256 7.57333 52.8656 6.752C53.5163 5.92 54.4496 5.504 55.6656 5.504C56.8496 5.504 57.751 5.952 58.3696 6.848V2.608H59.7296ZM55.8416 6.672C55.063 6.672 54.4443 6.95467 53.9856 7.52C53.5376 8.08533 53.3136 8.85333 53.3136 9.824C53.3136 10.8267 53.543 11.6267 54.0016 12.224C54.471 12.8107 55.095 13.104 55.8736 13.104C56.663 13.104 57.2816 12.8213 57.7296 12.256C58.1776 11.68 58.4016 10.8853 58.4016 9.872C58.4016 8.96533 58.1883 8.208 57.7616 7.6C57.3456 6.98133 56.7056 6.672 55.8416 6.672ZM63.214 2.608V4.272H61.838V2.608H63.214ZM63.214 5.744V14H61.838V5.744H63.214ZM68.8569 5.744V6.864H67.2089V11.68C67.2089 11.9467 67.2089 12.1227 67.2089 12.208C67.2195 12.2933 67.2515 12.4107 67.3049 12.56C67.3582 12.6987 67.4489 12.7893 67.5769 12.832C67.7049 12.8747 67.8862 12.896 68.1209 12.896C68.3235 12.896 68.5689 12.88 68.8569 12.848V14.016C68.4729 14.0587 68.1262 14.08 67.8169 14.08C67.4329 14.08 67.1129 14.0373 66.8569 13.952C66.6009 13.8667 66.4035 13.7707 66.2649 13.664C66.1369 13.5573 66.0409 13.3707 65.9769 13.104C65.9129 12.8267 65.8755 12.5973 65.8649 12.416C65.8542 12.224 65.8489 11.9093 65.8489 11.472C65.8489 11.44 65.8489 11.4187 65.8489 11.408C65.8489 11.3867 65.8489 11.36 65.8489 11.328C65.8489 11.296 65.8489 11.2693 65.8489 11.248V6.864H64.4569V5.744H65.8489V3.296H67.2089V5.744H68.8569ZM76.2609 2.608V14H74.8849V2.608H76.2609ZM79.0238 6.688C79.7491 5.89867 80.7358 5.504 81.9838 5.504C83.2318 5.504 84.2024 5.88267 84.8958 6.64C85.5891 7.39733 85.9358 8.45867 85.9358 9.824C85.9358 11.2213 85.5891 12.3093 84.8958 13.088C84.2024 13.8667 83.2264 14.256 81.9678 14.256C80.7091 14.256 79.7224 13.872 79.0078 13.104C78.2931 12.336 77.9358 11.2693 77.9358 9.904C77.9358 8.54933 78.2984 7.47733 79.0238 6.688ZM83.8398 7.52C83.3811 6.93333 82.7518 6.64 81.9518 6.64C81.1518 6.64 80.5171 6.93333 80.0478 7.52C79.5784 8.10667 79.3438 8.89067 79.3438 9.872C79.3438 10.8853 79.5731 11.68 80.0318 12.256C80.5011 12.8213 81.1518 13.104 81.9838 13.104C82.7838 13.104 83.4078 12.816 83.8558 12.24C84.3144 11.664 84.5438 10.8693 84.5438 9.856C84.5438 8.87467 84.3091 8.096 83.8398 7.52ZM94.7073 5.744V13.104C94.7073 13.8187 94.6699 14.368 94.5953 14.752C94.5206 15.1467 94.3819 15.5147 94.1793 15.856C93.5713 16.8587 92.4833 17.36 90.9153 17.36C89.9873 17.36 89.2033 17.168 88.5633 16.784C87.9233 16.4107 87.5499 15.792 87.4433 14.928H88.8353C88.9953 15.8453 89.7046 16.304 90.9633 16.304C91.8059 16.304 92.4139 16.0907 92.7873 15.664C93.1713 15.2373 93.3739 14.5493 93.3953 13.6L93.4113 12.592C92.8886 13.5947 92.0139 14.096 90.7873 14.096C89.6779 14.096 88.7926 13.7173 88.1313 12.96C87.4806 12.2027 87.1553 11.184 87.1553 9.904C87.1553 8.69867 87.4806 7.66933 88.1313 6.816C88.7819 5.952 89.6886 5.52 90.8513 5.52C91.4273 5.52 91.9393 5.64267 92.3873 5.888C92.8459 6.13333 93.2033 6.48533 93.4593 6.944V5.744H94.7073ZM90.9153 6.704C90.1793 6.704 89.5979 6.992 89.1713 7.568C88.7553 8.13333 88.5473 8.91733 88.5473 9.92C88.5473 10.8267 88.7659 11.5573 89.2033 12.112C89.6406 12.656 90.2219 12.928 90.9473 12.928C91.7046 12.928 92.2966 12.64 92.7233 12.064C93.1606 11.488 93.3793 10.6987 93.3793 9.696C93.3793 8.75733 93.1606 8.02667 92.7233 7.504C92.2966 6.97067 91.6939 6.704 90.9153 6.704ZM102.871 8.144H101.511C101.425 7.14133 100.753 6.64 99.4948 6.64C98.9721 6.64 98.5614 6.74133 98.2628 6.944C97.9641 7.14667 97.8148 7.41867 97.8148 7.76C97.8148 7.856 97.8254 7.952 97.8468 8.048C97.8681 8.13333 97.9054 8.21333 97.9588 8.288C98.0228 8.352 98.0761 8.41067 98.1188 8.464C98.1721 8.51733 98.2521 8.57067 98.3588 8.624C98.4761 8.66667 98.5614 8.704 98.6148 8.736C98.6788 8.768 98.7854 8.80533 98.9348 8.848C99.0948 8.88 99.2068 8.90667 99.2708 8.928C99.3348 8.93867 99.4574 8.96533 99.6388 9.008C99.8308 9.05067 99.9534 9.07733 100.007 9.088C100.401 9.17333 100.695 9.24267 100.887 9.296C101.089 9.34933 101.361 9.45067 101.703 9.6C102.055 9.73867 102.321 9.888 102.503 10.048C102.684 10.1973 102.844 10.4107 102.983 10.688C103.132 10.9547 103.207 11.2587 103.207 11.6C103.207 12.4 102.892 13.0453 102.263 13.536C101.644 14.016 100.817 14.256 99.7828 14.256C98.6628 14.256 97.7988 14.0107 97.1908 13.52C96.5934 13.0293 96.2734 12.32 96.2308 11.392H97.5748C97.6494 12.5547 98.3961 13.136 99.8148 13.136C100.423 13.136 100.908 13.0133 101.271 12.768C101.644 12.512 101.831 12.176 101.831 11.76C101.831 11.4827 101.735 11.2533 101.543 11.072C101.351 10.8907 101.137 10.7627 100.903 10.688C100.668 10.6027 100.332 10.5067 99.8948 10.4C99.8308 10.3893 99.7828 10.3787 99.7508 10.368C99.6548 10.3467 99.4468 10.304 99.1268 10.24C98.8174 10.1653 98.5934 10.1067 98.4548 10.064C98.3161 10.0213 98.1134 9.95733 97.8468 9.872C97.5908 9.776 97.3988 9.68 97.2708 9.584C97.1428 9.47733 96.9988 9.34933 96.8388 9.2C96.6894 9.04 96.5828 8.85867 96.5188 8.656C96.4548 8.44267 96.4228 8.20267 96.4228 7.936C96.4228 7.18933 96.7054 6.59733 97.2708 6.16C97.8468 5.72267 98.6148 5.504 99.5748 5.504C100.545 5.504 101.335 5.73333 101.943 6.192C102.561 6.65067 102.871 7.30133 102.871 8.144Z" fill="#65717C"/>
</svg>
