<svg width="119" height="20" viewBox="0 0 119 20" fill="none" xmlns="http://www.w3.org/2000/svg">
<path d="M8.33335 4.99999H11.6667C13.3334 4.99999 13.3334 4.16666 13.3334 3.33332C13.3334 1.66666 12.5 1.66666 11.6667 1.66666H8.33335C7.50002 1.66666 6.66669 1.66666 6.66669 3.33332C6.66669 4.99999 7.50002 4.99999 8.33335 4.99999Z" stroke="#65717C" stroke-width="1.5" stroke-miterlimit="10" stroke-linecap="round" stroke-linejoin="round"/>
<path d="M13.3333 3.35001C16.1083 3.50001 17.5 4.52501 17.5 8.33334V13.3333C17.5 16.6667 16.6667 18.3333 12.5 18.3333H7.5C3.33333 18.3333 2.5 16.6667 2.5 13.3333V8.33334C2.5 4.53334 3.89167 3.50001 6.66667 3.35001" stroke="#65717C" stroke-width="1.5" stroke-miterlimit="10" stroke-linecap="round" stroke-linejoin="round"/>
<path d="M42.912 9.696C42.784 11.136 42.2827 12.2613 41.408 13.072C40.544 13.872 39.4027 14.272 37.984 14.272C36.3627 14.272 35.0773 13.7387 34.128 12.672C33.1787 11.5947 32.704 10.144 32.704 8.32C32.704 6.61333 33.1787 5.19467 34.128 4.064C35.088 2.92267 36.4107 2.352 38.096 2.352C39.3013 2.352 40.3627 2.67733 41.28 3.328C42.1973 3.97867 42.7093 4.88 42.816 6.032H41.312C41.1413 5.28533 40.768 4.704 40.192 4.288C39.616 3.86133 38.9067 3.648 38.064 3.648C36.7947 3.648 35.8347 4.096 35.184 4.992C34.544 5.888 34.224 6.992 34.224 8.304C34.224 9.75467 34.5653 10.896 35.248 11.728C35.9307 12.56 36.864 12.976 38.048 12.976C39.0187 12.976 39.792 12.6987 40.368 12.144C40.944 11.5787 41.2907 10.7627 41.408 9.696H42.912ZM45.2269 6.688C45.9522 5.89867 46.9389 5.504 48.1869 5.504C49.4349 5.504 50.4055 5.88267 51.0989 6.64C51.7922 7.39733 52.1389 8.45867 52.1389 9.824C52.1389 11.2213 51.7922 12.3093 51.0989 13.088C50.4055 13.8667 49.4295 14.256 48.1709 14.256C46.9122 14.256 45.9255 13.872 45.2109 13.104C44.4962 12.336 44.1389 11.2693 44.1389 9.904C44.1389 8.54933 44.5015 7.47733 45.2269 6.688ZM50.0429 7.52C49.5842 6.93333 48.9549 6.64 48.1549 6.64C47.3549 6.64 46.7202 6.93333 46.2509 7.52C45.7815 8.10667 45.5469 8.89067 45.5469 9.872C45.5469 10.8853 45.7762 11.68 46.2349 12.256C46.7042 12.8213 47.3549 13.104 48.1869 13.104C48.9869 13.104 49.6109 12.816 50.0589 12.24C50.5175 11.664 50.7469 10.8693 50.7469 9.856C50.7469 8.87467 50.5122 8.096 50.0429 7.52ZM55.0384 5.744V6.944C55.401 6.45333 55.7904 6.096 56.2064 5.872C56.6224 5.648 57.129 5.536 57.7264 5.536C58.857 5.536 59.6197 6.01067 60.0144 6.96C60.729 6 61.641 5.52 62.7504 5.52C63.6037 5.52 64.249 5.76 64.6864 6.24C65.1344 6.70933 65.3584 7.37067 65.3584 8.224V14H63.9984V8.8C63.9984 8.11733 63.8917 7.60533 63.6784 7.264C63.465 6.912 63.0224 6.736 62.3504 6.736C60.9424 6.736 60.2384 7.59467 60.2384 9.312V14H58.8784V8.704C58.8784 8.07467 58.7717 7.59467 58.5584 7.264C58.3557 6.92267 57.9557 6.752 57.3584 6.752C56.5157 6.752 55.929 7.01333 55.5984 7.536C55.2784 8.048 55.1184 8.74667 55.1184 9.632V14H53.7584V5.744H55.0384ZM68.679 5.744V6.912C69.2763 5.96267 70.2043 5.488 71.463 5.488C72.615 5.488 73.527 5.87733 74.199 6.656C74.8817 7.43467 75.223 8.49067 75.223 9.824C75.223 11.1573 74.887 12.224 74.215 13.024C73.5537 13.8133 72.6577 14.208 71.527 14.208C70.343 14.208 69.4203 13.7547 68.759 12.848V17.184H67.399V5.744H68.679ZM71.255 6.624C70.4657 6.624 69.8417 6.912 69.383 7.488C68.935 8.05333 68.711 8.83733 68.711 9.84C68.711 10.8427 68.9403 11.632 69.399 12.208C69.8683 12.7733 70.503 13.056 71.303 13.056C72.0817 13.056 72.695 12.768 73.143 12.192C73.591 11.616 73.815 10.832 73.815 9.84C73.815 8.83733 73.5857 8.05333 73.127 7.488C72.679 6.912 72.055 6.624 71.255 6.624ZM78.3234 2.608V14H76.9474V2.608H78.3234ZM81.8703 2.608V4.272H80.4943V2.608H81.8703ZM81.8703 5.744V14H80.4943V5.744H81.8703ZM91.2891 12.912V13.968C91.0118 14.0747 90.7025 14.128 90.3611 14.128C89.5825 14.128 89.1825 13.7227 89.1611 12.912C88.3825 13.7867 87.3851 14.224 86.1691 14.224C85.3585 14.224 84.7131 14.016 84.2331 13.6C83.7638 13.184 83.5291 12.6133 83.5291 11.888C83.5291 10.416 84.5051 9.55733 86.4571 9.312C86.5851 9.29067 86.7718 9.26933 87.0171 9.248C87.9451 9.14133 88.5158 9.01867 88.7291 8.88C88.9745 8.70933 89.0971 8.416 89.0971 8C89.0971 7.09333 88.4731 6.64 87.2251 6.64C86.5851 6.64 86.0998 6.77333 85.7691 7.04C85.4385 7.296 85.2411 7.72267 85.1771 8.32H83.8491C83.8705 7.43467 84.1851 6.74667 84.7931 6.256C85.4011 5.76533 86.2385 5.52 87.3051 5.52C88.4678 5.52 89.3318 5.78667 89.8971 6.32C90.0785 6.49067 90.2118 6.71467 90.2971 6.992C90.3825 7.26933 90.4305 7.49867 90.4411 7.68C90.4518 7.85067 90.4571 8.112 90.4571 8.464C90.4571 8.86933 90.4465 9.48267 90.4251 10.304C90.4038 11.1253 90.3931 11.7387 90.3931 12.144C90.3931 12.4427 90.4305 12.656 90.5051 12.784C90.5905 12.9013 90.7398 12.96 90.9531 12.96C91.0385 12.96 91.1505 12.944 91.2891 12.912ZM89.0971 9.712C89.0011 9.78667 88.8998 9.85067 88.7931 9.904C88.6865 9.95733 88.5478 10 88.3771 10.032C88.2171 10.064 88.1051 10.0907 88.0411 10.112C87.9878 10.1227 87.8491 10.144 87.6251 10.176C87.4011 10.1973 87.2838 10.208 87.2731 10.208C86.9425 10.2507 86.7238 10.2827 86.6171 10.304C86.5211 10.3147 86.3291 10.3573 86.0411 10.432C85.7638 10.5067 85.5665 10.592 85.4491 10.688C85.3318 10.784 85.2145 10.928 85.0971 11.12C84.9905 11.3013 84.9371 11.52 84.9371 11.776C84.9371 12.2027 85.0811 12.5387 85.3691 12.784C85.6678 13.0293 86.0731 13.152 86.5851 13.152C87.2358 13.152 87.8171 12.96 88.3291 12.576C88.8411 12.192 89.0971 11.7387 89.0971 11.216V9.712ZM93.8509 5.744V7.024C94.5335 6.02133 95.4722 5.52 96.6669 5.52C97.6375 5.52 98.3362 5.776 98.7629 6.288C99.2002 6.78933 99.4189 7.53067 99.4189 8.512V14H98.0589V9.136C98.0589 8.73067 98.0429 8.416 98.0109 8.192C97.9895 7.95733 97.9255 7.712 97.8189 7.456C97.7122 7.18933 97.5309 6.99733 97.2749 6.88C97.0189 6.76267 96.6882 6.704 96.2829 6.704C94.7149 6.704 93.9309 7.696 93.9309 9.68V14H92.5709V5.744H93.8509ZM108.566 10.992C108.448 11.984 108.07 12.7733 107.43 13.36C106.8 13.9467 105.979 14.24 104.966 14.24C103.718 14.24 102.752 13.856 102.07 13.088C101.387 12.3093 101.046 11.2747 101.046 9.984C101.046 8.608 101.403 7.52 102.118 6.72C102.832 5.90933 103.798 5.504 105.014 5.504C106.027 5.504 106.838 5.76 107.446 6.272C108.054 6.77333 108.411 7.49333 108.517 8.432H107.11C106.864 7.23733 106.171 6.64 105.03 6.64C104.24 6.64 103.616 6.93333 103.158 7.52C102.699 8.096 102.47 8.88 102.47 9.872C102.47 10.8747 102.688 11.664 103.126 12.24C103.563 12.816 104.166 13.104 104.934 13.104C105.552 13.104 106.054 12.9227 106.438 12.56C106.832 12.1973 107.083 11.6747 107.19 10.992H108.566ZM117.111 11.392C116.695 13.312 115.495 14.272 113.511 14.272C112.295 14.272 111.341 13.8933 110.647 13.136C109.965 12.3787 109.623 11.328 109.623 9.984C109.623 8.65067 109.975 7.57333 110.679 6.752C111.394 5.92 112.322 5.504 113.463 5.504C114.733 5.504 115.671 5.936 116.279 6.8C116.898 7.65333 117.207 8.736 117.207 10.048V10.24H110.999L110.983 10.336C110.983 11.2107 111.213 11.8987 111.671 12.4C112.13 12.9013 112.759 13.152 113.559 13.152C114.157 13.152 114.626 13.0133 114.967 12.736C115.319 12.4587 115.591 12.0107 115.783 11.392H117.111ZM115.799 9.136C115.735 8.34667 115.495 7.73333 115.079 7.296C114.663 6.848 114.114 6.624 113.431 6.624C112.77 6.624 112.221 6.848 111.783 7.296C111.346 7.744 111.085 8.35733 110.999 9.136H115.799Z" fill="#65717C"/>
</svg>
