<svg width="876" height="121" viewBox="0 0 876 121" fill="none" xmlns="http://www.w3.org/2000/svg">
<rect x="0.25" y="2.25" width="875.5" height="118.5" rx="7.75" fill="white" stroke="#E1E1E1" stroke-width="0.5"/>
<path d="M45.648 63.912V81H42.552L34.584 68.424V81H31.752V63.912H34.896L42.768 76.512V63.912H45.648ZM64.1203 71.856V81H62.2003L61.7443 78.96C60.3843 80.592 58.6083 81.408 56.4163 81.408C54.0163 81.408 52.0643 80.592 50.5603 78.96C49.0723 77.328 48.3283 75.2 48.3283 72.576C48.3283 70 49.0803 67.856 50.5843 66.144C52.0883 64.416 54.1203 63.552 56.6803 63.552C58.5363 63.552 60.1523 64.072 61.5283 65.112C62.9203 66.152 63.7123 67.568 63.9043 69.36H61.0003C60.8243 68.336 60.3443 67.536 59.5603 66.96C58.7923 66.368 57.8243 66.072 56.6563 66.072C55.0083 66.072 53.7123 66.648 52.7683 67.8C51.8243 68.952 51.3523 70.528 51.3523 72.528C51.3523 74.544 51.8243 76.128 52.7683 77.28C53.7283 78.416 55.0563 78.984 56.7523 78.984C58.2403 78.984 59.3843 78.52 60.1843 77.592C61.0003 76.664 61.4083 75.52 61.4083 74.16H56.8003V71.856H64.1203ZM81.1793 63.912V81H78.0833L70.1153 68.424V81H67.2833V63.912H70.4273L78.2993 76.512V63.912H81.1793ZM90.5873 69.6C90.6353 67.872 91.1473 66.512 92.1233 65.52C93.0993 64.528 94.4113 64.032 96.0593 64.032C97.6113 64.032 98.8673 64.448 99.8273 65.28C100.787 66.112 101.267 67.2 101.267 68.544C101.267 69.36 101.051 70.08 100.619 70.704C100.203 71.312 99.6353 71.736 98.9153 71.976C99.8593 72.216 100.603 72.688 101.147 73.392C101.691 74.08 101.963 74.928 101.963 75.936C101.963 77.536 101.411 78.84 100.307 79.848C99.2033 80.856 97.7713 81.36 96.0113 81.36C94.2673 81.36 92.8593 80.856 91.7873 79.848C90.7153 78.84 90.1793 77.504 90.1793 75.84V75.48H92.8193C92.8993 77.832 93.9873 79.008 96.0833 79.008C97.0113 79.008 97.7473 78.744 98.2913 78.216C98.8353 77.672 99.1073 76.936 99.1073 76.008C99.1073 75.032 98.7953 74.32 98.1713 73.872C97.5473 73.424 96.7393 73.2 95.7473 73.2C95.4433 73.2 95.1553 73.208 94.8833 73.224V71.16H95.1233C95.6193 71.16 96.0433 71.136 96.3953 71.088C96.7473 71.024 97.0993 70.92 97.4513 70.776C97.8193 70.616 98.0993 70.368 98.2913 70.032C98.4833 69.68 98.5793 69.248 98.5793 68.736C98.5793 68 98.3473 67.408 97.8833 66.96C97.4193 66.512 96.7953 66.288 96.0113 66.288C94.2193 66.288 93.2833 67.392 93.2033 69.6H90.5873ZM107.835 77.76V80.208C107.835 81.456 107.595 82.456 107.115 83.208C106.635 83.976 105.787 84.496 104.571 84.768V83.328C105.563 83.024 106.083 82.248 106.131 81H104.571V77.76H107.835ZM121.571 78.576V81H110.099C110.115 80.248 110.219 79.56 110.411 78.936C110.603 78.312 110.819 77.784 111.059 77.352C111.315 76.904 111.683 76.456 112.163 76.008C112.659 75.544 113.099 75.168 113.483 74.88C113.883 74.576 114.427 74.192 115.115 73.728C115.163 73.696 115.395 73.544 115.811 73.272C116.243 72.984 116.507 72.808 116.603 72.744C116.699 72.664 116.915 72.496 117.251 72.24C117.587 71.968 117.803 71.752 117.899 71.592C118.011 71.432 118.155 71.216 118.331 70.944C118.523 70.672 118.651 70.4 118.715 70.128C118.779 69.84 118.811 69.536 118.811 69.216C118.811 68.336 118.563 67.648 118.067 67.152C117.587 66.64 116.931 66.384 116.099 66.384C115.619 66.384 115.203 66.464 114.851 66.624C114.499 66.768 114.219 66.96 114.011 67.2C113.819 67.44 113.659 67.752 113.531 68.136C113.403 68.504 113.315 68.856 113.267 69.192C113.235 69.528 113.211 69.92 113.195 70.368H110.531V69.936C110.531 68.128 111.035 66.696 112.043 65.64C113.067 64.568 114.443 64.032 116.171 64.032C117.803 64.032 119.115 64.496 120.107 65.424C121.099 66.336 121.595 67.552 121.595 69.072C121.595 69.68 121.499 70.256 121.307 70.8C121.115 71.344 120.907 71.784 120.683 72.12C120.475 72.456 120.107 72.848 119.579 73.296C119.051 73.744 118.659 74.056 118.403 74.232C118.147 74.408 117.675 74.728 116.987 75.192C114.987 76.488 113.787 77.616 113.387 78.576H121.571ZM126.723 71.952C125.971 71.68 125.379 71.24 124.947 70.632C124.531 70.008 124.323 69.28 124.323 68.448C124.323 67.136 124.811 66.064 125.787 65.232C126.779 64.4 128.059 63.984 129.627 63.984C131.131 63.984 132.363 64.4 133.323 65.232C134.283 66.048 134.763 67.096 134.763 68.376C134.763 70.088 133.971 71.28 132.387 71.952C133.411 72.304 134.179 72.8 134.691 73.44C135.203 74.08 135.459 74.936 135.459 76.008C135.459 77.592 134.915 78.872 133.827 79.848C132.739 80.808 131.307 81.288 129.531 81.288C127.771 81.288 126.347 80.816 125.259 79.872C124.187 78.928 123.651 77.688 123.651 76.152C123.651 75.112 123.915 74.232 124.443 73.512C124.987 72.776 125.747 72.256 126.723 71.952ZM129.603 66.192C128.771 66.192 128.107 66.416 127.611 66.864C127.131 67.296 126.891 67.88 126.891 68.616C126.891 69.352 127.139 69.944 127.635 70.392C128.131 70.84 128.779 71.064 129.579 71.064C130.379 71.064 131.019 70.848 131.499 70.416C131.979 69.968 132.219 69.368 132.219 68.616C132.219 67.88 131.979 67.296 131.499 66.864C131.035 66.416 130.403 66.192 129.603 66.192ZM129.531 73.032C128.603 73.032 127.851 73.312 127.275 73.872C126.699 74.416 126.411 75.128 126.411 76.008C126.411 76.968 126.699 77.728 127.275 78.288C127.851 78.848 128.635 79.128 129.627 79.128C130.587 79.128 131.339 78.864 131.883 78.336C132.427 77.792 132.699 77.04 132.699 76.08C132.699 75.152 132.411 74.416 131.835 73.872C131.259 73.312 130.491 73.032 129.531 73.032ZM148.555 64.296V66.6C146.811 68.344 145.379 70.552 144.259 73.224C143.139 75.88 142.531 78.472 142.435 81H139.435C139.499 78.728 140.163 76.192 141.427 73.392C142.691 70.576 144.163 68.384 145.843 66.816H137.107V64.296H148.555ZM154.523 77.76V80.208C154.523 81.456 154.283 82.456 153.803 83.208C153.323 83.976 152.475 84.496 151.259 84.768V83.328C152.251 83.024 152.771 82.248 152.819 81H151.259V77.76H154.523ZM157.29 76.824H159.93C159.994 77.512 160.258 78.072 160.722 78.504C161.186 78.936 161.802 79.152 162.57 79.152C164.602 79.152 165.706 77.192 165.882 73.272C164.97 74.696 163.722 75.408 162.138 75.408C160.634 75.408 159.394 74.896 158.418 73.872C157.442 72.832 156.954 71.504 156.954 69.888C156.954 68.176 157.49 66.768 158.562 65.664C159.634 64.544 161.002 63.984 162.666 63.984C163.578 63.984 164.386 64.152 165.09 64.488C165.81 64.824 166.386 65.264 166.818 65.808C167.25 66.336 167.602 66.976 167.874 67.728C168.162 68.464 168.354 69.2 168.45 69.936C168.562 70.672 168.618 71.448 168.618 72.264C168.618 73.368 168.514 74.424 168.306 75.432C168.114 76.424 167.794 77.384 167.346 78.312C166.914 79.224 166.274 79.96 165.426 80.52C164.578 81.064 163.578 81.336 162.426 81.336C161.002 81.336 159.802 80.912 158.826 80.064C157.866 79.216 157.354 78.136 157.29 76.824ZM162.57 66.288C161.706 66.288 161.01 66.616 160.482 67.272C159.97 67.912 159.714 68.76 159.714 69.816C159.714 70.856 159.978 71.68 160.506 72.288C161.034 72.896 161.738 73.2 162.618 73.2C163.498 73.2 164.21 72.888 164.754 72.264C165.298 71.64 165.57 70.824 165.57 69.816C165.57 68.744 165.298 67.888 164.754 67.248C164.21 66.608 163.482 66.288 162.57 66.288ZM176.194 64.056C180.098 64.056 182.05 66.96 182.05 72.768C182.05 75.568 181.562 77.696 180.586 79.152C179.61 80.608 178.178 81.336 176.29 81.336C172.386 81.336 170.434 78.464 170.434 72.72C170.434 69.888 170.922 67.736 171.898 66.264C172.874 64.792 174.306 64.056 176.194 64.056ZM176.218 66.36C175.738 66.36 175.322 66.456 174.97 66.648C174.618 66.824 174.33 67.104 174.106 67.488C173.898 67.856 173.73 68.232 173.602 68.616C173.474 68.984 173.378 69.456 173.314 70.032C173.266 70.608 173.234 71.088 173.218 71.472C173.202 71.84 173.194 72.312 173.194 72.888C173.194 75.048 173.434 76.616 173.914 77.592C174.41 78.568 175.194 79.056 176.266 79.056C176.682 79.056 177.05 78.976 177.37 78.816C177.706 78.64 177.978 78.432 178.186 78.192C178.394 77.952 178.57 77.632 178.714 77.232C178.858 76.832 178.962 76.472 179.026 76.152C179.106 75.816 179.162 75.408 179.194 74.928C179.242 74.432 179.266 74.056 179.266 73.8C179.282 73.528 179.29 73.184 179.29 72.768C179.29 72.224 179.282 71.808 179.266 71.52C179.266 71.216 179.242 70.768 179.194 70.176C179.146 69.568 179.05 69.08 178.906 68.712C178.778 68.344 178.602 67.96 178.378 67.56C178.17 67.16 177.882 66.864 177.514 66.672C177.146 66.464 176.714 66.36 176.218 66.36ZM194.93 78.576V81H183.458C183.474 80.248 183.578 79.56 183.77 78.936C183.962 78.312 184.178 77.784 184.418 77.352C184.674 76.904 185.042 76.456 185.522 76.008C186.018 75.544 186.458 75.168 186.842 74.88C187.242 74.576 187.786 74.192 188.474 73.728C188.522 73.696 188.754 73.544 189.17 73.272C189.602 72.984 189.866 72.808 189.962 72.744C190.058 72.664 190.274 72.496 190.61 72.24C190.946 71.968 191.162 71.752 191.258 71.592C191.37 71.432 191.514 71.216 191.69 70.944C191.882 70.672 192.01 70.4 192.074 70.128C192.138 69.84 192.17 69.536 192.17 69.216C192.17 68.336 191.922 67.648 191.426 67.152C190.946 66.64 190.29 66.384 189.458 66.384C188.978 66.384 188.562 66.464 188.21 66.624C187.858 66.768 187.578 66.96 187.37 67.2C187.178 67.44 187.018 67.752 186.89 68.136C186.762 68.504 186.674 68.856 186.626 69.192C186.594 69.528 186.57 69.92 186.554 70.368H183.89V69.936C183.89 68.128 184.394 66.696 185.402 65.64C186.426 64.568 187.802 64.032 189.53 64.032C191.162 64.032 192.474 64.496 193.466 65.424C194.458 66.336 194.954 67.552 194.954 69.072C194.954 69.68 194.858 70.256 194.666 70.8C194.474 71.344 194.266 71.784 194.042 72.12C193.834 72.456 193.466 72.848 192.938 73.296C192.41 73.744 192.018 74.056 191.762 74.232C191.506 74.408 191.034 74.728 190.346 75.192C188.346 76.488 187.146 77.616 186.746 78.576H194.93ZM199.346 79.224V81H197.57V79.224H199.346ZM205.127 69.656C205.81 69.656 206.391 69.784 206.871 70.04C207.362 70.2853 207.735 70.5893 207.991 70.952C208.247 71.3147 208.45 71.7893 208.599 72.376C208.749 72.952 208.839 73.4747 208.871 73.944C208.903 74.4027 208.919 74.9573 208.919 75.608C208.919 76.2053 208.893 76.744 208.839 77.224C208.797 77.704 208.695 78.2053 208.535 78.728C208.386 79.2507 208.178 79.688 207.911 80.04C207.645 80.3813 207.282 80.664 206.823 80.888C206.365 81.112 205.821 81.224 205.191 81.224C204.53 81.224 203.954 81.112 203.463 80.888C202.983 80.6533 202.61 80.3653 202.343 80.024C202.077 79.6827 201.863 79.2507 201.703 78.728C201.554 78.1947 201.458 77.6933 201.415 77.224C201.373 76.744 201.351 76.1947 201.351 75.576C201.351 75.0427 201.362 74.5787 201.383 74.184C201.415 73.7893 201.469 73.3467 201.543 72.856C201.629 72.3547 201.757 71.9333 201.927 71.592C202.098 71.24 202.317 70.9093 202.583 70.6C202.85 70.2907 203.197 70.056 203.623 69.896C204.061 69.736 204.562 69.656 205.127 69.656ZM206.007 71.064C205.751 70.936 205.458 70.872 205.127 70.872C204.797 70.872 204.503 70.936 204.247 71.064C203.991 71.1813 203.783 71.32 203.623 71.48C203.463 71.64 203.325 71.88 203.207 72.2C203.09 72.5093 203.005 72.7707 202.951 72.984C202.909 73.1973 202.871 73.5067 202.839 73.912C202.807 74.3067 202.791 74.5893 202.791 74.76C202.791 74.92 202.791 75.192 202.791 75.576C202.791 75.9493 202.797 76.2587 202.807 76.504C202.818 76.7493 202.845 77.0693 202.887 77.464C202.93 77.8587 203.005 78.1893 203.111 78.456C203.218 78.712 203.351 78.9733 203.511 79.24C203.671 79.496 203.89 79.6933 204.167 79.832C204.455 79.96 204.786 80.024 205.159 80.024C205.479 80.024 205.762 79.9653 206.007 79.848C206.263 79.7307 206.471 79.592 206.631 79.432C206.791 79.272 206.925 79.048 207.031 78.76C207.149 78.4613 207.234 78.2053 207.287 77.992C207.341 77.768 207.378 77.4747 207.399 77.112C207.431 76.7387 207.447 76.4667 207.447 76.296C207.458 76.1147 207.463 75.8533 207.463 75.512C207.463 75.1387 207.463 74.872 207.463 74.712C207.463 74.552 207.447 74.2747 207.415 73.88C207.383 73.4853 207.341 73.1813 207.287 72.968C207.245 72.7547 207.165 72.4933 207.047 72.184C206.93 71.8747 206.791 71.64 206.631 71.48C206.471 71.32 206.263 71.1813 206.007 71.064ZM214.018 69.656C214.701 69.656 215.282 69.784 215.762 70.04C216.253 70.2853 216.626 70.5893 216.882 70.952C217.138 71.3147 217.341 71.7893 217.49 72.376C217.639 72.952 217.73 73.4747 217.762 73.944C217.794 74.4027 217.81 74.9573 217.81 75.608C217.81 76.2053 217.783 76.744 217.73 77.224C217.687 77.704 217.586 78.2053 217.426 78.728C217.277 79.2507 217.069 79.688 216.802 80.04C216.535 80.3813 216.173 80.664 215.714 80.888C215.255 81.112 214.711 81.224 214.082 81.224C213.421 81.224 212.845 81.112 212.354 80.888C211.874 80.6533 211.501 80.3653 211.234 80.024C210.967 79.6827 210.754 79.2507 210.594 78.728C210.445 78.1947 210.349 77.6933 210.306 77.224C210.263 76.744 210.242 76.1947 210.242 75.576C210.242 75.0427 210.253 74.5787 210.274 74.184C210.306 73.7893 210.359 73.3467 210.434 72.856C210.519 72.3547 210.647 71.9333 210.818 71.592C210.989 71.24 211.207 70.9093 211.474 70.6C211.741 70.2907 212.087 70.056 212.514 69.896C212.951 69.736 213.453 69.656 214.018 69.656ZM214.898 71.064C214.642 70.936 214.349 70.872 214.018 70.872C213.687 70.872 213.394 70.936 213.138 71.064C212.882 71.1813 212.674 71.32 212.514 71.48C212.354 71.64 212.215 71.88 212.098 72.2C211.981 72.5093 211.895 72.7707 211.842 72.984C211.799 73.1973 211.762 73.5067 211.73 73.912C211.698 74.3067 211.682 74.5893 211.682 74.76C211.682 74.92 211.682 75.192 211.682 75.576C211.682 75.9493 211.687 76.2587 211.698 76.504C211.709 76.7493 211.735 77.0693 211.778 77.464C211.821 77.8587 211.895 78.1893 212.002 78.456C212.109 78.712 212.242 78.9733 212.402 79.24C212.562 79.496 212.781 79.6933 213.058 79.832C213.346 79.96 213.677 80.024 214.05 80.024C214.37 80.024 214.653 79.9653 214.898 79.848C215.154 79.7307 215.362 79.592 215.522 79.432C215.682 79.272 215.815 79.048 215.922 78.76C216.039 78.4613 216.125 78.2053 216.178 77.992C216.231 77.768 216.269 77.4747 216.29 77.112C216.322 76.7387 216.338 76.4667 216.338 76.296C216.349 76.1147 216.354 75.8533 216.354 75.512C216.354 75.1387 216.354 74.872 216.354 74.712C216.354 74.552 216.338 74.2747 216.306 73.88C216.274 73.4853 216.231 73.1813 216.178 72.968C216.135 72.7547 216.055 72.4933 215.938 72.184C215.821 71.8747 215.682 71.64 215.522 71.48C215.362 71.32 215.154 71.1813 214.898 71.064Z" fill="black"/>
<path d="M38.022 39.032V40.18H34.676V49H33.36V40.18H30.014V39.032H38.022ZM37.9505 42.602C38.5851 41.9113 39.4485 41.566 40.5405 41.566C41.6325 41.566 42.4818 41.8973 43.0885 42.56C43.6951 43.2227 43.9985 44.1513 43.9985 45.346C43.9985 46.5687 43.6951 47.5207 43.0885 48.202C42.4818 48.8833 41.6278 49.224 40.5265 49.224C39.4251 49.224 38.5618 48.888 37.9365 48.216C37.3111 47.544 36.9985 46.6107 36.9985 45.416C36.9985 44.2307 37.3158 43.2927 37.9505 42.602ZM42.1645 43.33C41.7631 42.8167 41.2125 42.56 40.5125 42.56C39.8125 42.56 39.2571 42.8167 38.8465 43.33C38.4358 43.8433 38.2305 44.5293 38.2305 45.388C38.2305 46.2747 38.4311 46.97 38.8325 47.474C39.2431 47.9687 39.8125 48.216 40.5405 48.216C41.2405 48.216 41.7865 47.964 42.1785 47.46C42.5798 46.956 42.7805 46.2607 42.7805 45.374C42.7805 44.5153 42.5751 43.834 42.1645 43.33ZM48.5095 41.776V42.756H47.0675V46.97C47.0675 47.2033 47.0675 47.3573 47.0675 47.432C47.0769 47.5067 47.1049 47.6093 47.1515 47.74C47.1982 47.8613 47.2775 47.9407 47.3895 47.978C47.5015 48.0153 47.6602 48.034 47.8655 48.034C48.0429 48.034 48.2575 48.02 48.5095 47.992V49.014C48.1735 49.0513 47.8702 49.07 47.5995 49.07C47.2635 49.07 46.9835 49.0327 46.7595 48.958C46.5355 48.8833 46.3629 48.7993 46.2415 48.706C46.1295 48.6127 46.0455 48.4493 45.9895 48.216C45.9335 47.9733 45.9009 47.7727 45.8915 47.614C45.8822 47.446 45.8775 47.1707 45.8775 46.788C45.8775 46.76 45.8775 46.7413 45.8775 46.732C45.8775 46.7133 45.8775 46.69 45.8775 46.662C45.8775 46.634 45.8775 46.6107 45.8775 46.592V42.756H44.6595V41.776H45.8775V39.634H47.0675V41.776H48.5095ZM56.2295 48.048V48.972C55.9869 49.0653 55.7162 49.112 55.4175 49.112C54.7362 49.112 54.3862 48.7573 54.3675 48.048C53.6862 48.8133 52.8135 49.196 51.7495 49.196C51.0402 49.196 50.4755 49.014 50.0555 48.65C49.6449 48.286 49.4395 47.7867 49.4395 47.152C49.4395 45.864 50.2935 45.1127 52.0015 44.898C52.1135 44.8793 52.2769 44.8607 52.4915 44.842C53.3035 44.7487 53.8029 44.6413 53.9895 44.52C54.2042 44.3707 54.3115 44.114 54.3115 43.75C54.3115 42.9567 53.7655 42.56 52.6735 42.56C52.1135 42.56 51.6889 42.6767 51.3995 42.91C51.1102 43.134 50.9375 43.5073 50.8815 44.03H49.7195C49.7382 43.2553 50.0135 42.6533 50.5455 42.224C51.0775 41.7947 51.8102 41.58 52.7435 41.58C53.7609 41.58 54.5169 41.8133 55.0115 42.28C55.1702 42.4293 55.2869 42.6253 55.3615 42.868C55.4362 43.1107 55.4782 43.3113 55.4875 43.47C55.4969 43.6193 55.5015 43.848 55.5015 44.156C55.5015 44.5107 55.4922 45.0473 55.4735 45.766C55.4549 46.4847 55.4455 47.0213 55.4455 47.376C55.4455 47.6373 55.4782 47.824 55.5435 47.936C55.6182 48.0387 55.7489 48.09 55.9355 48.09C56.0102 48.09 56.1082 48.076 56.2295 48.048ZM54.3115 45.248C54.2275 45.3133 54.1389 45.3693 54.0455 45.416C53.9522 45.4627 53.8309 45.5 53.6815 45.528C53.5415 45.556 53.4435 45.5793 53.3875 45.598C53.3409 45.6073 53.2195 45.626 53.0235 45.654C52.8275 45.6727 52.7249 45.682 52.7155 45.682C52.4262 45.7193 52.2349 45.7473 52.1415 45.766C52.0575 45.7753 51.8895 45.8127 51.6375 45.878C51.3949 45.9433 51.2222 46.018 51.1195 46.102C51.0169 46.186 50.9142 46.312 50.8115 46.48C50.7182 46.6387 50.6715 46.83 50.6715 47.054C50.6715 47.4273 50.7975 47.7213 51.0495 47.936C51.3109 48.1507 51.6655 48.258 52.1135 48.258C52.6829 48.258 53.1915 48.09 53.6395 47.754C54.0875 47.418 54.3115 47.0213 54.3115 46.564V45.248ZM58.6111 39.032V49H57.4071V39.032H58.6111ZM73.0031 45.234C72.8911 46.494 72.4524 47.4787 71.6871 48.188C70.9311 48.888 69.9324 49.238 68.6911 49.238C67.2724 49.238 66.1477 48.7713 65.3171 47.838C64.4864 46.8953 64.0711 45.626 64.0711 44.03C64.0711 42.5367 64.4864 41.2953 65.3171 40.306C66.1571 39.3073 67.3144 38.808 68.7891 38.808C69.8437 38.808 70.7724 39.0927 71.5751 39.662C72.3777 40.2313 72.8257 41.02 72.9191 42.028H71.6031C71.4537 41.3747 71.1271 40.866 70.6231 40.502C70.1191 40.1287 69.4984 39.942 68.7611 39.942C67.6504 39.942 66.8104 40.334 66.2411 41.118C65.6811 41.902 65.4011 42.868 65.4011 44.016C65.4011 45.2853 65.6997 46.284 66.2971 47.012C66.8944 47.74 67.7111 48.104 68.7471 48.104C69.5964 48.104 70.2731 47.8613 70.7771 47.376C71.2811 46.8813 71.5844 46.1673 71.6871 45.234H73.0031ZM78.2206 41.608V42.84C78.1366 42.8307 78.0339 42.826 77.9126 42.826C77.5299 42.826 77.1986 42.8867 76.9186 43.008C76.6386 43.12 76.4146 43.2693 76.2466 43.456C76.0879 43.6427 75.9573 43.876 75.8546 44.156C75.7519 44.436 75.6819 44.716 75.6446 44.996C75.6166 45.276 75.6026 45.5933 75.6026 45.948V49H74.4126V41.776H75.5466V43.33C76.0226 42.182 76.9139 41.608 78.2206 41.608ZM85.0446 46.718C84.6806 48.398 83.6306 49.238 81.8946 49.238C80.8306 49.238 79.9953 48.9067 79.3886 48.244C78.7913 47.5813 78.4926 46.662 78.4926 45.486C78.4926 44.3193 78.8006 43.3767 79.4166 42.658C80.0419 41.93 80.8539 41.566 81.8526 41.566C82.9633 41.566 83.7846 41.944 84.3166 42.7C84.8579 43.4467 85.1286 44.394 85.1286 45.542V45.71H79.6966L79.6826 45.794C79.6826 46.5593 79.8833 47.1613 80.2846 47.6C80.6859 48.0387 81.2366 48.258 81.9366 48.258C82.4593 48.258 82.8699 48.1367 83.1686 47.894C83.4766 47.6513 83.7146 47.2593 83.8826 46.718H85.0446ZM83.8966 44.744C83.8406 44.0533 83.6306 43.5167 83.2666 43.134C82.9026 42.742 82.4219 42.546 81.8246 42.546C81.2459 42.546 80.7653 42.742 80.3826 43.134C79.9999 43.526 79.7713 44.0627 79.6966 44.744H83.8966ZM92.9001 39.032V49H91.7801V47.936C91.3228 48.776 90.5295 49.196 89.4001 49.196C88.3735 49.196 87.5568 48.8553 86.9501 48.174C86.3528 47.4833 86.0541 46.55 86.0541 45.374C86.0541 44.282 86.3341 43.3767 86.8941 42.658C87.4635 41.93 88.2801 41.566 89.3441 41.566C90.3801 41.566 91.1688 41.958 91.7101 42.742V39.032H92.9001ZM89.4981 42.588C88.8168 42.588 88.2755 42.8353 87.8741 43.33C87.4821 43.8247 87.2861 44.4967 87.2861 45.346C87.2861 46.2233 87.4868 46.9233 87.8881 47.446C88.2988 47.9593 88.8448 48.216 89.5261 48.216C90.2168 48.216 90.7581 47.9687 91.1501 47.474C91.5421 46.97 91.7381 46.2747 91.7381 45.388C91.7381 44.5947 91.5515 43.932 91.1781 43.4C90.8141 42.8587 90.2541 42.588 89.4981 42.588ZM95.949 39.032V40.488H94.745V39.032H95.949ZM95.949 41.776V49H94.745V41.776H95.949ZM100.886 41.776V42.756H99.4445V46.97C99.4445 47.2033 99.4445 47.3573 99.4445 47.432C99.4538 47.5067 99.4818 47.6093 99.5285 47.74C99.5752 47.8613 99.6545 47.9407 99.7665 47.978C99.8785 48.0153 100.037 48.034 100.242 48.034C100.42 48.034 100.634 48.02 100.886 47.992V49.014C100.55 49.0513 100.247 49.07 99.9765 49.07C99.6405 49.07 99.3605 49.0327 99.1365 48.958C98.9125 48.8833 98.7398 48.7993 98.6185 48.706C98.5065 48.6127 98.4225 48.4493 98.3665 48.216C98.3105 47.9733 98.2778 47.7727 98.2685 47.614C98.2592 47.446 98.2545 47.1707 98.2545 46.788C98.2545 46.76 98.2545 46.7413 98.2545 46.732C98.2545 46.7133 98.2545 46.69 98.2545 46.662C98.2545 46.634 98.2545 46.6107 98.2545 46.592V42.756H97.0365V41.776H98.2545V39.634H99.4445V41.776H100.886ZM107.571 43.876H106.381C106.306 42.9987 105.718 42.56 104.617 42.56C104.159 42.56 103.8 42.6487 103.539 42.826C103.277 43.0033 103.147 43.2413 103.147 43.54C103.147 43.624 103.156 43.708 103.175 43.792C103.193 43.8667 103.226 43.9367 103.273 44.002C103.329 44.058 103.375 44.1093 103.413 44.156C103.459 44.2027 103.529 44.2493 103.623 44.296C103.725 44.3333 103.8 44.366 103.847 44.394C103.903 44.422 103.996 44.4547 104.127 44.492C104.267 44.52 104.365 44.5433 104.421 44.562C104.477 44.5713 104.584 44.5947 104.743 44.632C104.911 44.6693 105.018 44.6927 105.065 44.702C105.41 44.7767 105.667 44.8373 105.835 44.884C106.012 44.9307 106.25 45.0193 106.549 45.15C106.857 45.2713 107.09 45.402 107.249 45.542C107.407 45.6727 107.547 45.8593 107.669 46.102C107.799 46.3353 107.865 46.6013 107.865 46.9C107.865 47.6 107.589 48.1647 107.039 48.594C106.497 49.014 105.774 49.224 104.869 49.224C103.889 49.224 103.133 49.0093 102.601 48.58C102.078 48.1507 101.798 47.53 101.761 46.718H102.937C103.002 47.7353 103.655 48.244 104.897 48.244C105.429 48.244 105.853 48.1367 106.171 47.922C106.497 47.698 106.661 47.404 106.661 47.04C106.661 46.7973 106.577 46.5967 106.409 46.438C106.241 46.2793 106.054 46.1673 105.849 46.102C105.643 46.0273 105.349 45.9433 104.967 45.85C104.911 45.8407 104.869 45.8313 104.841 45.822C104.757 45.8033 104.575 45.766 104.295 45.71C104.024 45.6447 103.828 45.5933 103.707 45.556C103.585 45.5187 103.408 45.4627 103.175 45.388C102.951 45.304 102.783 45.22 102.671 45.136C102.559 45.0427 102.433 44.9307 102.293 44.8C102.162 44.66 102.069 44.5013 102.013 44.324C101.957 44.1373 101.929 43.9273 101.929 43.694C101.929 43.0407 102.176 42.5227 102.671 42.14C103.175 41.7573 103.847 41.566 104.687 41.566C105.536 41.566 106.227 41.7667 106.759 42.168C107.3 42.5693 107.571 43.1387 107.571 43.876Z" fill="#65717C"/>
<path d="M287.84 71.952C287.088 71.68 286.496 71.24 286.064 70.632C285.648 70.008 285.44 69.28 285.44 68.448C285.44 67.136 285.928 66.064 286.904 65.232C287.896 64.4 289.176 63.984 290.744 63.984C292.248 63.984 293.48 64.4 294.44 65.232C295.4 66.048 295.88 67.096 295.88 68.376C295.88 70.088 295.088 71.28 293.504 71.952C294.528 72.304 295.296 72.8 295.808 73.44C296.32 74.08 296.576 74.936 296.576 76.008C296.576 77.592 296.032 78.872 294.944 79.848C293.856 80.808 292.424 81.288 290.648 81.288C288.888 81.288 287.464 80.816 286.376 79.872C285.304 78.928 284.768 77.688 284.768 76.152C284.768 75.112 285.032 74.232 285.56 73.512C286.104 72.776 286.864 72.256 287.84 71.952ZM290.72 66.192C289.888 66.192 289.224 66.416 288.728 66.864C288.248 67.296 288.008 67.88 288.008 68.616C288.008 69.352 288.256 69.944 288.752 70.392C289.248 70.84 289.896 71.064 290.696 71.064C291.496 71.064 292.136 70.848 292.616 70.416C293.096 69.968 293.336 69.368 293.336 68.616C293.336 67.88 293.096 67.296 292.616 66.864C292.152 66.416 291.52 66.192 290.72 66.192ZM290.648 73.032C289.72 73.032 288.968 73.312 288.392 73.872C287.816 74.416 287.528 75.128 287.528 76.008C287.528 76.968 287.816 77.728 288.392 78.288C288.968 78.848 289.752 79.128 290.744 79.128C291.704 79.128 292.456 78.864 293 78.336C293.544 77.792 293.816 77.04 293.816 76.08C293.816 75.152 293.528 74.416 292.952 73.872C292.376 73.312 291.608 73.032 290.648 73.032ZM306.384 64.104V81H303.456V69.384H299.28V67.368C302.192 67.368 303.824 66.28 304.176 64.104H306.384ZM331.44 68.952H328.584C328.408 66.952 327.168 65.952 324.864 65.952C323.84 65.952 323.04 66.168 322.464 66.6C321.888 67.016 321.6 67.592 321.6 68.328C321.6 69.016 321.808 69.488 322.224 69.744C322.656 70 323.6 70.312 325.056 70.68C325.44 70.792 325.736 70.872 325.944 70.92C327.848 71.4 329.144 71.832 329.832 72.216C331.352 73.032 332.112 74.304 332.112 76.032C332.112 76.784 331.984 77.464 331.728 78.072C331.472 78.68 331.128 79.192 330.696 79.608C330.264 80.008 329.752 80.344 329.16 80.616C328.568 80.888 327.952 81.08 327.312 81.192C326.672 81.32 326.008 81.384 325.32 81.384C323.176 81.384 321.44 80.872 320.112 79.848C318.784 78.824 318.12 77.32 318.12 75.336H321.072C321.072 76.584 321.48 77.512 322.296 78.12C323.112 78.712 324.176 79.008 325.488 79.008C326.64 79.008 327.536 78.776 328.176 78.312C328.832 77.832 329.16 77.168 329.16 76.32C329.16 75.776 328.984 75.336 328.632 75C328.296 74.648 327.928 74.4 327.528 74.256C327.128 74.112 326.432 73.912 325.44 73.656C325.328 73.624 325.24 73.6 325.176 73.584C323.048 73.04 321.648 72.592 320.976 72.24C319.584 71.52 318.84 70.408 318.744 68.904C318.744 68.792 318.744 68.68 318.744 68.568C318.744 67.048 319.312 65.84 320.448 64.944C321.6 64.032 323.136 63.576 325.056 63.576C326.912 63.576 328.424 64.016 329.592 64.896C330.76 65.776 331.376 67.128 331.44 68.952ZM345.442 77.136C345.138 78.48 344.474 79.528 343.45 80.28C342.442 81.032 341.234 81.408 339.826 81.408C337.954 81.408 336.466 80.808 335.362 79.608C334.274 78.392 333.73 76.84 333.73 74.952C333.73 73.016 334.29 71.416 335.41 70.152C336.546 68.888 337.986 68.256 339.73 68.256C341.538 68.256 342.97 68.88 344.026 70.128C345.082 71.36 345.61 73.048 345.61 75.192V75.48H336.466C336.498 76.728 336.81 77.696 337.402 78.384C337.994 79.056 338.818 79.392 339.874 79.392C340.626 79.392 341.234 79.216 341.698 78.864C342.178 78.496 342.554 77.92 342.826 77.136H345.442ZM342.874 73.656C342.794 72.616 342.466 71.8 341.89 71.208C341.33 70.6 340.602 70.296 339.706 70.296C338.81 70.296 338.082 70.584 337.522 71.16C336.978 71.736 336.642 72.568 336.514 73.656H342.874ZM353.738 68.616V70.608H351.242V77.136C351.242 77.52 351.25 77.792 351.266 77.952C351.282 78.096 351.33 78.264 351.41 78.456C351.49 78.632 351.626 78.752 351.818 78.816C352.026 78.88 352.306 78.912 352.658 78.912C353.106 78.912 353.466 78.896 353.738 78.864V81.024C353.194 81.088 352.578 81.12 351.89 81.12C351.41 81.12 350.986 81.08 350.618 81C350.266 80.936 349.97 80.856 349.73 80.76C349.49 80.664 349.29 80.504 349.13 80.28C348.97 80.04 348.842 79.848 348.746 79.704C348.666 79.544 348.602 79.272 348.554 78.888C348.522 78.504 348.506 78.216 348.506 78.024C348.506 77.816 348.506 77.464 348.506 76.968C348.506 76.904 348.506 76.856 348.506 76.824C348.506 76.776 348.506 76.728 348.506 76.68C348.506 76.616 348.506 76.56 348.506 76.512V70.608H346.442V68.616H348.506V64.896H351.242V68.616H353.738ZM361.73 68.616V70.608H359.234V77.136C359.234 77.52 359.242 77.792 359.258 77.952C359.274 78.096 359.322 78.264 359.402 78.456C359.482 78.632 359.618 78.752 359.81 78.816C360.018 78.88 360.298 78.912 360.65 78.912C361.098 78.912 361.458 78.896 361.73 78.864V81.024C361.186 81.088 360.57 81.12 359.882 81.12C359.402 81.12 358.978 81.08 358.61 81C358.258 80.936 357.962 80.856 357.722 80.76C357.482 80.664 357.282 80.504 357.122 80.28C356.962 80.04 356.834 79.848 356.738 79.704C356.658 79.544 356.594 79.272 356.546 78.888C356.514 78.504 356.498 78.216 356.498 78.024C356.498 77.816 356.498 77.464 356.498 76.968C356.498 76.904 356.498 76.856 356.498 76.824C356.498 76.776 356.498 76.728 356.498 76.68C356.498 76.616 356.498 76.56 356.498 76.512V70.608H354.434V68.616H356.498V64.896H359.234V68.616H361.73ZM366.482 63.912V81H363.77V63.912H366.482ZM380.551 77.136C380.247 78.48 379.583 79.528 378.559 80.28C377.551 81.032 376.343 81.408 374.935 81.408C373.063 81.408 371.575 80.808 370.471 79.608C369.383 78.392 368.839 76.84 368.839 74.952C368.839 73.016 369.399 71.416 370.519 70.152C371.655 68.888 373.095 68.256 374.839 68.256C376.647 68.256 378.079 68.88 379.135 70.128C380.191 71.36 380.719 73.048 380.719 75.192V75.48H371.575C371.607 76.728 371.919 77.696 372.511 78.384C373.103 79.056 373.927 79.392 374.983 79.392C375.735 79.392 376.343 79.216 376.807 78.864C377.287 78.496 377.663 77.92 377.935 77.136H380.551ZM377.983 73.656C377.903 72.616 377.575 71.8 376.999 71.208C376.439 70.6 375.711 70.296 374.815 70.296C373.919 70.296 373.191 70.584 372.631 71.16C372.087 71.736 371.751 72.568 371.623 73.656H377.983ZM385.415 68.616V70.368C386.439 68.976 387.735 68.28 389.303 68.28C390.119 68.28 390.823 68.464 391.415 68.832C392.023 69.2 392.471 69.72 392.759 70.392C393.751 68.984 395.087 68.28 396.767 68.28C397.935 68.28 398.903 68.632 399.671 69.336C400.439 70.024 400.823 70.984 400.823 72.216V81H398.087V73.392C398.087 72.512 397.935 71.824 397.631 71.328C397.327 70.832 396.743 70.584 395.879 70.584C394.999 70.584 394.327 70.864 393.863 71.424C393.399 71.968 393.167 72.736 393.167 73.728V81H390.431V73.248C390.431 72.368 390.295 71.704 390.023 71.256C389.767 70.808 389.223 70.584 388.391 70.584C387.463 70.584 386.759 70.888 386.279 71.496C385.799 72.088 385.559 72.88 385.559 73.872V81H382.823V68.616H385.415ZM414.77 77.136C414.466 78.48 413.802 79.528 412.778 80.28C411.77 81.032 410.562 81.408 409.154 81.408C407.282 81.408 405.794 80.808 404.69 79.608C403.602 78.392 403.058 76.84 403.058 74.952C403.058 73.016 403.618 71.416 404.738 70.152C405.874 68.888 407.314 68.256 409.058 68.256C410.866 68.256 412.298 68.88 413.354 70.128C414.41 71.36 414.938 73.048 414.938 75.192V75.48H405.794C405.826 76.728 406.138 77.696 406.73 78.384C407.322 79.056 408.146 79.392 409.202 79.392C409.954 79.392 410.562 79.216 411.026 78.864C411.506 78.496 411.882 77.92 412.154 77.136H414.77ZM412.202 73.656C412.122 72.616 411.794 71.8 411.218 71.208C410.658 70.6 409.93 70.296 409.034 70.296C408.138 70.296 407.41 70.584 406.85 71.16C406.306 71.736 405.97 72.568 405.842 73.656H412.202ZM419.634 68.616V70.44C420.626 69 421.994 68.28 423.738 68.28C425.146 68.28 426.194 68.664 426.882 69.432C427.586 70.2 427.938 71.304 427.938 72.744V81H425.202V73.8C425.202 73.304 425.178 72.896 425.13 72.576C425.082 72.24 424.978 71.904 424.818 71.568C424.674 71.232 424.434 70.984 424.098 70.824C423.762 70.648 423.33 70.56 422.802 70.56C420.786 70.56 419.778 71.816 419.778 74.328V81H417.042V68.616H419.634ZM436.847 68.616V70.608H434.351V77.136C434.351 77.52 434.359 77.792 434.375 77.952C434.391 78.096 434.439 78.264 434.519 78.456C434.599 78.632 434.735 78.752 434.927 78.816C435.135 78.88 435.415 78.912 435.767 78.912C436.215 78.912 436.575 78.896 436.847 78.864V81.024C436.303 81.088 435.687 81.12 434.999 81.12C434.519 81.12 434.095 81.08 433.727 81C433.375 80.936 433.079 80.856 432.839 80.76C432.599 80.664 432.399 80.504 432.239 80.28C432.079 80.04 431.951 79.848 431.855 79.704C431.775 79.544 431.711 79.272 431.663 78.888C431.631 78.504 431.615 78.216 431.615 78.024C431.615 77.816 431.615 77.464 431.615 76.968C431.615 76.904 431.615 76.856 431.615 76.824C431.615 76.776 431.615 76.728 431.615 76.68C431.615 76.616 431.615 76.56 431.615 76.512V70.608H429.551V68.616H431.615V64.896H434.351V68.616H436.847Z" fill="black"/>
<path d="M580.048 64.104V81H577.12V69.384H572.944V67.368C575.856 67.368 577.488 66.28 577.84 64.104H580.048ZM596.36 78.576V81H584.888C584.904 80.248 585.008 79.56 585.2 78.936C585.392 78.312 585.608 77.784 585.848 77.352C586.104 76.904 586.472 76.456 586.952 76.008C587.448 75.544 587.888 75.168 588.272 74.88C588.672 74.576 589.216 74.192 589.904 73.728C589.952 73.696 590.184 73.544 590.6 73.272C591.032 72.984 591.296 72.808 591.392 72.744C591.488 72.664 591.704 72.496 592.04 72.24C592.376 71.968 592.592 71.752 592.688 71.592C592.8 71.432 592.944 71.216 593.12 70.944C593.312 70.672 593.44 70.4 593.504 70.128C593.568 69.84 593.6 69.536 593.6 69.216C593.6 68.336 593.352 67.648 592.856 67.152C592.376 66.64 591.72 66.384 590.888 66.384C590.408 66.384 589.992 66.464 589.64 66.624C589.288 66.768 589.008 66.96 588.8 67.2C588.608 67.44 588.448 67.752 588.32 68.136C588.192 68.504 588.104 68.856 588.056 69.192C588.024 69.528 588 69.92 587.984 70.368H585.32V69.936C585.32 68.128 585.824 66.696 586.832 65.64C587.856 64.568 589.232 64.032 590.96 64.032C592.592 64.032 593.904 64.496 594.896 65.424C595.888 66.336 596.384 67.552 596.384 69.072C596.384 69.68 596.288 70.256 596.096 70.8C595.904 71.344 595.696 71.784 595.472 72.12C595.264 72.456 594.896 72.848 594.368 73.296C593.84 73.744 593.448 74.056 593.192 74.232C592.936 74.408 592.464 74.728 591.776 75.192C589.776 76.488 588.576 77.616 588.176 78.576H596.36ZM613.952 63.888L620.552 81H617.336L615.704 76.464H608.936L607.256 81H604.16L610.76 63.888H613.952ZM614.912 74.208L612.368 67.008L609.704 74.208H614.912ZM633.031 76.32C632.839 77.84 632.231 79.056 631.207 79.968C630.183 80.864 628.895 81.312 627.343 81.312C625.487 81.312 624.007 80.728 622.903 79.56C621.799 78.376 621.247 76.832 621.247 74.928C621.247 72.88 621.799 71.256 622.903 70.056C624.023 68.84 625.527 68.232 627.415 68.232C628.999 68.232 630.271 68.632 631.231 69.432C632.207 70.232 632.775 71.344 632.935 72.768H630.223C630.063 71.984 629.743 71.384 629.263 70.968C628.783 70.552 628.175 70.344 627.439 70.344C626.383 70.344 625.551 70.744 624.943 71.544C624.335 72.328 624.031 73.408 624.031 74.784C624.031 76.16 624.319 77.232 624.895 78C625.487 78.768 626.303 79.152 627.343 79.152C628.159 79.152 628.823 78.912 629.335 78.432C629.863 77.936 630.199 77.232 630.343 76.32H633.031ZM646.367 76.32C646.175 77.84 645.567 79.056 644.543 79.968C643.519 80.864 642.231 81.312 640.679 81.312C638.823 81.312 637.343 80.728 636.239 79.56C635.135 78.376 634.583 76.832 634.583 74.928C634.583 72.88 635.135 71.256 636.239 70.056C637.359 68.84 638.863 68.232 640.751 68.232C642.335 68.232 643.607 68.632 644.567 69.432C645.543 70.232 646.111 71.344 646.271 72.768H643.559C643.399 71.984 643.079 71.384 642.599 70.968C642.119 70.552 641.511 70.344 640.775 70.344C639.719 70.344 638.887 70.744 638.279 71.544C637.671 72.328 637.367 73.408 637.367 74.784C637.367 76.16 637.655 77.232 638.231 78C638.823 78.768 639.639 79.152 640.679 79.152C641.495 79.152 642.159 78.912 642.671 78.432C643.199 77.936 643.535 77.232 643.679 76.32H646.367ZM654.207 68.256C656.095 68.256 657.599 68.848 658.719 70.032C659.839 71.216 660.399 72.808 660.399 74.808C660.399 76.824 659.839 78.424 658.719 79.608C657.615 80.792 656.111 81.384 654.207 81.384C652.271 81.384 650.735 80.792 649.599 79.608C648.463 78.424 647.895 76.824 647.895 74.808C647.895 72.808 648.463 71.216 649.599 70.032C650.751 68.848 652.287 68.256 654.207 68.256ZM656.703 71.592C656.095 70.808 655.247 70.416 654.159 70.416C653.071 70.416 652.215 70.808 651.591 71.592C650.967 72.376 650.655 73.448 650.655 74.808C650.655 76.2 650.967 77.288 651.591 78.072C652.215 78.856 653.079 79.248 654.183 79.248C655.255 79.248 656.095 78.856 656.703 78.072C657.327 77.272 657.639 76.176 657.639 74.784C657.639 73.424 657.327 72.36 656.703 71.592ZM673.57 68.616V81H671.002V79.152C669.962 80.608 668.602 81.336 666.922 81.336C665.562 81.336 664.514 80.952 663.778 80.184C663.058 79.4 662.698 78.28 662.698 76.824V68.616H665.434V75.696C665.434 76.128 665.442 76.48 665.458 76.752C665.474 77.008 665.522 77.304 665.602 77.64C665.698 77.96 665.826 78.208 665.986 78.384C666.162 78.56 666.402 78.712 666.706 78.84C667.026 78.968 667.41 79.032 667.858 79.032C668.882 79.032 669.634 78.672 670.114 77.952C670.594 77.216 670.834 76.288 670.834 75.168V68.616H673.57ZM679.095 68.616V70.44C680.087 69 681.455 68.28 683.199 68.28C684.607 68.28 685.655 68.664 686.343 69.432C687.047 70.2 687.399 71.304 687.399 72.744V81H684.663V73.8C684.663 73.304 684.639 72.896 684.591 72.576C684.543 72.24 684.439 71.904 684.279 71.568C684.135 71.232 683.895 70.984 683.559 70.824C683.223 70.648 682.791 70.56 682.263 70.56C680.247 70.56 679.239 71.816 679.239 74.328V81H676.503V68.616H679.095ZM696.308 68.616V70.608H693.812V77.136C693.812 77.52 693.82 77.792 693.836 77.952C693.852 78.096 693.9 78.264 693.98 78.456C694.06 78.632 694.196 78.752 694.388 78.816C694.596 78.88 694.876 78.912 695.228 78.912C695.676 78.912 696.036 78.896 696.308 78.864V81.024C695.764 81.088 695.148 81.12 694.46 81.12C693.98 81.12 693.556 81.08 693.188 81C692.836 80.936 692.54 80.856 692.3 80.76C692.06 80.664 691.86 80.504 691.7 80.28C691.54 80.04 691.412 79.848 691.316 79.704C691.236 79.544 691.172 79.272 691.124 78.888C691.092 78.504 691.076 78.216 691.076 78.024C691.076 77.816 691.076 77.464 691.076 76.968C691.076 76.904 691.076 76.856 691.076 76.824C691.076 76.776 691.076 76.728 691.076 76.68C691.076 76.616 691.076 76.56 691.076 76.512V70.608H689.012V68.616H691.076V64.896H693.812V68.616H696.308ZM708.069 72.216H705.453C705.293 70.904 704.397 70.248 702.765 70.248C702.061 70.248 701.517 70.376 701.133 70.632C700.749 70.888 700.557 71.24 700.557 71.688C700.557 71.832 700.565 71.96 700.581 72.072C700.613 72.184 700.661 72.288 700.725 72.384C700.805 72.464 700.869 72.536 700.917 72.6C700.981 72.664 701.085 72.728 701.229 72.792C701.373 72.856 701.485 72.912 701.565 72.96C701.661 72.992 701.813 73.04 702.021 73.104C702.229 73.152 702.389 73.192 702.501 73.224C702.629 73.256 702.829 73.304 703.101 73.368C703.373 73.416 703.581 73.456 703.725 73.488C704.349 73.632 704.797 73.744 705.069 73.824C705.357 73.888 705.765 74.032 706.293 74.256C706.837 74.464 707.237 74.688 707.493 74.928C707.749 75.152 707.981 75.472 708.189 75.888C708.413 76.288 708.525 76.752 708.525 77.28C708.525 78.528 708.037 79.52 707.061 80.256C706.085 80.992 704.773 81.36 703.125 81.36C701.365 81.36 700.013 80.992 699.069 80.256C698.125 79.52 697.621 78.448 697.557 77.04H700.173C700.317 78.592 701.317 79.368 703.173 79.368C703.973 79.368 704.613 79.208 705.093 78.888C705.589 78.552 705.837 78.112 705.837 77.568C705.837 77.296 705.773 77.064 705.645 76.872C705.533 76.68 705.341 76.52 705.069 76.392C704.797 76.248 704.533 76.144 704.277 76.08C704.037 76 703.709 75.912 703.293 75.816C703.229 75.8 703.181 75.792 703.148 75.792C703.117 75.776 703.077 75.768 703.029 75.768C702.981 75.752 702.933 75.736 702.885 75.72C701.125 75.288 700.005 74.952 699.525 74.712C698.389 74.168 697.821 73.264 697.821 72C697.821 70.832 698.269 69.92 699.165 69.264C700.061 68.592 701.301 68.256 702.885 68.256C704.405 68.256 705.645 68.584 706.605 69.24C707.581 69.896 708.069 70.888 708.069 72.216Z" fill="black"/>
<path d="M292.022 39.032V40.18H288.676V49H287.36V40.18H284.014V39.032H292.022ZM291.95 42.602C292.585 41.9113 293.448 41.566 294.54 41.566C295.632 41.566 296.482 41.8973 297.088 42.56C297.695 43.2227 297.998 44.1513 297.998 45.346C297.998 46.5687 297.695 47.5207 297.088 48.202C296.482 48.8833 295.628 49.224 294.526 49.224C293.425 49.224 292.562 48.888 291.936 48.216C291.311 47.544 290.998 46.6107 290.998 45.416C290.998 44.2307 291.316 43.2927 291.95 42.602ZM296.164 43.33C295.763 42.8167 295.212 42.56 294.512 42.56C293.812 42.56 293.257 42.8167 292.846 43.33C292.436 43.8433 292.23 44.5293 292.23 45.388C292.23 46.2747 292.431 46.97 292.832 47.474C293.243 47.9687 293.812 48.216 294.54 48.216C295.24 48.216 295.786 47.964 296.178 47.46C296.58 46.956 296.78 46.2607 296.78 45.374C296.78 44.5153 296.575 43.834 296.164 43.33ZM302.51 41.776V42.756H301.068V46.97C301.068 47.2033 301.068 47.3573 301.068 47.432C301.077 47.5067 301.105 47.6093 301.152 47.74C301.198 47.8613 301.278 47.9407 301.39 47.978C301.502 48.0153 301.66 48.034 301.866 48.034C302.043 48.034 302.258 48.02 302.51 47.992V49.014C302.174 49.0513 301.87 49.07 301.6 49.07C301.264 49.07 300.984 49.0327 300.76 48.958C300.536 48.8833 300.363 48.7993 300.242 48.706C300.13 48.6127 300.046 48.4493 299.99 48.216C299.934 47.9733 299.901 47.7727 299.892 47.614C299.882 47.446 299.878 47.1707 299.878 46.788C299.878 46.76 299.878 46.7413 299.878 46.732C299.878 46.7133 299.878 46.69 299.878 46.662C299.878 46.634 299.878 46.6107 299.878 46.592V42.756H298.66V41.776H299.878V39.634H301.068V41.776H302.51ZM310.23 48.048V48.972C309.987 49.0653 309.716 49.112 309.418 49.112C308.736 49.112 308.386 48.7573 308.368 48.048C307.686 48.8133 306.814 49.196 305.75 49.196C305.04 49.196 304.476 49.014 304.056 48.65C303.645 48.286 303.44 47.7867 303.44 47.152C303.44 45.864 304.294 45.1127 306.002 44.898C306.114 44.8793 306.277 44.8607 306.492 44.842C307.304 44.7487 307.803 44.6413 307.99 44.52C308.204 44.3707 308.312 44.114 308.312 43.75C308.312 42.9567 307.766 42.56 306.674 42.56C306.114 42.56 305.689 42.6767 305.4 42.91C305.11 43.134 304.938 43.5073 304.882 44.03H303.72C303.738 43.2553 304.014 42.6533 304.546 42.224C305.078 41.7947 305.81 41.58 306.744 41.58C307.761 41.58 308.517 41.8133 309.012 42.28C309.17 42.4293 309.287 42.6253 309.362 42.868C309.436 43.1107 309.478 43.3113 309.488 43.47C309.497 43.6193 309.502 43.848 309.502 44.156C309.502 44.5107 309.492 45.0473 309.474 45.766C309.455 46.4847 309.446 47.0213 309.446 47.376C309.446 47.6373 309.478 47.824 309.544 47.936C309.618 48.0387 309.749 48.09 309.936 48.09C310.01 48.09 310.108 48.076 310.23 48.048ZM308.312 45.248C308.228 45.3133 308.139 45.3693 308.046 45.416C307.952 45.4627 307.831 45.5 307.682 45.528C307.542 45.556 307.444 45.5793 307.388 45.598C307.341 45.6073 307.22 45.626 307.024 45.654C306.828 45.6727 306.725 45.682 306.716 45.682C306.426 45.7193 306.235 45.7473 306.142 45.766C306.058 45.7753 305.89 45.8127 305.638 45.878C305.395 45.9433 305.222 46.018 305.12 46.102C305.017 46.186 304.914 46.312 304.812 46.48C304.718 46.6387 304.672 46.83 304.672 47.054C304.672 47.4273 304.798 47.7213 305.05 47.936C305.311 48.1507 305.666 48.258 306.114 48.258C306.683 48.258 307.192 48.09 307.64 47.754C308.088 47.418 308.312 47.0213 308.312 46.564V45.248ZM312.611 39.032V49H311.407V39.032H312.611ZM325.477 39.032V40.18H322.131V49H320.815V40.18H317.469V39.032H325.477ZM328.871 41.608V42.84C328.787 42.8307 328.684 42.826 328.563 42.826C328.18 42.826 327.849 42.8867 327.569 43.008C327.289 43.12 327.065 43.2693 326.897 43.456C326.738 43.6427 326.608 43.876 326.505 44.156C326.402 44.436 326.332 44.716 326.295 44.996C326.267 45.276 326.253 45.5933 326.253 45.948V49H325.063V41.776H326.197V43.33C326.673 42.182 327.564 41.608 328.871 41.608ZM336.165 48.048V48.972C335.922 49.0653 335.652 49.112 335.353 49.112C334.672 49.112 334.322 48.7573 334.303 48.048C333.622 48.8133 332.749 49.196 331.685 49.196C330.976 49.196 330.411 49.014 329.991 48.65C329.58 48.286 329.375 47.7867 329.375 47.152C329.375 45.864 330.229 45.1127 331.937 44.898C332.049 44.8793 332.212 44.8607 332.427 44.842C333.239 44.7487 333.738 44.6413 333.925 44.52C334.14 44.3707 334.247 44.114 334.247 43.75C334.247 42.9567 333.701 42.56 332.609 42.56C332.049 42.56 331.624 42.6767 331.335 42.91C331.046 43.134 330.873 43.5073 330.817 44.03H329.655C329.674 43.2553 329.949 42.6533 330.481 42.224C331.013 41.7947 331.746 41.58 332.679 41.58C333.696 41.58 334.452 41.8133 334.947 42.28C335.106 42.4293 335.222 42.6253 335.297 42.868C335.372 43.1107 335.414 43.3113 335.423 43.47C335.432 43.6193 335.437 43.848 335.437 44.156C335.437 44.5107 335.428 45.0473 335.409 45.766C335.39 46.4847 335.381 47.0213 335.381 47.376C335.381 47.6373 335.414 47.824 335.479 47.936C335.554 48.0387 335.684 48.09 335.871 48.09C335.946 48.09 336.044 48.076 336.165 48.048ZM334.247 45.248C334.163 45.3133 334.074 45.3693 333.981 45.416C333.888 45.4627 333.766 45.5 333.617 45.528C333.477 45.556 333.379 45.5793 333.323 45.598C333.276 45.6073 333.155 45.626 332.959 45.654C332.763 45.6727 332.66 45.682 332.651 45.682C332.362 45.7193 332.17 45.7473 332.077 45.766C331.993 45.7753 331.825 45.8127 331.573 45.878C331.33 45.9433 331.158 46.018 331.055 46.102C330.952 46.186 330.85 46.312 330.747 46.48C330.654 46.6387 330.607 46.83 330.607 47.054C330.607 47.4273 330.733 47.7213 330.985 47.936C331.246 48.1507 331.601 48.258 332.049 48.258C332.618 48.258 333.127 48.09 333.575 47.754C334.023 47.418 334.247 47.0213 334.247 46.564V45.248ZM338.407 41.776V42.896C339.004 42.0187 339.825 41.58 340.871 41.58C341.72 41.58 342.331 41.804 342.705 42.252C343.087 42.6907 343.279 43.3393 343.279 44.198V49H342.089V44.744C342.089 44.3893 342.075 44.114 342.047 43.918C342.028 43.7127 341.972 43.498 341.879 43.274C341.785 43.0407 341.627 42.8727 341.403 42.77C341.179 42.6673 340.889 42.616 340.535 42.616C339.163 42.616 338.477 43.484 338.477 45.22V49H337.287V41.776H338.407ZM350.428 43.876H349.238C349.163 42.9987 348.575 42.56 347.474 42.56C347.017 42.56 346.657 42.6487 346.396 42.826C346.135 43.0033 346.004 43.2413 346.004 43.54C346.004 43.624 346.013 43.708 346.032 43.792C346.051 43.8667 346.083 43.9367 346.13 44.002C346.186 44.058 346.233 44.1093 346.27 44.156C346.317 44.2027 346.387 44.2493 346.48 44.296C346.583 44.3333 346.657 44.366 346.704 44.394C346.76 44.422 346.853 44.4547 346.984 44.492C347.124 44.52 347.222 44.5433 347.278 44.562C347.334 44.5713 347.441 44.5947 347.6 44.632C347.768 44.6693 347.875 44.6927 347.922 44.702C348.267 44.7767 348.524 44.8373 348.692 44.884C348.869 44.9307 349.107 45.0193 349.406 45.15C349.714 45.2713 349.947 45.402 350.106 45.542C350.265 45.6727 350.405 45.8593 350.526 46.102C350.657 46.3353 350.722 46.6013 350.722 46.9C350.722 47.6 350.447 48.1647 349.896 48.594C349.355 49.014 348.631 49.224 347.726 49.224C346.746 49.224 345.99 49.0093 345.458 48.58C344.935 48.1507 344.655 47.53 344.618 46.718H345.794C345.859 47.7353 346.513 48.244 347.754 48.244C348.286 48.244 348.711 48.1367 349.028 47.922C349.355 47.698 349.518 47.404 349.518 47.04C349.518 46.7973 349.434 46.5967 349.266 46.438C349.098 46.2793 348.911 46.1673 348.706 46.102C348.501 46.0273 348.207 45.9433 347.824 45.85C347.768 45.8407 347.726 45.8313 347.698 45.822C347.614 45.8033 347.432 45.766 347.152 45.71C346.881 45.6447 346.685 45.5933 346.564 45.556C346.443 45.5187 346.265 45.4627 346.032 45.388C345.808 45.304 345.64 45.22 345.528 45.136C345.416 45.0427 345.29 44.9307 345.15 44.8C345.019 44.66 344.926 44.5013 344.87 44.324C344.814 44.1373 344.786 43.9273 344.786 43.694C344.786 43.0407 345.033 42.5227 345.528 42.14C346.032 41.7573 346.704 41.566 347.544 41.566C348.393 41.566 349.084 41.7667 349.616 42.168C350.157 42.5693 350.428 43.1387 350.428 43.876ZM355.328 39.004V40.04C355.123 40.0027 354.903 39.984 354.67 39.984C354.297 39.984 354.049 40.0447 353.928 40.166C353.816 40.2873 353.76 40.5487 353.76 40.95V41.776H355.146V42.756H353.76V49H352.556V42.756H351.338V41.776H352.556V40.81C352.556 40.1567 352.724 39.6853 353.06 39.396C353.396 39.0973 353.895 38.948 354.558 38.948C354.763 38.948 355.02 38.9667 355.328 39.004ZM362.382 46.718C362.019 48.398 360.969 49.238 359.233 49.238C358.169 49.238 357.333 48.9067 356.727 48.244C356.129 47.5813 355.831 46.662 355.831 45.486C355.831 44.3193 356.139 43.3767 356.755 42.658C357.38 41.93 358.192 41.566 359.191 41.566C360.301 41.566 361.123 41.944 361.655 42.7C362.196 43.4467 362.467 44.394 362.467 45.542V45.71H357.035L357.021 45.794C357.021 46.5593 357.221 47.1613 357.623 47.6C358.024 48.0387 358.575 48.258 359.275 48.258C359.797 48.258 360.208 48.1367 360.507 47.894C360.815 47.6513 361.053 47.2593 361.221 46.718H362.382ZM361.235 44.744C361.179 44.0533 360.969 43.5167 360.605 43.134C360.241 42.742 359.76 42.546 359.163 42.546C358.584 42.546 358.103 42.742 357.721 43.134C357.338 43.526 357.109 44.0627 357.035 44.744H361.235ZM367.494 41.608V42.84C367.41 42.8307 367.307 42.826 367.186 42.826C366.803 42.826 366.472 42.8867 366.192 43.008C365.912 43.12 365.688 43.2693 365.52 43.456C365.361 43.6427 365.231 43.876 365.128 44.156C365.025 44.436 364.955 44.716 364.918 44.996C364.89 45.276 364.876 45.5933 364.876 45.948V49H363.686V41.776H364.82V43.33C365.296 42.182 366.187 41.608 367.494 41.608ZM379.553 41.958H378.279C378.139 40.6047 377.313 39.928 375.801 39.928C375.082 39.928 374.527 40.0727 374.135 40.362C373.743 40.6513 373.547 41.0573 373.547 41.58C373.547 41.7667 373.575 41.93 373.631 42.07C373.687 42.21 373.78 42.336 373.911 42.448C374.051 42.5507 374.181 42.6393 374.303 42.714C374.424 42.7887 374.615 42.8633 374.877 42.938C375.138 43.0127 375.348 43.0687 375.507 43.106C375.665 43.134 375.913 43.1853 376.249 43.26C376.659 43.344 377 43.4233 377.271 43.498C377.541 43.5633 377.863 43.6753 378.237 43.834C378.61 43.9927 378.904 44.17 379.119 44.366C379.343 44.5527 379.534 44.8047 379.693 45.122C379.861 45.4393 379.945 45.7987 379.945 46.2C379.945 46.9 379.749 47.488 379.357 47.964C378.965 48.4307 378.489 48.7573 377.929 48.944C377.369 49.1307 376.748 49.224 376.067 49.224C374.816 49.224 373.813 48.93 373.057 48.342C372.31 47.7447 371.937 46.8673 371.937 45.71H373.211C373.239 46.5593 373.523 47.18 374.065 47.572C374.606 47.9547 375.311 48.146 376.179 48.146C376.86 48.146 377.443 48.006 377.929 47.726C378.414 47.4367 378.657 46.97 378.657 46.326C378.657 46.0273 378.591 45.7753 378.461 45.57C378.33 45.3553 378.125 45.1827 377.845 45.052C377.565 44.912 377.285 44.8 377.005 44.716C376.725 44.632 376.356 44.5387 375.899 44.436C375.833 44.4267 375.787 44.4173 375.759 44.408C374.732 44.1747 374.06 43.988 373.743 43.848C372.772 43.428 372.287 42.7047 372.287 41.678C372.287 40.726 372.637 40.0167 373.337 39.55C374.046 39.074 374.9 38.836 375.899 38.836C376.991 38.836 377.863 39.0973 378.517 39.62C379.17 40.1427 379.515 40.922 379.553 41.958ZM387.539 46.718C387.175 48.398 386.125 49.238 384.389 49.238C383.325 49.238 382.489 48.9067 381.883 48.244C381.285 47.5813 380.987 46.662 380.987 45.486C380.987 44.3193 381.295 43.3767 381.911 42.658C382.536 41.93 383.348 41.566 384.347 41.566C385.457 41.566 386.279 41.944 386.811 42.7C387.352 43.4467 387.623 44.394 387.623 45.542V45.71H382.191L382.177 45.794C382.177 46.5593 382.377 47.1613 382.779 47.6C383.18 48.0387 383.731 48.258 384.431 48.258C384.953 48.258 385.364 48.1367 385.663 47.894C385.971 47.6513 386.209 47.2593 386.377 46.718H387.539ZM386.391 44.744C386.335 44.0533 386.125 43.5167 385.761 43.134C385.397 42.742 384.916 42.546 384.319 42.546C383.74 42.546 383.259 42.742 382.877 43.134C382.494 43.526 382.265 44.0627 382.191 44.744H386.391ZM391.978 41.776V42.756H390.536V46.97C390.536 47.2033 390.536 47.3573 390.536 47.432C390.546 47.5067 390.574 47.6093 390.62 47.74C390.667 47.8613 390.746 47.9407 390.858 47.978C390.97 48.0153 391.129 48.034 391.334 48.034C391.512 48.034 391.726 48.02 391.978 47.992V49.014C391.642 49.0513 391.339 49.07 391.068 49.07C390.732 49.07 390.452 49.0327 390.228 48.958C390.004 48.8833 389.832 48.7993 389.71 48.706C389.598 48.6127 389.514 48.4493 389.458 48.216C389.402 47.9733 389.37 47.7727 389.36 47.614C389.351 47.446 389.346 47.1707 389.346 46.788C389.346 46.76 389.346 46.7413 389.346 46.732C389.346 46.7133 389.346 46.69 389.346 46.662C389.346 46.634 389.346 46.6107 389.346 46.592V42.756H388.128V41.776H389.346V39.634H390.536V41.776H391.978ZM396.394 41.776V42.756H394.952V46.97C394.952 47.2033 394.952 47.3573 394.952 47.432C394.962 47.5067 394.99 47.6093 395.036 47.74C395.083 47.8613 395.162 47.9407 395.274 47.978C395.386 48.0153 395.545 48.034 395.75 48.034C395.928 48.034 396.142 48.02 396.394 47.992V49.014C396.058 49.0513 395.755 49.07 395.484 49.07C395.148 49.07 394.868 49.0327 394.644 48.958C394.42 48.8833 394.248 48.7993 394.126 48.706C394.014 48.6127 393.93 48.4493 393.874 48.216C393.818 47.9733 393.786 47.7727 393.776 47.614C393.767 47.446 393.762 47.1707 393.762 46.788C393.762 46.76 393.762 46.7413 393.762 46.732C393.762 46.7133 393.762 46.69 393.762 46.662C393.762 46.634 393.762 46.6107 393.762 46.592V42.756H392.544V41.776H393.762V39.634H394.952V41.776H396.394ZM398.976 39.032V49H397.772V39.032H398.976ZM406.994 46.718C406.63 48.398 405.58 49.238 403.844 49.238C402.78 49.238 401.944 48.9067 401.338 48.244C400.74 47.5813 400.442 46.662 400.442 45.486C400.442 44.3193 400.75 43.3767 401.366 42.658C401.991 41.93 402.803 41.566 403.802 41.566C404.912 41.566 405.734 41.944 406.266 42.7C406.807 43.4467 407.078 44.394 407.078 45.542V45.71H401.646L401.632 45.794C401.632 46.5593 401.832 47.1613 402.234 47.6C402.635 48.0387 403.186 48.258 403.886 48.258C404.408 48.258 404.819 48.1367 405.118 47.894C405.426 47.6513 405.664 47.2593 405.832 46.718H406.994ZM405.846 44.744C405.79 44.0533 405.58 43.5167 405.216 43.134C404.852 42.742 404.371 42.546 403.774 42.546C403.195 42.546 402.714 42.742 402.332 43.134C401.949 43.526 401.72 44.0627 401.646 44.744H405.846ZM409.459 41.776V42.826C409.777 42.3967 410.117 42.084 410.481 41.888C410.845 41.692 411.289 41.594 411.811 41.594C412.801 41.594 413.468 42.0093 413.813 42.84C414.439 42 415.237 41.58 416.207 41.58C416.954 41.58 417.519 41.79 417.901 42.21C418.293 42.6207 418.489 43.1993 418.489 43.946V49H417.299V44.45C417.299 43.8527 417.206 43.4047 417.019 43.106C416.833 42.798 416.445 42.644 415.857 42.644C414.625 42.644 414.009 43.3953 414.009 44.898V49H412.819V44.366C412.819 43.8153 412.726 43.3953 412.539 43.106C412.362 42.8073 412.012 42.658 411.489 42.658C410.752 42.658 410.239 42.8867 409.949 43.344C409.669 43.792 409.529 44.4033 409.529 45.178V49H408.339V41.776H409.459ZM426.449 46.718C426.085 48.398 425.035 49.238 423.299 49.238C422.235 49.238 421.4 48.9067 420.793 48.244C420.196 47.5813 419.897 46.662 419.897 45.486C419.897 44.3193 420.205 43.3767 420.821 42.658C421.446 41.93 422.258 41.566 423.257 41.566C424.368 41.566 425.189 41.944 425.721 42.7C426.262 43.4467 426.533 44.394 426.533 45.542V45.71H421.101L421.087 45.794C421.087 46.5593 421.288 47.1613 421.689 47.6C422.09 48.0387 422.641 48.258 423.341 48.258C423.864 48.258 424.274 48.1367 424.573 47.894C424.881 47.6513 425.119 47.2593 425.287 46.718H426.449ZM425.301 44.744C425.245 44.0533 425.035 43.5167 424.671 43.134C424.307 42.742 423.826 42.546 423.229 42.546C422.65 42.546 422.17 42.742 421.787 43.134C421.404 43.526 421.176 44.0627 421.101 44.744H425.301ZM428.914 41.776V42.826C429.232 42.3967 429.572 42.084 429.936 41.888C430.3 41.692 430.744 41.594 431.266 41.594C432.256 41.594 432.923 42.0093 433.268 42.84C433.894 42 434.692 41.58 435.662 41.58C436.409 41.58 436.974 41.79 437.356 42.21C437.748 42.6207 437.944 43.1993 437.944 43.946V49H436.754V44.45C436.754 43.8527 436.661 43.4047 436.474 43.106C436.288 42.798 435.9 42.644 435.312 42.644C434.08 42.644 433.464 43.3953 433.464 44.898V49H432.274V44.366C432.274 43.8153 432.181 43.3953 431.994 43.106C431.817 42.8073 431.467 42.658 430.944 42.658C430.207 42.658 429.694 42.8867 429.404 43.344C429.124 43.792 428.984 44.4033 428.984 45.178V49H427.794V41.776H428.914ZM442.824 41.776V42.756H441.382V46.97C441.382 47.2033 441.382 47.3573 441.382 47.432C441.391 47.5067 441.419 47.6093 441.466 47.74C441.513 47.8613 441.592 47.9407 441.704 47.978C441.816 48.0153 441.975 48.034 442.18 48.034C442.357 48.034 442.572 48.02 442.824 47.992V49.014C442.488 49.0513 442.185 49.07 441.914 49.07C441.578 49.07 441.298 49.0327 441.074 48.958C440.85 48.8833 440.677 48.7993 440.556 48.706C440.444 48.6127 440.36 48.4493 440.304 48.216C440.248 47.9733 440.215 47.7727 440.206 47.614C440.197 47.446 440.192 47.1707 440.192 46.788C440.192 46.76 440.192 46.7413 440.192 46.732C440.192 46.7133 440.192 46.69 440.192 46.662C440.192 46.634 440.192 46.6107 440.192 46.592V42.756H438.974V41.776H440.192V39.634H441.382V41.776H442.824ZM449.508 43.876H448.318C448.243 42.9987 447.655 42.56 446.554 42.56C446.097 42.56 445.737 42.6487 445.476 42.826C445.215 43.0033 445.084 43.2413 445.084 43.54C445.084 43.624 445.093 43.708 445.112 43.792C445.131 43.8667 445.163 43.9367 445.21 44.002C445.266 44.058 445.313 44.1093 445.35 44.156C445.397 44.2027 445.467 44.2493 445.56 44.296C445.663 44.3333 445.737 44.366 445.784 44.394C445.84 44.422 445.933 44.4547 446.064 44.492C446.204 44.52 446.302 44.5433 446.358 44.562C446.414 44.5713 446.521 44.5947 446.68 44.632C446.848 44.6693 446.955 44.6927 447.002 44.702C447.347 44.7767 447.604 44.8373 447.772 44.884C447.949 44.9307 448.187 45.0193 448.486 45.15C448.794 45.2713 449.027 45.402 449.186 45.542C449.345 45.6727 449.485 45.8593 449.606 46.102C449.737 46.3353 449.802 46.6013 449.802 46.9C449.802 47.6 449.527 48.1647 448.976 48.594C448.435 49.014 447.711 49.224 446.806 49.224C445.826 49.224 445.07 49.0093 444.538 48.58C444.015 48.1507 443.735 47.53 443.698 46.718H444.874C444.939 47.7353 445.593 48.244 446.834 48.244C447.366 48.244 447.791 48.1367 448.108 47.922C448.435 47.698 448.598 47.404 448.598 47.04C448.598 46.7973 448.514 46.5967 448.346 46.438C448.178 46.2793 447.991 46.1673 447.786 46.102C447.581 46.0273 447.287 45.9433 446.904 45.85C446.848 45.8407 446.806 45.8313 446.778 45.822C446.694 45.8033 446.512 45.766 446.232 45.71C445.961 45.6447 445.765 45.5933 445.644 45.556C445.523 45.5187 445.345 45.4627 445.112 45.388C444.888 45.304 444.72 45.22 444.608 45.136C444.496 45.0427 444.37 44.9307 444.23 44.8C444.099 44.66 444.006 44.5013 443.95 44.324C443.894 44.1373 443.866 43.9273 443.866 43.694C443.866 43.0407 444.113 42.5227 444.608 42.14C445.112 41.7573 445.784 41.566 446.624 41.566C447.473 41.566 448.164 41.7667 448.696 42.168C449.237 42.5693 449.508 43.1387 449.508 43.876Z" fill="#65717C"/>
<path d="M580.758 43.722V49H579.918L579.582 47.754C578.779 48.7433 577.706 49.238 576.362 49.238C574.943 49.238 573.795 48.7667 572.918 47.824C572.05 46.872 571.616 45.6307 571.616 44.1C571.616 42.5787 572.045 41.3187 572.904 40.32C573.772 39.3213 574.957 38.822 576.46 38.822C577.151 38.822 577.795 38.9433 578.392 39.186C578.989 39.4193 579.498 39.7927 579.918 40.306C580.338 40.81 580.576 41.4073 580.632 42.098H579.344C579.241 41.4447 578.924 40.922 578.392 40.53C577.869 40.1287 577.225 39.928 576.46 39.928C575.377 39.928 574.519 40.3013 573.884 41.048C573.249 41.7853 572.932 42.7887 572.932 44.058C572.932 45.3087 573.249 46.3027 573.884 47.04C574.519 47.7773 575.373 48.146 576.446 48.146C577.454 48.146 578.219 47.8427 578.742 47.236C579.274 46.62 579.554 45.808 579.582 44.8H576.39V43.722H580.758ZM588.693 46.718C588.329 48.398 587.279 49.238 585.543 49.238C584.479 49.238 583.644 48.9067 583.037 48.244C582.44 47.5813 582.141 46.662 582.141 45.486C582.141 44.3193 582.449 43.3767 583.065 42.658C583.69 41.93 584.502 41.566 585.501 41.566C586.612 41.566 587.433 41.944 587.965 42.7C588.506 43.4467 588.777 44.394 588.777 45.542V45.71H583.345L583.331 45.794C583.331 46.5593 583.532 47.1613 583.933 47.6C584.334 48.0387 584.885 48.258 585.585 48.258C586.108 48.258 586.518 48.1367 586.817 47.894C587.125 47.6513 587.363 47.2593 587.531 46.718H588.693ZM587.545 44.744C587.489 44.0533 587.279 43.5167 586.915 43.134C586.551 42.742 586.07 42.546 585.473 42.546C584.894 42.546 584.414 42.742 584.031 43.134C583.648 43.526 583.42 44.0627 583.345 44.744H587.545ZM591.159 41.776V42.896C591.756 42.0187 592.577 41.58 593.623 41.58C594.472 41.58 595.083 41.804 595.457 42.252C595.839 42.6907 596.031 43.3393 596.031 44.198V49H594.841V44.744C594.841 44.3893 594.827 44.114 594.799 43.918C594.78 43.7127 594.724 43.498 594.631 43.274C594.537 43.0407 594.379 42.8727 594.155 42.77C593.931 42.6673 593.641 42.616 593.287 42.616C591.915 42.616 591.229 43.484 591.229 45.22V49H590.039V41.776H591.159ZM603.992 46.718C603.628 48.398 602.578 49.238 600.842 49.238C599.778 49.238 598.943 48.9067 598.336 48.244C597.739 47.5813 597.44 46.662 597.44 45.486C597.44 44.3193 597.748 43.3767 598.364 42.658C598.989 41.93 599.801 41.566 600.8 41.566C601.911 41.566 602.732 41.944 603.264 42.7C603.805 43.4467 604.076 44.394 604.076 45.542V45.71H598.644L598.63 45.794C598.63 46.5593 598.831 47.1613 599.232 47.6C599.633 48.0387 600.184 48.258 600.884 48.258C601.407 48.258 601.817 48.1367 602.116 47.894C602.424 47.6513 602.662 47.2593 602.83 46.718H603.992ZM602.844 44.744C602.788 44.0533 602.578 43.5167 602.214 43.134C601.85 42.742 601.369 42.546 600.772 42.546C600.193 42.546 599.713 42.742 599.33 43.134C598.947 43.526 598.719 44.0627 598.644 44.744H602.844ZM609.103 41.608V42.84C609.019 42.8307 608.917 42.826 608.795 42.826C608.413 42.826 608.081 42.8867 607.801 43.008C607.521 43.12 607.297 43.2693 607.129 43.456C606.971 43.6427 606.84 43.876 606.737 44.156C606.635 44.436 606.565 44.716 606.527 44.996C606.499 45.276 606.485 45.5933 606.485 45.948V49H605.295V41.776H606.429V43.33C606.905 42.182 607.797 41.608 609.103 41.608ZM616.398 48.048V48.972C616.155 49.0653 615.884 49.112 615.586 49.112C614.904 49.112 614.554 48.7573 614.536 48.048C613.854 48.8133 612.982 49.196 611.918 49.196C611.208 49.196 610.644 49.014 610.224 48.65C609.813 48.286 609.608 47.7867 609.608 47.152C609.608 45.864 610.462 45.1127 612.17 44.898C612.282 44.8793 612.445 44.8607 612.66 44.842C613.472 44.7487 613.971 44.6413 614.158 44.52C614.372 44.3707 614.48 44.114 614.48 43.75C614.48 42.9567 613.934 42.56 612.842 42.56C612.282 42.56 611.857 42.6767 611.568 42.91C611.278 43.134 611.106 43.5073 611.05 44.03H609.888C609.906 43.2553 610.182 42.6533 610.714 42.224C611.246 41.7947 611.978 41.58 612.912 41.58C613.929 41.58 614.685 41.8133 615.18 42.28C615.338 42.4293 615.455 42.6253 615.53 42.868C615.604 43.1107 615.646 43.3113 615.656 43.47C615.665 43.6193 615.67 43.848 615.67 44.156C615.67 44.5107 615.66 45.0473 615.642 45.766C615.623 46.4847 615.614 47.0213 615.614 47.376C615.614 47.6373 615.646 47.824 615.712 47.936C615.786 48.0387 615.917 48.09 616.104 48.09C616.178 48.09 616.276 48.076 616.398 48.048ZM614.48 45.248C614.396 45.3133 614.307 45.3693 614.214 45.416C614.12 45.4627 613.999 45.5 613.85 45.528C613.71 45.556 613.612 45.5793 613.556 45.598C613.509 45.6073 613.388 45.626 613.192 45.654C612.996 45.6727 612.893 45.682 612.884 45.682C612.594 45.7193 612.403 45.7473 612.31 45.766C612.226 45.7753 612.058 45.8127 611.806 45.878C611.563 45.9433 611.39 46.018 611.288 46.102C611.185 46.186 611.082 46.312 610.98 46.48C610.886 46.6387 610.84 46.83 610.84 47.054C610.84 47.4273 610.966 47.7213 611.218 47.936C611.479 48.1507 611.834 48.258 612.282 48.258C612.851 48.258 613.36 48.09 613.808 47.754C614.256 47.418 614.48 47.0213 614.48 46.564V45.248ZM620.613 41.776V42.756H619.171V46.97C619.171 47.2033 619.171 47.3573 619.171 47.432C619.18 47.5067 619.208 47.6093 619.255 47.74C619.302 47.8613 619.381 47.9407 619.493 47.978C619.605 48.0153 619.764 48.034 619.969 48.034C620.146 48.034 620.361 48.02 620.613 47.992V49.014C620.277 49.0513 619.974 49.07 619.703 49.07C619.367 49.07 619.087 49.0327 618.863 48.958C618.639 48.8833 618.466 48.7993 618.345 48.706C618.233 48.6127 618.149 48.4493 618.093 48.216C618.037 47.9733 618.004 47.7727 617.995 47.614C617.986 47.446 617.981 47.1707 617.981 46.788C617.981 46.76 617.981 46.7413 617.981 46.732C617.981 46.7133 617.981 46.69 617.981 46.662C617.981 46.634 617.981 46.6107 617.981 46.592V42.756H616.763V41.776H617.981V39.634H619.171V41.776H620.613ZM628.109 46.718C627.745 48.398 626.695 49.238 624.959 49.238C623.895 49.238 623.06 48.9067 622.453 48.244C621.856 47.5813 621.557 46.662 621.557 45.486C621.557 44.3193 621.865 43.3767 622.481 42.658C623.106 41.93 623.918 41.566 624.917 41.566C626.028 41.566 626.849 41.944 627.381 42.7C627.922 43.4467 628.193 44.394 628.193 45.542V45.71H622.761L622.747 45.794C622.747 46.5593 622.948 47.1613 623.349 47.6C623.75 48.0387 624.301 48.258 625.001 48.258C625.524 48.258 625.934 48.1367 626.233 47.894C626.541 47.6513 626.779 47.2593 626.947 46.718H628.109ZM626.961 44.744C626.905 44.0533 626.695 43.5167 626.331 43.134C625.967 42.742 625.486 42.546 624.889 42.546C624.31 42.546 623.83 42.742 623.447 43.134C623.064 43.526 622.836 44.0627 622.761 44.744H626.961ZM635.965 39.032V49H634.845V47.936C634.387 48.776 633.594 49.196 632.465 49.196C631.438 49.196 630.621 48.8553 630.015 48.174C629.417 47.4833 629.119 46.55 629.119 45.374C629.119 44.282 629.399 43.3767 629.959 42.658C630.528 41.93 631.345 41.566 632.409 41.566C633.445 41.566 634.233 41.958 634.775 42.742V39.032H635.965ZM632.563 42.588C631.881 42.588 631.34 42.8353 630.939 43.33C630.547 43.8247 630.351 44.4967 630.351 45.346C630.351 46.2233 630.551 46.9233 630.953 47.446C631.363 47.9593 631.909 48.216 632.591 48.216C633.281 48.216 633.823 47.9687 634.215 47.474C634.607 46.97 634.803 46.2747 634.803 45.388C634.803 44.5947 634.616 43.932 634.243 43.4C633.879 42.8587 633.319 42.588 632.563 42.588ZM646.046 39.032L649.938 49H648.468L647.362 45.948H643.176L642.042 49H640.642L644.562 39.032H646.046ZM646.97 44.898L645.276 40.292L643.554 44.898H646.97ZM656.944 46.368C656.841 47.236 656.51 47.9267 655.95 48.44C655.399 48.9533 654.681 49.21 653.794 49.21C652.702 49.21 651.857 48.874 651.26 48.202C650.663 47.5207 650.364 46.6153 650.364 45.486C650.364 44.282 650.677 43.33 651.302 42.63C651.927 41.9207 652.772 41.566 653.836 41.566C654.723 41.566 655.432 41.79 655.964 42.238C656.496 42.6767 656.809 43.3067 656.902 44.128H655.67C655.455 43.0827 654.849 42.56 653.85 42.56C653.159 42.56 652.613 42.8167 652.212 43.33C651.811 43.834 651.61 44.52 651.61 45.388C651.61 46.2653 651.801 46.956 652.184 47.46C652.567 47.964 653.094 48.216 653.766 48.216C654.307 48.216 654.746 48.0573 655.082 47.74C655.427 47.4227 655.647 46.9653 655.74 46.368H656.944ZM664.464 46.368C664.361 47.236 664.03 47.9267 663.47 48.44C662.919 48.9533 662.2 49.21 661.314 49.21C660.222 49.21 659.377 48.874 658.78 48.202C658.182 47.5207 657.884 46.6153 657.884 45.486C657.884 44.282 658.196 43.33 658.822 42.63C659.447 41.9207 660.292 41.566 661.356 41.566C662.242 41.566 662.952 41.79 663.484 42.238C664.016 42.6767 664.328 43.3067 664.422 44.128H663.19C662.975 43.0827 662.368 42.56 661.37 42.56C660.679 42.56 660.133 42.8167 659.732 43.33C659.33 43.834 659.13 44.52 659.13 45.388C659.13 46.2653 659.321 46.956 659.704 47.46C660.086 47.964 660.614 48.216 661.286 48.216C661.827 48.216 662.266 48.0573 662.602 47.74C662.947 47.4227 663.166 46.9653 663.26 46.368H664.464ZM666.341 42.602C666.976 41.9113 667.839 41.566 668.931 41.566C670.023 41.566 670.872 41.8973 671.479 42.56C672.086 43.2227 672.389 44.1513 672.389 45.346C672.389 46.5687 672.086 47.5207 671.479 48.202C670.872 48.8833 670.018 49.224 668.917 49.224C667.816 49.224 666.952 48.888 666.327 48.216C665.702 47.544 665.389 46.6107 665.389 45.416C665.389 44.2307 665.706 43.2927 666.341 42.602ZM670.555 43.33C670.154 42.8167 669.603 42.56 668.903 42.56C668.203 42.56 667.648 42.8167 667.237 43.33C666.826 43.8433 666.621 44.5293 666.621 45.388C666.621 46.2747 666.822 46.97 667.223 47.474C667.634 47.9687 668.203 48.216 668.931 48.216C669.631 48.216 670.177 47.964 670.569 47.46C670.97 46.956 671.171 46.2607 671.171 45.374C671.171 44.5153 670.966 43.834 670.555 43.33ZM679.798 41.776V49H678.692V47.866C678.076 48.7527 677.245 49.196 676.2 49.196C675.435 49.196 674.842 48.986 674.422 48.566C674.002 48.146 673.792 47.5393 673.792 46.746V41.776H674.982V46.424C674.982 46.9933 675.089 47.4273 675.304 47.726C675.528 48.0153 675.925 48.16 676.494 48.16C677.903 48.16 678.608 47.292 678.608 45.556V41.776H679.798ZM682.705 41.776V42.896C683.303 42.0187 684.124 41.58 685.169 41.58C686.019 41.58 686.63 41.804 687.003 42.252C687.386 42.6907 687.577 43.3393 687.577 44.198V49H686.387V44.744C686.387 44.3893 686.373 44.114 686.345 43.918C686.327 43.7127 686.271 43.498 686.177 43.274C686.084 43.0407 685.925 42.8727 685.701 42.77C685.477 42.6673 685.188 42.616 684.833 42.616C683.461 42.616 682.775 43.484 682.775 45.22V49H681.585V41.776H682.705ZM692.459 41.776V42.756H691.017V46.97C691.017 47.2033 691.017 47.3573 691.017 47.432C691.026 47.5067 691.054 47.6093 691.101 47.74C691.147 47.8613 691.227 47.9407 691.339 47.978C691.451 48.0153 691.609 48.034 691.815 48.034C691.992 48.034 692.207 48.02 692.459 47.992V49.014C692.123 49.0513 691.819 49.07 691.549 49.07C691.213 49.07 690.933 49.0327 690.709 48.958C690.485 48.8833 690.312 48.7993 690.191 48.706C690.079 48.6127 689.995 48.4493 689.939 48.216C689.883 47.9733 689.85 47.7727 689.841 47.614C689.831 47.446 689.827 47.1707 689.827 46.788C689.827 46.76 689.827 46.7413 689.827 46.732C689.827 46.7133 689.827 46.69 689.827 46.662C689.827 46.634 689.827 46.6107 689.827 46.592V42.756H688.609V41.776H689.827V39.634H691.017V41.776H692.459ZM699.143 43.876H697.953C697.878 42.9987 697.29 42.56 696.189 42.56C695.731 42.56 695.372 42.6487 695.111 42.826C694.849 43.0033 694.719 43.2413 694.719 43.54C694.719 43.624 694.728 43.708 694.747 43.792C694.765 43.8667 694.798 43.9367 694.845 44.002C694.901 44.058 694.947 44.1093 694.985 44.156C695.031 44.2027 695.101 44.2493 695.195 44.296C695.297 44.3333 695.372 44.366 695.419 44.394C695.475 44.422 695.568 44.4547 695.699 44.492C695.839 44.52 695.937 44.5433 695.993 44.562C696.049 44.5713 696.156 44.5947 696.315 44.632C696.483 44.6693 696.59 44.6927 696.637 44.702C696.982 44.7767 697.239 44.8373 697.407 44.884C697.584 44.9307 697.822 45.0193 698.121 45.15C698.429 45.2713 698.662 45.402 698.821 45.542C698.979 45.6727 699.119 45.8593 699.241 46.102C699.371 46.3353 699.437 46.6013 699.437 46.9C699.437 47.6 699.161 48.1647 698.611 48.594C698.069 49.014 697.346 49.224 696.441 49.224C695.461 49.224 694.705 49.0093 694.173 48.58C693.65 48.1507 693.37 47.53 693.333 46.718H694.509C694.574 47.7353 695.227 48.244 696.469 48.244C697.001 48.244 697.425 48.1367 697.743 47.922C698.069 47.698 698.233 47.404 698.233 47.04C698.233 46.7973 698.149 46.5967 697.981 46.438C697.813 46.2793 697.626 46.1673 697.421 46.102C697.215 46.0273 696.921 45.9433 696.539 45.85C696.483 45.8407 696.441 45.8313 696.413 45.822C696.329 45.8033 696.147 45.766 695.867 45.71C695.596 45.6447 695.4 45.5933 695.279 45.556C695.157 45.5187 694.98 45.4627 694.747 45.388C694.523 45.304 694.355 45.22 694.243 45.136C694.131 45.0427 694.005 44.9307 693.865 44.8C693.734 44.66 693.641 44.5013 693.585 44.324C693.529 44.1373 693.501 43.9273 693.501 43.694C693.501 43.0407 693.748 42.5227 694.243 42.14C694.747 41.7573 695.419 41.566 696.259 41.566C697.108 41.566 697.799 41.7667 698.331 42.168C698.872 42.5693 699.143 43.1387 699.143 43.876Z" fill="#65717C"/>
</svg>
