<svg width="81" height="20" viewBox="0 0 81 20" fill="none" xmlns="http://www.w3.org/2000/svg">
<path d="M1.66669 1.66667H3.11669C4.01669 1.66667 4.72502 2.44167 4.65002 3.33334L3.95835 11.6333C3.84169 12.9917 4.91668 14.1583 6.28335 14.1583H15.1584C16.3584 14.1583 17.4084 13.175 17.5 11.9833L17.95 5.73334C18.05 4.35001 17 3.225 15.6084 3.225H4.85003" stroke="#65717C" stroke-width="1.5" stroke-miterlimit="10" stroke-linecap="round" stroke-linejoin="round"/>
<path d="M13.5417 18.3333C14.117 18.3333 14.5833 17.867 14.5833 17.2917C14.5833 16.7164 14.117 16.25 13.5417 16.25C12.9664 16.25 12.5 16.7164 12.5 17.2917C12.5 17.867 12.9664 18.3333 13.5417 18.3333Z" stroke="#65717C" stroke-width="1.5" stroke-miterlimit="10" stroke-linecap="round" stroke-linejoin="round"/>
<path d="M6.87498 18.3333C7.45028 18.3333 7.91665 17.867 7.91665 17.2917C7.91665 16.7164 7.45028 16.25 6.87498 16.25C6.29968 16.25 5.83331 16.7164 5.83331 17.2917C5.83331 17.867 6.29968 18.3333 6.87498 18.3333Z" stroke="#65717C" stroke-width="1.5" stroke-miterlimit="10" stroke-linecap="round" stroke-linejoin="round"/>
<path d="M7.5 6.66667H17.5" stroke="#65717C" stroke-width="1.5" stroke-miterlimit="10" stroke-linecap="round" stroke-linejoin="round"/>
<path d="M38.064 2.336C39.792 2.336 41.136 2.88 42.096 3.968C43.056 5.04533 43.536 6.45867 43.536 8.208C43.536 9.968 43.0613 11.4187 42.112 12.56C41.1627 13.7013 39.8187 14.272 38.08 14.272C37.1947 14.272 36.4 14.112 35.696 13.792C34.992 13.472 34.416 13.0293 33.968 12.464C33.5307 11.8987 33.1947 11.2533 32.96 10.528C32.736 9.80267 32.624 9.01867 32.624 8.176C32.624 6.39467 33.1147 4.976 34.096 3.92C35.088 2.864 36.4107 2.336 38.064 2.336ZM38.064 3.648C36.7947 3.648 35.8187 4.096 35.136 4.992C34.464 5.87733 34.128 6.976 34.128 8.288C34.128 9.71733 34.4853 10.8587 35.2 11.712C35.9253 12.5547 36.8907 12.976 38.096 12.976C39.2907 12.976 40.2453 12.5493 40.96 11.696C41.6747 10.8427 42.032 9.70667 42.032 8.288C42.032 6.88 41.6693 5.75467 40.944 4.912C40.2293 4.06933 39.2693 3.648 38.064 3.648ZM49.4843 5.552V6.96C49.3883 6.94933 49.2709 6.944 49.1323 6.944C48.6949 6.944 48.3163 7.01333 47.9963 7.152C47.6763 7.28 47.4203 7.45067 47.2283 7.664C47.0469 7.87733 46.8976 8.144 46.7803 8.464C46.6629 8.784 46.5829 9.104 46.5403 9.424C46.5083 9.744 46.4923 10.1067 46.4923 10.512V14H45.1323V5.744H46.4283V7.52C46.9723 6.208 47.9909 5.552 49.4843 5.552ZM57.6671 2.608V14H56.3871V12.784C55.8645 13.744 54.9578 14.224 53.6671 14.224C52.4938 14.224 51.5605 13.8347 50.8671 13.056C50.1845 12.2667 49.8431 11.2 49.8431 9.856C49.8431 8.608 50.1631 7.57333 50.8031 6.752C51.4538 5.92 52.3871 5.504 53.6031 5.504C54.7871 5.504 55.6885 5.952 56.3071 6.848V2.608H57.6671ZM53.7791 6.672C53.0005 6.672 52.3818 6.95467 51.9231 7.52C51.4751 8.08533 51.2511 8.85333 51.2511 9.824C51.2511 10.8267 51.4805 11.6267 51.9391 12.224C52.4085 12.8107 53.0325 13.104 53.8111 13.104C54.6005 13.104 55.2191 12.8213 55.6671 12.256C56.1151 11.68 56.3391 10.8853 56.3391 9.872C56.3391 8.96533 56.1258 8.208 55.6991 7.6C55.2831 6.98133 54.6431 6.672 53.7791 6.672ZM66.7675 11.392C66.3515 13.312 65.1515 14.272 63.1675 14.272C61.9515 14.272 60.9968 13.8933 60.3035 13.136C59.6208 12.3787 59.2795 11.328 59.2795 9.984C59.2795 8.65067 59.6315 7.57333 60.3355 6.752C61.0502 5.92 61.9782 5.504 63.1195 5.504C64.3888 5.504 65.3275 5.936 65.9355 6.8C66.5542 7.65333 66.8635 8.736 66.8635 10.048V10.24H60.6555L60.6395 10.336C60.6395 11.2107 60.8688 11.8987 61.3275 12.4C61.7862 12.9013 62.4155 13.152 63.2155 13.152C63.8128 13.152 64.2822 13.0133 64.6235 12.736C64.9755 12.4587 65.2475 12.0107 65.4395 11.392H66.7675ZM65.4555 9.136C65.3915 8.34667 65.1515 7.73333 64.7355 7.296C64.3195 6.848 63.7702 6.624 63.0875 6.624C62.4262 6.624 61.8768 6.848 61.4395 7.296C61.0022 7.744 60.7408 8.35733 60.6555 9.136H65.4555ZM72.6093 5.552V6.96C72.5133 6.94933 72.3959 6.944 72.2573 6.944C71.8199 6.944 71.4413 7.01333 71.1213 7.152C70.8013 7.28 70.5453 7.45067 70.3533 7.664C70.1719 7.87733 70.0226 8.144 69.9053 8.464C69.7879 8.784 69.7079 9.104 69.6653 9.424C69.6333 9.744 69.6173 10.1067 69.6173 10.512V14H68.2573V5.744H69.5533V7.52C70.0973 6.208 71.1159 5.552 72.6093 5.552ZM79.7614 8.144H78.4014C78.316 7.14133 77.644 6.64 76.3854 6.64C75.8627 6.64 75.452 6.74133 75.1534 6.944C74.8547 7.14667 74.7054 7.41867 74.7054 7.76C74.7054 7.856 74.716 7.952 74.7374 8.048C74.7587 8.13333 74.796 8.21333 74.8494 8.288C74.9134 8.352 74.9667 8.41067 75.0094 8.464C75.0627 8.51733 75.1427 8.57067 75.2494 8.624C75.3667 8.66667 75.452 8.704 75.5054 8.736C75.5694 8.768 75.676 8.80533 75.8254 8.848C75.9854 8.88 76.0974 8.90667 76.1614 8.928C76.2254 8.93867 76.348 8.96533 76.5294 9.008C76.7214 9.05067 76.844 9.07733 76.8974 9.088C77.292 9.17333 77.5854 9.24267 77.7774 9.296C77.98 9.34933 78.252 9.45067 78.5934 9.6C78.9454 9.73867 79.212 9.888 79.3934 10.048C79.5747 10.1973 79.7347 10.4107 79.8734 10.688C80.0227 10.9547 80.0974 11.2587 80.0974 11.6C80.0974 12.4 79.7827 13.0453 79.1534 13.536C78.5347 14.016 77.708 14.256 76.6734 14.256C75.5534 14.256 74.6894 14.0107 74.0814 13.52C73.484 13.0293 73.164 12.32 73.1214 11.392H74.4654C74.54 12.5547 75.2867 13.136 76.7054 13.136C77.3134 13.136 77.7987 13.0133 78.1614 12.768C78.5347 12.512 78.7214 12.176 78.7214 11.76C78.7214 11.4827 78.6254 11.2533 78.4334 11.072C78.2414 10.8907 78.028 10.7627 77.7934 10.688C77.5587 10.6027 77.2227 10.5067 76.7854 10.4C76.7214 10.3893 76.6734 10.3787 76.6414 10.368C76.5454 10.3467 76.3374 10.304 76.0174 10.24C75.708 10.1653 75.484 10.1067 75.3454 10.064C75.2067 10.0213 75.004 9.95733 74.7374 9.872C74.4814 9.776 74.2894 9.68 74.1614 9.584C74.0334 9.47733 73.8894 9.34933 73.7294 9.2C73.58 9.04 73.4734 8.85867 73.4094 8.656C73.3454 8.44267 73.3134 8.20267 73.3134 7.936C73.3134 7.18933 73.596 6.59733 74.1614 6.16C74.7374 5.72267 75.5054 5.504 76.4654 5.504C77.436 5.504 78.2254 5.73333 78.8334 6.192C79.452 6.65067 79.7614 7.30133 79.7614 8.144Z" fill="#65717C"/>
</svg>
