<svg width="97" height="20" viewBox="0 0 97 20" fill="none" xmlns="http://www.w3.org/2000/svg">
<path d="M7.00002 5.41667H13C15.8334 5.41667 16.1167 6.74167 16.3084 8.35834L17.0584 14.6083C17.3 16.6583 16.6667 18.3333 13.75 18.3333H6.25835C3.33335 18.3333 2.70002 16.6583 2.95002 14.6083L3.70003 8.35834C3.88336 6.74167 4.16669 5.41667 7.00002 5.41667Z" stroke="#65717C" stroke-width="1.5" stroke-linecap="round" stroke-linejoin="round"/>
<path d="M6.66669 6.66667V3.75001C6.66669 2.50001 7.50002 1.66667 8.75002 1.66667H11.25C12.5 1.66667 13.3334 2.50001 13.3334 3.75001V6.66667" stroke="#65717C" stroke-width="1.5" stroke-linecap="round" stroke-linejoin="round"/>
<path d="M17.0084 14.1917H6.66669" stroke="#65717C" stroke-width="1.5" stroke-linecap="round" stroke-linejoin="round"/>
<path d="M33.328 2.608H38.016C39.1787 2.608 40.1013 2.87467 40.784 3.408C41.4667 3.93067 41.808 4.75733 41.808 5.888C41.808 8.18133 40.512 9.328 37.92 9.328H34.832V14H33.328V2.608ZM34.832 3.904V8.064H37.728C38.5387 8.064 39.168 7.91467 39.616 7.616C40.0747 7.30667 40.304 6.76267 40.304 5.984C40.304 5.54667 40.2293 5.184 40.08 4.896C39.9413 4.608 39.7333 4.39467 39.456 4.256C39.1787 4.11733 38.8907 4.02667 38.592 3.984C38.2933 3.93067 37.936 3.904 37.52 3.904H34.832ZM47.703 5.552V6.96C47.607 6.94933 47.4897 6.944 47.351 6.944C46.9137 6.944 46.535 7.01333 46.215 7.152C45.895 7.28 45.639 7.45067 45.447 7.664C45.2657 7.87733 45.1163 8.144 44.999 8.464C44.8817 8.784 44.8017 9.104 44.759 9.424C44.727 9.744 44.711 10.1067 44.711 10.512V14H43.351V5.744H44.647V7.52C45.191 6.208 46.2097 5.552 47.703 5.552ZM49.1019 6.688C49.8272 5.89867 50.8139 5.504 52.0619 5.504C53.3099 5.504 54.2805 5.88267 54.9739 6.64C55.6672 7.39733 56.0139 8.45867 56.0139 9.824C56.0139 11.2213 55.6672 12.3093 54.9739 13.088C54.2805 13.8667 53.3045 14.256 52.0459 14.256C50.7872 14.256 49.8005 13.872 49.0859 13.104C48.3712 12.336 48.0139 11.2693 48.0139 9.904C48.0139 8.54933 48.3765 7.47733 49.1019 6.688ZM53.9179 7.52C53.4592 6.93333 52.8299 6.64 52.0299 6.64C51.2299 6.64 50.5952 6.93333 50.1259 7.52C49.6565 8.10667 49.4219 8.89067 49.4219 9.872C49.4219 10.8853 49.6512 11.68 50.1099 12.256C50.5792 12.8213 51.2299 13.104 52.0619 13.104C52.8619 13.104 53.4859 12.816 53.9339 12.24C54.3925 11.664 54.6219 10.8693 54.6219 9.856C54.6219 8.87467 54.3872 8.096 53.9179 7.52ZM65.0734 2.608V14H63.7934V12.784C63.2707 13.744 62.364 14.224 61.0734 14.224C59.9 14.224 58.9667 13.8347 58.2734 13.056C57.5907 12.2667 57.2494 11.2 57.2494 9.856C57.2494 8.608 57.5694 7.57333 58.2094 6.752C58.86 5.92 59.7934 5.504 61.0094 5.504C62.1934 5.504 63.0947 5.952 63.7134 6.848V2.608H65.0734ZM61.1854 6.672C60.4067 6.672 59.788 6.95467 59.3294 7.52C58.8814 8.08533 58.6574 8.85333 58.6574 9.824C58.6574 10.8267 58.8867 11.6267 59.3454 12.224C59.8147 12.8107 60.4387 13.104 61.2174 13.104C62.0067 13.104 62.6254 12.8213 63.0734 12.256C63.5214 11.68 63.7454 10.8853 63.7454 9.872C63.7454 8.96533 63.532 8.208 63.1054 7.6C62.6894 6.98133 62.0494 6.672 61.1854 6.672ZM73.9658 5.744V14H72.7018V12.704C71.9978 13.7173 71.0484 14.224 69.8538 14.224C68.9791 14.224 68.3018 13.984 67.8218 13.504C67.3418 13.024 67.1018 12.3307 67.1018 11.424V5.744H68.4618V11.056C68.4618 11.7067 68.5844 12.2027 68.8298 12.544C69.0858 12.8747 69.5391 13.04 70.1898 13.04C71.8004 13.04 72.6058 12.048 72.6058 10.064V5.744H73.9658ZM83.1124 10.992C82.995 11.984 82.6164 12.7733 81.9764 13.36C81.347 13.9467 80.5257 14.24 79.5124 14.24C78.2644 14.24 77.299 13.856 76.6164 13.088C75.9337 12.3093 75.5924 11.2747 75.5924 9.984C75.5924 8.608 75.9497 7.52 76.6644 6.72C77.379 5.90933 78.3444 5.504 79.5604 5.504C80.5737 5.504 81.3844 5.76 81.9924 6.272C82.6004 6.77333 82.9577 7.49333 83.0644 8.432H81.6564C81.411 7.23733 80.7177 6.64 79.5764 6.64C78.787 6.64 78.163 6.93333 77.7044 7.52C77.2457 8.096 77.0164 8.88 77.0164 9.872C77.0164 10.8747 77.235 11.664 77.6724 12.24C78.1097 12.816 78.7124 13.104 79.4804 13.104C80.099 13.104 80.6004 12.9227 80.9844 12.56C81.379 12.1973 81.6297 11.6747 81.7364 10.992H83.1124ZM88.1381 5.744V6.864H86.4901V11.68C86.4901 11.9467 86.4901 12.1227 86.4901 12.208C86.5008 12.2933 86.5328 12.4107 86.5861 12.56C86.6395 12.6987 86.7301 12.7893 86.8581 12.832C86.9861 12.8747 87.1675 12.896 87.4021 12.896C87.6048 12.896 87.8501 12.88 88.1381 12.848V14.016C87.7541 14.0587 87.4075 14.08 87.0981 14.08C86.7141 14.08 86.3941 14.0373 86.1381 13.952C85.8821 13.8667 85.6848 13.7707 85.5461 13.664C85.4181 13.5573 85.3221 13.3707 85.2581 13.104C85.1941 12.8267 85.1568 12.5973 85.1461 12.416C85.1355 12.224 85.1301 11.9093 85.1301 11.472C85.1301 11.44 85.1301 11.4187 85.1301 11.408C85.1301 11.3867 85.1301 11.36 85.1301 11.328C85.1301 11.296 85.1301 11.2693 85.1301 11.248V6.864H83.7381V5.744H85.1301V3.296H86.4901V5.744H88.1381ZM95.777 8.144H94.417C94.3317 7.14133 93.6597 6.64 92.401 6.64C91.8783 6.64 91.4677 6.74133 91.169 6.944C90.8703 7.14667 90.721 7.41867 90.721 7.76C90.721 7.856 90.7317 7.952 90.753 8.048C90.7743 8.13333 90.8117 8.21333 90.865 8.288C90.929 8.352 90.9823 8.41067 91.025 8.464C91.0783 8.51733 91.1583 8.57067 91.265 8.624C91.3823 8.66667 91.4677 8.704 91.521 8.736C91.585 8.768 91.6917 8.80533 91.841 8.848C92.001 8.88 92.113 8.90667 92.177 8.928C92.241 8.93867 92.3637 8.96533 92.545 9.008C92.737 9.05067 92.8597 9.07733 92.913 9.088C93.3077 9.17333 93.601 9.24267 93.793 9.296C93.9957 9.34933 94.2677 9.45067 94.609 9.6C94.961 9.73867 95.2277 9.888 95.409 10.048C95.5903 10.1973 95.7503 10.4107 95.889 10.688C96.0383 10.9547 96.113 11.2587 96.113 11.6C96.113 12.4 95.7983 13.0453 95.169 13.536C94.5503 14.016 93.7237 14.256 92.689 14.256C91.569 14.256 90.705 14.0107 90.097 13.52C89.4997 13.0293 89.1797 12.32 89.137 11.392H90.481C90.5557 12.5547 91.3023 13.136 92.721 13.136C93.329 13.136 93.8143 13.0133 94.177 12.768C94.5503 12.512 94.737 12.176 94.737 11.76C94.737 11.4827 94.641 11.2533 94.449 11.072C94.257 10.8907 94.0437 10.7627 93.809 10.688C93.5743 10.6027 93.2383 10.5067 92.801 10.4C92.737 10.3893 92.689 10.3787 92.657 10.368C92.561 10.3467 92.353 10.304 92.033 10.24C91.7237 10.1653 91.4997 10.1067 91.361 10.064C91.2223 10.0213 91.0197 9.95733 90.753 9.872C90.497 9.776 90.305 9.68 90.177 9.584C90.049 9.47733 89.905 9.34933 89.745 9.2C89.5957 9.04 89.489 8.85867 89.425 8.656C89.361 8.44267 89.329 8.20267 89.329 7.936C89.329 7.18933 89.6117 6.59733 90.177 6.16C90.753 5.72267 91.521 5.504 92.481 5.504C93.4517 5.504 94.241 5.73333 94.849 6.192C95.4677 6.65067 95.777 7.30133 95.777 8.144Z" fill="#65717C"/>
</svg>
