<svg width="99" height="20" viewBox="0 0 99 20" fill="none" xmlns="http://www.w3.org/2000/svg">
<path d="M5.00002 3.33332C6.39169 2.29166 8.12502 1.66666 10 1.66666C14.6 1.66666 18.3334 5.39999 18.3334 9.99999C18.3334 14.6 14.6 18.3333 10 18.3333C5.40002 18.3333 1.66669 14.6 1.66669 9.99999C1.66669 8.49166 2.06668 7.07498 2.77501 5.84998L10 9.99999" stroke="#65717C" stroke-width="1.5" stroke-miterlimit="10" stroke-linecap="round" stroke-linejoin="round"/>
<path d="M5.69166 7.46666C5.24999 8.20833 5 9.075 5 10C5 12.7583 7.24167 15 10 15C12.7583 15 15 12.7583 15 10C15 7.24167 12.7583 5 10 5C9.24167 5 8.51668 5.16667 7.87501 5.47501" stroke="#65717C" stroke-width="1.5" stroke-miterlimit="10" stroke-linecap="round" stroke-linejoin="round"/>
<path d="M32.224 2.608H33.776L36.032 12.128L38.608 2.608H40.256L42.8 12.128L45.136 2.608H46.64L43.6 14H42.016L39.392 4.464L36.736 14H35.152L32.224 2.608ZM53.9862 11.392C53.5703 13.312 52.3703 14.272 50.3863 14.272C49.1703 14.272 48.2156 13.8933 47.5223 13.136C46.8396 12.3787 46.4983 11.328 46.4983 9.984C46.4983 8.65067 46.8503 7.57333 47.5543 6.752C48.2689 5.92 49.1969 5.504 50.3383 5.504C51.6076 5.504 52.5463 5.936 53.1543 6.8C53.7729 7.65333 54.0823 8.736 54.0823 10.048V10.24H47.8743L47.8583 10.336C47.8583 11.2107 48.0876 11.8987 48.5463 12.4C49.0049 12.9013 49.6343 13.152 50.4343 13.152C51.0316 13.152 51.5009 13.0133 51.8423 12.736C52.1943 12.4587 52.4663 12.0107 52.6583 11.392H53.9862ZM52.6743 9.136C52.6103 8.34667 52.3703 7.73333 51.9543 7.296C51.5383 6.848 50.9889 6.624 50.3063 6.624C49.6449 6.624 49.0956 6.848 48.6583 7.296C48.2209 7.744 47.9596 8.35733 47.8743 9.136H52.6743ZM56.964 2.608V14H55.588V2.608H56.964ZM66.1749 10.992C66.0575 11.984 65.6789 12.7733 65.0389 13.36C64.4095 13.9467 63.5882 14.24 62.5749 14.24C61.3269 14.24 60.3615 13.856 59.6789 13.088C58.9962 12.3093 58.6549 11.2747 58.6549 9.984C58.6549 8.608 59.0122 7.52 59.7269 6.72C60.4415 5.90933 61.4069 5.504 62.6229 5.504C63.6362 5.504 64.4469 5.76 65.0549 6.272C65.6629 6.77333 66.0202 7.49333 66.1269 8.432H64.7189C64.4735 7.23733 63.7802 6.64 62.6389 6.64C61.8495 6.64 61.2255 6.93333 60.7669 7.52C60.3082 8.096 60.0789 8.88 60.0789 9.872C60.0789 10.8747 60.2975 11.664 60.7349 12.24C61.1722 12.816 61.7749 13.104 62.5429 13.104C63.1615 13.104 63.6629 12.9227 64.0469 12.56C64.4415 12.1973 64.6922 11.6747 64.7989 10.992H66.1749ZM68.3206 6.688C69.046 5.89867 70.0326 5.504 71.2806 5.504C72.5286 5.504 73.4993 5.88267 74.1926 6.64C74.886 7.39733 75.2326 8.45867 75.2326 9.824C75.2326 11.2213 74.886 12.3093 74.1926 13.088C73.4993 13.8667 72.5233 14.256 71.2646 14.256C70.006 14.256 69.0193 13.872 68.3046 13.104C67.59 12.336 67.2326 11.2693 67.2326 9.904C67.2326 8.54933 67.5953 7.47733 68.3206 6.688ZM73.1366 7.52C72.678 6.93333 72.0486 6.64 71.2486 6.64C70.4486 6.64 69.814 6.93333 69.3446 7.52C68.8753 8.10667 68.6406 8.89067 68.6406 9.872C68.6406 10.8853 68.87 11.68 69.3286 12.256C69.798 12.8213 70.4486 13.104 71.2806 13.104C72.0806 13.104 72.7046 12.816 73.1526 12.24C73.6113 11.664 73.8406 10.8693 73.8406 9.856C73.8406 8.87467 73.606 8.096 73.1366 7.52ZM78.1321 5.744V6.944C78.4948 6.45333 78.8841 6.096 79.3001 5.872C79.7161 5.648 80.2228 5.536 80.8201 5.536C81.9508 5.536 82.7135 6.01067 83.1081 6.96C83.8228 6 84.7348 5.52 85.8441 5.52C86.6975 5.52 87.3428 5.76 87.7801 6.24C88.2281 6.70933 88.4521 7.37067 88.4521 8.224V14H87.0921V8.8C87.0921 8.11733 86.9855 7.60533 86.7721 7.264C86.5588 6.912 86.1161 6.736 85.4441 6.736C84.0361 6.736 83.3321 7.59467 83.3321 9.312V14H81.9721V8.704C81.9721 8.07467 81.8655 7.59467 81.6521 7.264C81.4495 6.92267 81.0495 6.752 80.4521 6.752C79.6095 6.752 79.0228 7.01333 78.6921 7.536C78.3721 8.048 78.2121 8.74667 78.2121 9.632V14H76.8521V5.744H78.1321ZM97.5487 11.392C97.1328 13.312 95.9328 14.272 93.9488 14.272C92.7328 14.272 91.7781 13.8933 91.0848 13.136C90.4021 12.3787 90.0608 11.328 90.0608 9.984C90.0608 8.65067 90.4128 7.57333 91.1168 6.752C91.8314 5.92 92.7594 5.504 93.9008 5.504C95.1701 5.504 96.1088 5.936 96.7168 6.8C97.3354 7.65333 97.6448 8.736 97.6448 10.048V10.24H91.4368L91.4208 10.336C91.4208 11.2107 91.6501 11.8987 92.1088 12.4C92.5674 12.9013 93.1968 13.152 93.9968 13.152C94.5941 13.152 95.0634 13.0133 95.4048 12.736C95.7568 12.4587 96.0288 12.0107 96.2208 11.392H97.5487ZM96.2368 9.136C96.1728 8.34667 95.9328 7.73333 95.5168 7.296C95.1008 6.848 94.5514 6.624 93.8688 6.624C93.2074 6.624 92.6581 6.848 92.2208 7.296C91.7834 7.744 91.5221 8.35733 91.4368 9.136H96.2368Z" fill="#65717C"/>
</svg>
