<svg width="113" height="25" viewBox="0 0 113 25" fill="none" xmlns="http://www.w3.org/2000/svg">
<rect width="113" height="25" rx="4" fill="#F2EBFF"/>
<path d="M21.3333 9.63332V16.3667C21.2267 16.3467 21.1133 16.3333 21 16.3333C20.08 16.3333 19.3333 17.08 19.3333 18C19.3333 18.1133 19.3467 18.2267 19.3667 18.3333H12.6333C12.6533 18.2267 12.6667 18.1133 12.6667 18C12.6667 17.08 11.92 16.3333 11 16.3333C10.8867 16.3333 10.7733 16.3467 10.6667 16.3667V9.63332C10.7733 9.65332 10.8867 9.66666 11 9.66666C11.92 9.66666 12.6667 8.91999 12.6667 7.99999C12.6667 7.88666 12.6533 7.77332 12.6333 7.66666H19.3667C19.3467 7.77332 19.3333 7.88666 19.3333 7.99999C19.3333 8.91999 20.08 9.66666 21 9.66666C21.1133 9.66666 21.2267 9.65332 21.3333 9.63332Z" stroke="#B01AF7" stroke-width="1.5" stroke-linecap="round" stroke-linejoin="round"/>
<path d="M12.6667 8.00001C12.6667 8.92001 11.92 9.66668 11 9.66668C10.8867 9.66668 10.7733 9.65334 10.6667 9.63334C9.90667 9.48001 9.33334 8.80668 9.33334 8.00001C9.33334 7.08001 10.08 6.33334 11 6.33334C11.8067 6.33334 12.48 6.90668 12.6333 7.66668C12.6533 7.77334 12.6667 7.88668 12.6667 8.00001Z" stroke="#B01AF7" stroke-width="1.5" stroke-linecap="round" stroke-linejoin="round"/>
<path d="M22.6667 8.00001C22.6667 8.80668 22.0933 9.48001 21.3333 9.63334C21.2267 9.65334 21.1133 9.66668 21 9.66668C20.08 9.66668 19.3333 8.92001 19.3333 8.00001C19.3333 7.88668 19.3467 7.77334 19.3667 7.66668C19.52 6.90668 20.1933 6.33334 21 6.33334C21.92 6.33334 22.6667 7.08001 22.6667 8.00001Z" stroke="#B01AF7" stroke-width="1.5" stroke-linecap="round" stroke-linejoin="round"/>
<path d="M12.6667 18C12.6667 18.1133 12.6533 18.2267 12.6333 18.3333C12.48 19.0933 11.8067 19.6667 11 19.6667C10.08 19.6667 9.33334 18.92 9.33334 18C9.33334 17.1933 9.90667 16.52 10.6667 16.3667C10.7733 16.3467 10.8867 16.3333 11 16.3333C11.92 16.3333 12.6667 17.08 12.6667 18Z" stroke="#B01AF7" stroke-width="1.5" stroke-linecap="round" stroke-linejoin="round"/>
<path d="M22.6667 18C22.6667 18.92 21.92 19.6667 21 19.6667C20.1933 19.6667 19.52 19.0933 19.3667 18.3333C19.3467 18.2267 19.3333 18.1133 19.3333 18C19.3333 17.08 20.08 16.3333 21 16.3333C21.1133 16.3333 21.2267 16.3467 21.3333 16.3667C22.0933 16.52 22.6667 17.1933 22.6667 18Z" stroke="#B01AF7" stroke-width="1.5" stroke-linecap="round" stroke-linejoin="round"/>
<path d="M30.9 7.456H34.152C34.744 7.456 35.264 7.52 35.712 7.648C36.16 7.768 36.572 7.996 36.948 8.332C37.788 9.084 38.208 10.168 38.208 11.584C38.208 13.096 37.808 14.252 37.008 15.052C36.656 15.404 36.272 15.652 35.856 15.796C35.448 15.932 34.908 16 34.236 16H30.9V7.456ZM32.388 8.728V14.74H34.152C35.088 14.74 35.748 14.468 36.132 13.924C36.516 13.38 36.708 12.624 36.708 11.656C36.708 10.736 36.492 10.02 36.06 9.508C35.628 8.988 34.96 8.728 34.056 8.728H32.388ZM42.3082 9.628C43.2522 9.628 44.0042 9.924 44.5642 10.516C45.1242 11.108 45.4042 11.904 45.4042 12.904C45.4042 13.912 45.1242 14.712 44.5642 15.304C44.0122 15.896 43.2602 16.192 42.3082 16.192C41.3402 16.192 40.5722 15.896 40.0042 15.304C39.4362 14.712 39.1522 13.912 39.1522 12.904C39.1522 11.904 39.4362 11.108 40.0042 10.516C40.5802 9.924 41.3482 9.628 42.3082 9.628ZM43.5562 11.296C43.2522 10.904 42.8282 10.708 42.2842 10.708C41.7402 10.708 41.3122 10.904 41.0002 11.296C40.6882 11.688 40.5322 12.224 40.5322 12.904C40.5322 13.6 40.6882 14.144 41.0002 14.536C41.3122 14.928 41.7442 15.124 42.2962 15.124C42.8322 15.124 43.2522 14.928 43.5562 14.536C43.8682 14.136 44.0242 13.588 44.0242 12.892C44.0242 12.212 43.8682 11.68 43.5562 11.296ZM52.4814 7.456V16H51.1974V15.148C50.8054 15.828 50.1454 16.168 49.2174 16.168C48.3454 16.168 47.6494 15.872 47.1294 15.28C46.6174 14.688 46.3614 13.892 46.3614 12.892C46.3614 11.9 46.6134 11.112 47.1174 10.528C47.6294 9.936 48.3134 9.64 49.1694 9.64C50.0414 9.64 50.6974 9.964 51.1374 10.612V7.456H52.4814ZM49.4214 10.744C48.9014 10.744 48.4894 10.936 48.1854 11.32C47.8894 11.696 47.7414 12.212 47.7414 12.868C47.7414 13.548 47.8934 14.084 48.1974 14.476C48.5094 14.868 48.9334 15.064 49.4694 15.064C50.0054 15.064 50.4214 14.872 50.7174 14.488C51.0214 14.104 51.1734 13.572 51.1734 12.892C51.1734 12.212 51.0174 11.684 50.7054 11.308C50.4014 10.932 49.9734 10.744 49.4214 10.744ZM56.8774 9.628C57.8214 9.628 58.5734 9.924 59.1334 10.516C59.6934 11.108 59.9734 11.904 59.9734 12.904C59.9734 13.912 59.6934 14.712 59.1334 15.304C58.5814 15.896 57.8294 16.192 56.8774 16.192C55.9094 16.192 55.1414 15.896 54.5734 15.304C54.0054 14.712 53.7214 13.912 53.7214 12.904C53.7214 11.904 54.0054 11.108 54.5734 10.516C55.1494 9.924 55.9174 9.628 56.8774 9.628ZM58.1254 11.296C57.8214 10.904 57.3974 10.708 56.8534 10.708C56.3094 10.708 55.8814 10.904 55.5694 11.296C55.2574 11.688 55.1014 12.224 55.1014 12.904C55.1014 13.6 55.2574 14.144 55.5694 14.536C55.8814 14.928 56.3134 15.124 56.8654 15.124C57.4014 15.124 57.8214 14.928 58.1254 14.536C58.4374 14.136 58.5934 13.588 58.5934 12.892C58.5934 12.212 58.4374 11.68 58.1254 11.296ZM67.9545 12.064V13.336H64.4385V12.064H67.9545ZM76.7864 7.444L80.0864 16H78.4784L77.6624 13.732H74.2784L73.4384 16H71.8904L75.1904 7.444H76.7864ZM77.2664 12.604L75.9944 9.004L74.6624 12.604H77.2664ZM82.1383 7.456V10.612C82.5943 9.972 83.2703 9.652 84.1663 9.652C84.9903 9.652 85.6503 9.944 86.1463 10.528C86.6503 11.112 86.9023 11.888 86.9023 12.856C86.9023 13.856 86.6463 14.66 86.1343 15.268C85.6223 15.868 84.9423 16.168 84.0943 16.168C83.1583 16.168 82.4823 15.832 82.0663 15.16V16H80.7823V7.456H82.1383ZM83.8183 10.744C83.2823 10.736 82.8583 10.928 82.5463 11.32C82.2423 11.704 82.0903 12.236 82.0903 12.916C82.0903 13.58 82.2423 14.104 82.5463 14.488C82.8583 14.872 83.2823 15.064 83.8183 15.064C84.3303 15.064 84.7423 14.868 85.0543 14.476C85.3663 14.076 85.5223 13.544 85.5223 12.88C85.5223 12.224 85.3663 11.704 85.0543 11.32C84.7503 10.936 84.3383 10.744 83.8183 10.744ZM93.6023 9.808V16H92.3183V15.076C91.7983 15.804 91.1183 16.168 90.2783 16.168C89.5983 16.168 89.0743 15.976 88.7063 15.592C88.3463 15.2 88.1663 14.64 88.1663 13.912V9.808H89.5343V13.348C89.5343 13.564 89.5383 13.74 89.5463 13.876C89.5543 14.004 89.5783 14.152 89.6183 14.32C89.6663 14.48 89.7303 14.604 89.8103 14.692C89.8983 14.78 90.0183 14.856 90.1703 14.92C90.3303 14.984 90.5223 15.016 90.7463 15.016C91.2583 15.016 91.6343 14.836 91.8743 14.476C92.1143 14.108 92.2343 13.644 92.2343 13.084V9.808H93.6023ZM96.5689 9.808V16.324C96.5689 17.052 96.4329 17.576 96.1609 17.896C95.8969 18.216 95.4249 18.376 94.7449 18.376C94.6249 18.376 94.4329 18.364 94.1689 18.34V17.224C94.3769 17.24 94.4849 17.248 94.4929 17.248C94.7489 17.248 94.9289 17.212 95.0329 17.14C95.1449 17.068 95.2009 16.916 95.2009 16.684V9.808H96.5689ZM96.5689 7.408V8.764H95.2009V7.408H96.5689ZM98.0114 11.716C98.1554 10.316 99.0594 9.616 100.723 9.616C101.499 9.616 102.115 9.768 102.571 10.072C103.035 10.376 103.267 10.848 103.267 11.488V14.632C103.267 14.808 103.287 14.928 103.327 14.992C103.375 15.056 103.463 15.088 103.591 15.088C103.687 15.088 103.791 15.08 103.903 15.064V16.024C103.551 16.112 103.255 16.156 103.015 16.156C102.431 16.156 102.095 15.908 102.007 15.412C101.487 15.908 100.763 16.156 99.8354 16.156C99.1954 16.156 98.6874 15.992 98.3114 15.664C97.9354 15.328 97.7474 14.876 97.7474 14.308C97.7474 14.132 97.7674 13.968 97.8074 13.816C97.8474 13.664 97.8914 13.532 97.9394 13.42C97.9954 13.308 98.0794 13.204 98.1914 13.108C98.3114 13.012 98.4074 12.932 98.4794 12.868C98.5594 12.804 98.6834 12.744 98.8514 12.688C99.0274 12.632 99.1554 12.592 99.2354 12.568C99.3234 12.536 99.4714 12.504 99.6794 12.472C99.8874 12.44 100.023 12.42 100.087 12.412C100.159 12.396 100.303 12.376 100.519 12.352C101.007 12.288 101.339 12.236 101.515 12.196C101.691 12.148 101.811 12.08 101.875 11.992C101.931 11.928 101.959 11.78 101.959 11.548C101.959 10.924 101.535 10.612 100.687 10.612C100.239 10.612 99.9114 10.696 99.7034 10.864C99.4954 11.032 99.3634 11.316 99.3074 11.716H98.0114ZM101.947 12.892C101.843 12.948 101.723 13 101.587 13.048C101.451 13.088 101.339 13.116 101.251 13.132C101.171 13.14 101.039 13.156 100.855 13.18C100.679 13.204 100.563 13.22 100.507 13.228C100.339 13.252 100.207 13.276 100.111 13.3C100.015 13.316 99.8954 13.348 99.7514 13.396C99.6154 13.444 99.5074 13.504 99.4274 13.576C99.3554 13.64 99.2914 13.732 99.2354 13.852C99.1794 13.964 99.1514 14.1 99.1514 14.26C99.1514 14.556 99.2474 14.784 99.4394 14.944C99.6394 15.104 99.9154 15.184 100.267 15.184C100.875 15.184 101.343 15.02 101.671 14.692C101.855 14.508 101.947 14.152 101.947 13.624V12.892Z" fill="#B01AF7"/>
</svg>
