<svg width="206" height="42" viewBox="0 0 206 42" fill="none" xmlns="http://www.w3.org/2000/svg">
<rect x="0.5" y="0.5" width="205" height="41" rx="7.5" fill="white"/>
<path d="M27.6219 18.904V25H26.3419L26.0379 23.64C25.1312 24.728 23.9472 25.272 22.4859 25.272C20.8859 25.272 19.5845 24.728 18.5819 23.64C17.5899 22.552 17.0939 21.1333 17.0939 19.384C17.0939 17.6667 17.5952 16.2373 18.5979 15.096C19.6005 13.944 20.9552 13.368 22.6619 13.368C23.8992 13.368 24.9765 13.7147 25.8939 14.408C26.8219 15.1013 27.3499 16.0453 27.4779 17.24H25.5419C25.4245 16.5573 25.1045 16.024 24.5819 15.64C24.0699 15.2453 23.4245 15.048 22.6459 15.048C21.5472 15.048 20.6832 15.432 20.0539 16.2C19.4245 16.968 19.1099 18.0187 19.1099 19.352C19.1099 20.696 19.4245 21.752 20.0539 22.52C20.6939 23.2773 21.5792 23.656 22.7099 23.656C23.7019 23.656 24.4645 23.3467 24.9979 22.728C25.5419 22.1093 25.8139 21.3467 25.8139 20.44H22.7419V18.904H27.6219ZM33.3465 16.504C34.6052 16.504 35.6078 16.8987 36.3545 17.688C37.1012 18.4773 37.4745 19.5387 37.4745 20.872C37.4745 22.216 37.1012 23.2827 36.3545 24.072C35.6185 24.8613 34.6158 25.256 33.3465 25.256C32.0558 25.256 31.0318 24.8613 30.2745 24.072C29.5172 23.2827 29.1385 22.216 29.1385 20.872C29.1385 19.5387 29.5172 18.4773 30.2745 17.688C31.0425 16.8987 32.0665 16.504 33.3465 16.504ZM35.0105 18.728C34.6052 18.2053 34.0398 17.944 33.3145 17.944C32.5892 17.944 32.0185 18.2053 31.6025 18.728C31.1865 19.2507 30.9785 19.9653 30.9785 20.872C30.9785 21.8 31.1865 22.5253 31.6025 23.048C32.0185 23.5707 32.5945 23.832 33.3305 23.832C34.0452 23.832 34.6052 23.5707 35.0105 23.048C35.4265 22.5147 35.6345 21.784 35.6345 20.856C35.6345 19.9493 35.4265 19.24 35.0105 18.728ZM47.492 16.744V18.072H45.828V22.424C45.828 22.68 45.8333 22.8613 45.844 22.968C45.8547 23.064 45.8867 23.176 45.94 23.304C45.9933 23.4213 46.084 23.5013 46.212 23.544C46.3507 23.5867 46.5373 23.608 46.772 23.608C47.0707 23.608 47.3107 23.5973 47.492 23.576V25.016C47.1293 25.0587 46.7187 25.08 46.26 25.08C45.94 25.08 45.6573 25.0533 45.412 25C45.1773 24.9573 44.98 24.904 44.82 24.84C44.66 24.776 44.5267 24.6693 44.42 24.52C44.3133 24.36 44.228 24.232 44.164 24.136C44.1107 24.0293 44.068 23.848 44.036 23.592C44.0147 23.336 44.004 23.144 44.004 23.016C44.004 22.8773 44.004 22.6427 44.004 22.312C44.004 22.2693 44.004 22.2373 44.004 22.216C44.004 22.184 44.004 22.152 44.004 22.12C44.004 22.0773 44.004 22.04 44.004 22.008V18.072H42.628V16.744H44.004V14.264H45.828V16.744H47.492ZM52.6121 16.504C53.8708 16.504 54.8735 16.8987 55.6201 17.688C56.3668 18.4773 56.7401 19.5387 56.7401 20.872C56.7401 22.216 56.3668 23.2827 55.6201 24.072C54.8841 24.8613 53.8815 25.256 52.6121 25.256C51.3215 25.256 50.2975 24.8613 49.5401 24.072C48.7828 23.2827 48.4041 22.216 48.4041 20.872C48.4041 19.5387 48.7828 18.4773 49.5401 17.688C50.3081 16.8987 51.3321 16.504 52.6121 16.504ZM54.2761 18.728C53.8708 18.2053 53.3055 17.944 52.5801 17.944C51.8548 17.944 51.2841 18.2053 50.8681 18.728C50.4521 19.2507 50.2441 19.9653 50.2441 20.872C50.2441 21.8 50.4521 22.5253 50.8681 23.048C51.2841 23.5707 51.8601 23.832 52.5961 23.832C53.3108 23.832 53.8708 23.5707 54.2761 23.048C54.6921 22.5147 54.9001 21.784 54.9001 20.856C54.9001 19.9493 54.6921 19.24 54.2761 18.728ZM68.1656 13.592L72.5656 25H70.4216L69.3336 21.976H64.8216L63.7016 25H61.6376L66.0376 13.592H68.1656ZM68.8056 20.472L67.1096 15.672L65.3336 20.472H68.8056ZM80.8855 21.88C80.7575 22.8933 80.3522 23.704 79.6695 24.312C78.9868 24.9093 78.1282 25.208 77.0935 25.208C75.8562 25.208 74.8695 24.8187 74.1335 24.04C73.3975 23.2507 73.0295 22.2213 73.0295 20.952C73.0295 19.5867 73.3975 18.504 74.1335 17.704C74.8802 16.8933 75.8828 16.488 77.1415 16.488C78.1975 16.488 79.0455 16.7547 79.6855 17.288C80.3362 17.8213 80.7148 18.5627 80.8215 19.512H79.0135C78.9068 18.9893 78.6935 18.5893 78.3735 18.312C78.0535 18.0347 77.6482 17.896 77.1575 17.896C76.4535 17.896 75.8988 18.1627 75.4935 18.696C75.0882 19.2187 74.8855 19.9387 74.8855 20.856C74.8855 21.7733 75.0775 22.488 75.4615 23C75.8562 23.512 76.4002 23.768 77.0935 23.768C77.6375 23.768 78.0802 23.608 78.4215 23.288C78.7735 22.9573 78.9975 22.488 79.0935 21.88H80.8855ZM89.7761 21.88C89.6481 22.8933 89.2428 23.704 88.5601 24.312C87.8775 24.9093 87.0188 25.208 85.9841 25.208C84.7468 25.208 83.7601 24.8187 83.0241 24.04C82.2881 23.2507 81.9201 22.2213 81.9201 20.952C81.9201 19.5867 82.2881 18.504 83.0241 17.704C83.7708 16.8933 84.7735 16.488 86.0321 16.488C87.0881 16.488 87.9361 16.7547 88.5761 17.288C89.2268 17.8213 89.6055 18.5627 89.7121 19.512H87.9041C87.7975 18.9893 87.5841 18.5893 87.2641 18.312C86.9441 18.0347 86.5388 17.896 86.0481 17.896C85.3441 17.896 84.7895 18.1627 84.3841 18.696C83.9788 19.2187 83.7761 19.9387 83.7761 20.856C83.7761 21.7733 83.9681 22.488 84.3521 23C84.7468 23.512 85.2908 23.768 85.9841 23.768C86.5281 23.768 86.9708 23.608 87.3121 23.288C87.6641 22.9573 87.8881 22.488 87.9841 21.88H89.7761ZM95.0028 16.504C96.2614 16.504 97.2641 16.8987 98.0108 17.688C98.7574 18.4773 99.1308 19.5387 99.1308 20.872C99.1308 22.216 98.7574 23.2827 98.0108 24.072C97.2748 24.8613 96.2721 25.256 95.0028 25.256C93.7121 25.256 92.6881 24.8613 91.9308 24.072C91.1734 23.2827 90.7948 22.216 90.7948 20.872C90.7948 19.5387 91.1734 18.4773 91.9308 17.688C92.6988 16.8987 93.7228 16.504 95.0028 16.504ZM96.6668 18.728C96.2614 18.2053 95.6961 17.944 94.9708 17.944C94.2454 17.944 93.6748 18.2053 93.2588 18.728C92.8428 19.2507 92.6348 19.9653 92.6348 20.872C92.6348 21.8 92.8428 22.5253 93.2588 23.048C93.6748 23.5707 94.2508 23.832 94.9868 23.832C95.7014 23.832 96.2614 23.5707 96.6668 23.048C97.0828 22.5147 97.2908 21.784 97.2908 20.856C97.2908 19.9493 97.0828 19.24 96.6668 18.728ZM107.911 16.744V25H106.199V23.768C105.506 24.7387 104.599 25.224 103.479 25.224C102.572 25.224 101.874 24.968 101.383 24.456C100.903 23.9333 100.663 23.1867 100.663 22.216V16.744H102.487V21.464C102.487 21.752 102.492 21.9867 102.503 22.168C102.514 22.3387 102.546 22.536 102.599 22.76C102.663 22.9733 102.748 23.1387 102.855 23.256C102.972 23.3733 103.132 23.4747 103.335 23.56C103.548 23.6453 103.804 23.688 104.103 23.688C104.786 23.688 105.287 23.448 105.607 22.968C105.927 22.4773 106.087 21.8587 106.087 21.112V16.744H107.911ZM111.595 16.744V17.96C112.256 17 113.168 16.52 114.331 16.52C115.269 16.52 115.968 16.776 116.427 17.288C116.896 17.8 117.131 18.536 117.131 19.496V25H115.307V20.2C115.307 19.8693 115.291 19.5973 115.259 19.384C115.227 19.16 115.157 18.936 115.051 18.712C114.955 18.488 114.795 18.3227 114.571 18.216C114.347 18.0987 114.059 18.04 113.707 18.04C112.363 18.04 111.691 18.8773 111.691 20.552V25H109.867V16.744H111.595ZM123.07 16.744V18.072H121.406V22.424C121.406 22.68 121.411 22.8613 121.422 22.968C121.433 23.064 121.465 23.176 121.518 23.304C121.571 23.4213 121.662 23.5013 121.79 23.544C121.929 23.5867 122.115 23.608 122.35 23.608C122.649 23.608 122.889 23.5973 123.07 23.576V25.016C122.707 25.0587 122.297 25.08 121.838 25.08C121.518 25.08 121.235 25.0533 120.99 25C120.755 24.9573 120.558 24.904 120.398 24.84C120.238 24.776 120.105 24.6693 119.998 24.52C119.891 24.36 119.806 24.232 119.742 24.136C119.689 24.0293 119.646 23.848 119.614 23.592C119.593 23.336 119.582 23.144 119.582 23.016C119.582 22.8773 119.582 22.6427 119.582 22.312C119.582 22.2693 119.582 22.2373 119.582 22.216C119.582 22.184 119.582 22.152 119.582 22.12C119.582 22.0773 119.582 22.04 119.582 22.008V18.072H118.206V16.744H119.582V14.264H121.406V16.744H123.07ZM127.779 13.608H129.875L132.755 22.616L135.699 13.608H137.731L133.827 25H131.603L127.779 13.608ZM140.629 13.56V15.352H138.805V13.56H140.629ZM140.629 16.744V25H138.805V16.744H140.629ZM150.008 22.424C149.806 23.32 149.363 24.0187 148.68 24.52C148.008 25.0213 147.203 25.272 146.264 25.272C145.016 25.272 144.024 24.872 143.288 24.072C142.563 23.2613 142.2 22.2267 142.2 20.968C142.2 19.6773 142.574 18.6107 143.32 17.768C144.078 16.9253 145.038 16.504 146.2 16.504C147.406 16.504 148.36 16.92 149.064 17.752C149.768 18.5733 150.12 19.6987 150.12 21.128V21.32H144.024C144.046 22.152 144.254 22.7973 144.648 23.256C145.043 23.704 145.592 23.928 146.296 23.928C146.798 23.928 147.203 23.8107 147.512 23.576C147.832 23.3307 148.083 22.9467 148.264 22.424H150.008ZM148.296 20.104C148.243 19.4107 148.024 18.8667 147.64 18.472C147.267 18.0667 146.782 17.864 146.184 17.864C145.587 17.864 145.102 18.056 144.728 18.44C144.366 18.824 144.142 19.3787 144.056 20.104H148.296ZM150.739 16.744H152.675L154.307 22.936L155.859 16.744H157.699L159.219 22.936L160.931 16.744H162.787L160.179 25H158.307L156.755 18.872L155.219 25H153.299L150.739 16.744Z" fill="black"/>
<path d="M179.967 15.72L184.313 20.0667C184.827 20.58 184.827 21.42 184.313 21.9333L179.967 26.28" fill="white"/>
<path d="M179.967 15.72L184.313 20.0667C184.827 20.58 184.827 21.42 184.313 21.9333L179.967 26.28" stroke="#5444F2" stroke-width="1.5" stroke-miterlimit="10" stroke-linecap="round" stroke-linejoin="round"/>
<rect x="0.5" y="0.5" width="205" height="41" rx="7.5" stroke="#E1E1E1"/>
</svg>
