<svg width="90" height="28" viewBox="0 0 90 28" fill="none" xmlns="http://www.w3.org/2000/svg">
<g clip-path="url(#clip0_1_2020)">
<path fill-rule="evenodd" clip-rule="evenodd" d="M13.9147 12.2982C15.8233 13.5202 16.9796 15.8155 16.531 18.3351C16.1211 20.6323 14.2705 22.5234 11.9849 23.003C8.21426 23.7958 4.86707 20.8508 4.86707 17.2078V8.25677V4.86707C4.86707 2.17925 2.68781 0 0 0V17.2542H0.00193368C0.00386736 23.9234 6.03501 29.154 12.9711 27.7792C17.0415 26.9728 20.352 23.7146 21.2318 19.6597C22.7478 12.6752 17.4688 6.50679 10.7474 6.50679C10.7474 8.8504 11.9405 11.0335 13.9147 12.2982Z" fill="url(#paint0_linear_1_2020)"/>
<path fill-rule="evenodd" clip-rule="evenodd" d="M56.7288 8.05205C58.0727 8.05205 59.2445 8.31503 60.2462 8.84099C61.2478 9.36888 62.0484 10.0244 62.6478 10.8095V8.3305H64.276C65.3433 8.3305 66.2096 9.19678 66.2096 10.2642V25.401H62.6478V22.8601C62.0484 23.6665 61.2323 24.3375 60.1998 24.8731C59.1672 25.4107 57.9896 25.6794 56.6669 25.6794C55.2012 25.6794 53.8592 25.3024 52.641 24.5482C51.4209 23.7941 50.456 22.7422 49.7444 21.3886C49.0309 20.037 48.6751 18.5016 48.6751 16.7884C48.6751 15.0732 49.0309 13.5553 49.7444 12.2346C50.456 10.912 51.4267 9.88517 52.6565 9.15231C53.8844 8.41945 55.2418 8.05205 56.7288 8.05205ZM30.8348 2.47513C31.9041 2.47513 32.7684 3.34142 32.7684 4.40881V10.8712C33.3679 10.0455 34.1897 9.36869 35.2319 8.84079C36.2742 8.31483 37.4363 8.05185 38.7164 8.05185C40.2247 8.05185 41.5879 8.41345 42.8062 9.13665C44.0244 9.85984 44.9854 10.8866 45.6873 12.2189C46.3893 13.5512 46.7412 15.073 46.7412 16.7882C46.7412 18.5034 46.3893 20.0368 45.6873 21.3884C44.9854 22.742 44.0205 23.7939 42.7907 24.5481C41.5628 25.3022 40.2034 25.6793 38.7164 25.6793C37.3957 25.6793 36.2239 25.4201 35.201 24.9039C34.1781 24.3895 33.3679 23.7282 32.7684 22.9218V25.4008H29.2375V2.47513H30.8348ZM89.2217 8.3303V25.4008H85.6908V8.3303H89.2217ZM76.7567 8.05263C78.0986 8.05263 79.3014 8.33108 80.3649 8.88798C81.4284 9.44487 82.2599 10.2725 82.8594 11.367C83.4569 12.4614 83.7566 13.7821 83.7566 15.3329V25.3996H82.1903C81.1229 25.3996 80.2566 24.5353 80.2566 23.466V15.8589C80.2566 14.3313 79.8738 13.1575 79.11 12.3415C78.3462 11.5274 77.302 11.1194 75.9813 11.1194C74.6586 11.1194 73.6106 11.5274 72.8371 12.3415C72.0617 13.1575 71.675 14.3313 71.675 15.8589V25.3996H68.1441V8.33108H71.675V10.2822C72.2531 9.58023 72.9918 9.033 73.891 8.64046C74.7882 8.24793 75.7434 8.05263 76.7567 8.05263ZM57.4733 11.1189C56.5645 11.1189 55.7175 11.3412 54.9324 11.784C54.1474 12.2288 53.5131 12.8804 53.0278 13.7371C52.5424 14.5937 52.2988 15.6108 52.2988 16.7884C52.2988 17.966 52.5424 18.9986 53.0278 19.8862C53.5131 20.7737 54.1532 21.4505 54.9479 21.9146C55.7426 22.3806 56.5857 22.6126 57.4733 22.6126C58.3821 22.6126 59.2291 22.3845 60.0141 21.93C60.7992 21.4776 61.4334 20.8104 61.9188 19.9326C62.4042 19.0547 62.6478 18.0279 62.6478 16.8503C62.6478 15.6727 62.4042 14.6498 61.9188 13.7835C61.4334 12.9152 60.7992 12.2539 60.0141 11.7995C59.2291 11.347 58.3821 11.1189 57.4733 11.1189ZM37.943 11.1187C37.0554 11.1187 36.2123 11.3468 35.4176 11.7993C34.6228 12.2537 33.9828 12.9151 33.4974 13.7833C33.0121 14.6496 32.7684 15.6725 32.7684 16.8501C32.7684 18.0277 33.0121 19.0545 33.4974 19.9324C33.9828 20.8103 34.6228 21.4774 35.4176 21.9299C36.2123 22.3843 37.0554 22.6124 37.943 22.6124C38.8518 22.6124 39.7026 22.3804 40.4993 21.9144C41.294 21.4503 41.9341 20.7735 42.4194 19.886C42.9048 18.9984 43.1484 17.9658 43.1484 16.7882C43.1484 15.6106 42.9048 14.5935 42.4194 13.7369C41.9341 12.8802 41.294 12.2286 40.4993 11.7839C39.7026 11.341 38.8518 11.1187 37.943 11.1187ZM87.2888 2.47513C88.3403 2.47513 89.1966 3.31575 89.2219 4.36115L89.2225 4.40881V6.00602H85.6916V2.47513H87.2888Z" fill="black"/>
</g>
<defs>
<linearGradient id="paint0_linear_1_2020" x1="4.41428" y1="3.79699e-07" x2="22.6343" y2="23.7357" gradientUnits="userSpaceOnUse">
<stop stop-color="#00B0FF"/>
<stop offset="0.524899" stop-color="#3D5AFE"/>
<stop offset="1" stop-color="#5444F2"/>
</linearGradient>
<clipPath id="clip0_1_2020">
<rect width="89.2597" height="28" fill="white"/>
</clipPath>
</defs>
</svg>
