<svg width="89" height="34" viewBox="0 0 89 34" fill="none" xmlns="http://www.w3.org/2000/svg">
<rect width="89" height="34" rx="17" fill="#F4F3FF"/>
<path d="M18.684 9.608H23.884C25.0787 9.608 25.9907 9.86933 26.62 10.392C27.26 10.904 27.58 11.5973 27.58 12.472C27.58 13.016 27.4307 13.5067 27.132 13.944C26.8333 14.3707 26.4387 14.68 25.948 14.872C26.6093 15.032 27.132 15.352 27.516 15.832C27.9 16.312 28.092 16.9147 28.092 17.64C28.092 18.6427 27.756 19.4533 27.084 20.072C26.4227 20.6907 25.5587 21 24.492 21H18.684V9.608ZM20.636 11.224V14.36H23.356C24.124 14.36 24.6893 14.2427 25.052 14.008C25.4147 13.7627 25.596 13.3573 25.596 12.792C25.596 12.152 25.404 11.7307 25.02 11.528C24.6467 11.3253 24.1133 11.224 23.42 11.224H20.636ZM20.636 15.8V19.368H23.628C24.396 19.368 24.9987 19.24 25.436 18.984C25.8733 18.728 26.092 18.264 26.092 17.592C26.092 17.2187 26.0227 16.9093 25.884 16.664C25.756 16.408 25.564 16.2213 25.308 16.104C25.0627 15.9867 24.8067 15.9067 24.54 15.864C24.2733 15.8213 23.9587 15.8 23.596 15.8H20.636ZM34.3976 12.584V14.328C34.0776 14.296 33.8643 14.28 33.7576 14.28C32.1683 14.28 31.3736 15.3093 31.3736 17.368V21H29.5656V12.744H31.2776V14.392C31.8643 13.1653 32.787 12.552 34.0456 12.552L34.3976 12.584ZM35.2706 15.288C35.4626 13.4213 36.668 12.488 38.8866 12.488C39.9213 12.488 40.7426 12.6907 41.3506 13.096C41.9693 13.5013 42.2786 14.1307 42.2786 14.984V19.176C42.2786 19.4107 42.3053 19.5707 42.3586 19.656C42.4226 19.7413 42.54 19.784 42.7106 19.784C42.8386 19.784 42.9773 19.7733 43.1266 19.752V21.032C42.6573 21.1493 42.2626 21.208 41.9426 21.208C41.164 21.208 40.716 20.8773 40.5986 20.216C39.9053 20.8773 38.94 21.208 37.7026 21.208C36.8493 21.208 36.172 20.9893 35.6706 20.552C35.1693 20.104 34.9186 19.5013 34.9186 18.744C34.9186 18.5093 34.9453 18.2907 34.9986 18.088C35.052 17.8853 35.1106 17.7093 35.1746 17.56C35.2493 17.4107 35.3613 17.272 35.5106 17.144C35.6706 17.016 35.7986 16.9093 35.8946 16.824C36.0013 16.7387 36.1666 16.6587 36.3906 16.584C36.6253 16.5093 36.796 16.456 36.9026 16.424C37.02 16.3813 37.2173 16.3387 37.4946 16.296C37.772 16.2533 37.9533 16.2267 38.0386 16.216C38.1346 16.1947 38.3266 16.168 38.6146 16.136C39.2653 16.0507 39.708 15.9813 39.9426 15.928C40.1773 15.864 40.3373 15.7733 40.4226 15.656C40.4973 15.5707 40.5346 15.3733 40.5346 15.064C40.5346 14.232 39.9693 13.816 38.8386 13.816C38.2413 13.816 37.804 13.928 37.5266 14.152C37.2493 14.376 37.0733 14.7547 36.9986 15.288H35.2706ZM40.5186 16.856C40.38 16.9307 40.22 17 40.0386 17.064C39.8573 17.1173 39.708 17.1547 39.5906 17.176C39.484 17.1867 39.308 17.208 39.0626 17.24C38.828 17.272 38.6733 17.2933 38.5986 17.304C38.3746 17.336 38.1986 17.368 38.0706 17.4C37.9426 17.4213 37.7826 17.464 37.5906 17.528C37.4093 17.592 37.2653 17.672 37.1586 17.768C37.0626 17.8533 36.9773 17.976 36.9026 18.136C36.828 18.2853 36.7906 18.4667 36.7906 18.68C36.7906 19.0747 36.9186 19.3787 37.1746 19.592C37.4413 19.8053 37.8093 19.912 38.2786 19.912C39.0893 19.912 39.7133 19.6933 40.1506 19.256C40.396 19.0107 40.5186 18.536 40.5186 17.832V16.856ZM45.9853 12.744V13.96C46.6466 13 47.5586 12.52 48.7213 12.52C49.6599 12.52 50.3586 12.776 50.8173 13.288C51.2866 13.8 51.5213 14.536 51.5213 15.496V21H49.6973V16.2C49.6973 15.8693 49.6813 15.5973 49.6493 15.384C49.6173 15.16 49.5479 14.936 49.4413 14.712C49.3453 14.488 49.1853 14.3227 48.9613 14.216C48.7373 14.0987 48.4493 14.04 48.0973 14.04C46.7533 14.04 46.0813 14.8773 46.0813 16.552V21H44.2573V12.744H45.9853ZM60.9167 17.88C60.7888 18.8933 60.3834 19.704 59.7008 20.312C59.0181 20.9093 58.1594 21.208 57.1248 21.208C55.8874 21.208 54.9008 20.8187 54.1648 20.04C53.4288 19.2507 53.0608 18.2213 53.0608 16.952C53.0608 15.5867 53.4288 14.504 54.1648 13.704C54.9114 12.8933 55.9141 12.488 57.1727 12.488C58.2288 12.488 59.0768 12.7547 59.7168 13.288C60.3674 13.8213 60.7461 14.5627 60.8528 15.512H59.0448C58.9381 14.9893 58.7248 14.5893 58.4048 14.312C58.0848 14.0347 57.6794 13.896 57.1888 13.896C56.4848 13.896 55.9301 14.1627 55.5248 14.696C55.1194 15.2187 54.9168 15.9387 54.9168 16.856C54.9168 17.7733 55.1088 18.488 55.4928 19C55.8874 19.512 56.4314 19.768 57.1248 19.768C57.6688 19.768 58.1114 19.608 58.4528 19.288C58.8048 18.9573 59.0288 18.488 59.1248 17.88H60.9167ZM64.1434 9.608V13.88C64.7514 12.984 65.6207 12.536 66.7514 12.536C67.6474 12.536 68.346 12.7813 68.8474 13.272C69.3487 13.752 69.5994 14.4613 69.5994 15.4V21H67.7594V15.992C67.7594 15.3627 67.6474 14.8827 67.4234 14.552C67.21 14.2213 66.7887 14.056 66.1594 14.056C65.4554 14.056 64.9434 14.2853 64.6234 14.744C64.3034 15.2027 64.1434 15.8107 64.1434 16.568V21H62.3354V9.608H64.1434Z" fill="#5444F2"/>
</svg>
