<svg width="20" height="20" viewBox="0 0 20 20" fill="none" xmlns="http://www.w3.org/2000/svg">
<path d="M13.3333 10.75V14.25C13.3333 17.1667 12.1667 18.3333 9.25001 18.3333H5.75001C2.83334 18.3333 1.66667 17.1667 1.66667 14.25V10.75C1.66667 7.83333 2.83334 6.66666 5.75001 6.66666H9.25001C12.1667 6.66666 13.3333 7.83333 13.3333 10.75Z" fill="white" stroke="#65717C" stroke-width="1.5" stroke-linecap="round" stroke-linejoin="round"/>
<path d="M18.3333 5.75V9.25C18.3333 12.1667 17.1667 13.3333 14.25 13.3333H13.3333V10.75C13.3333 7.83333 12.1667 6.66666 9.25001 6.66666H6.66667V5.75C6.66667 2.83333 7.83334 1.66666 10.75 1.66666H14.25C17.1667 1.66666 18.3333 2.83333 18.3333 5.75Z" fill="white" stroke="#65717C" stroke-width="1.5" stroke-linecap="round" stroke-linejoin="round"/>
</svg>
