<svg width="111" height="20" viewBox="0 0 111 20" fill="none" xmlns="http://www.w3.org/2000/svg">
<path d="M7.63332 9.05834C7.54999 9.05001 7.44999 9.05001 7.35832 9.05834C5.37499 8.99167 3.79999 7.36667 3.79999 5.36667C3.79999 3.32501 5.44999 1.66667 7.49999 1.66667C9.54165 1.66667 11.2 3.32501 11.2 5.36667C11.1917 7.36667 9.61665 8.99167 7.63332 9.05834Z" stroke="#65717C" stroke-width="1.5" stroke-linecap="round" stroke-linejoin="round"/>
<path d="M13.675 3.33333C15.2916 3.33333 16.5917 4.64166 16.5917 6.25C16.5917 7.825 15.3417 9.10833 13.7833 9.16666C13.7167 9.15833 13.6417 9.15833 13.5667 9.16666" stroke="#65717C" stroke-width="1.5" stroke-linecap="round" stroke-linejoin="round"/>
<path d="M3.46666 12.1333C1.45 13.4833 1.45 15.6833 3.46666 17.025C5.75833 18.5583 9.51666 18.5583 11.8083 17.025C13.825 15.675 13.825 13.475 11.8083 12.1333C9.525 10.6083 5.76666 10.6083 3.46666 12.1333Z" stroke="#65717C" stroke-width="1.5" stroke-linecap="round" stroke-linejoin="round"/>
<path d="M15.2833 16.6667C15.8833 16.5417 16.45 16.3 16.9167 15.9417C18.2167 14.9667 18.2167 13.3583 16.9167 12.3833C16.4583 12.0333 15.9 11.8 15.3083 11.6667" stroke="#65717C" stroke-width="1.5" stroke-linecap="round" stroke-linejoin="round"/>
<path d="M42.912 9.696C42.784 11.136 42.2827 12.2613 41.408 13.072C40.544 13.872 39.4027 14.272 37.984 14.272C36.3627 14.272 35.0773 13.7387 34.128 12.672C33.1787 11.5947 32.704 10.144 32.704 8.32C32.704 6.61333 33.1787 5.19467 34.128 4.064C35.088 2.92267 36.4107 2.352 38.096 2.352C39.3013 2.352 40.3627 2.67733 41.28 3.328C42.1973 3.97867 42.7093 4.88 42.816 6.032H41.312C41.1413 5.28533 40.768 4.704 40.192 4.288C39.616 3.86133 38.9067 3.648 38.064 3.648C36.7947 3.648 35.8347 4.096 35.184 4.992C34.544 5.888 34.224 6.992 34.224 8.304C34.224 9.75467 34.5653 10.896 35.248 11.728C35.9307 12.56 36.864 12.976 38.048 12.976C39.0187 12.976 39.792 12.6987 40.368 12.144C40.944 11.5787 41.2907 10.7627 41.408 9.696H42.912ZM51.4189 5.744V14H50.1549V12.704C49.4509 13.7173 48.5015 14.224 47.3069 14.224C46.4322 14.224 45.7549 13.984 45.2749 13.504C44.7949 13.024 44.5549 12.3307 44.5549 11.424V5.744H45.9149V11.056C45.9149 11.7067 46.0375 12.2027 46.2829 12.544C46.5389 12.8747 46.9922 13.04 47.6429 13.04C49.2535 13.04 50.0589 12.048 50.0589 10.064V5.744H51.4189ZM59.5895 8.144H58.2295C58.1442 7.14133 57.4722 6.64 56.2135 6.64C55.6908 6.64 55.2802 6.74133 54.9815 6.944C54.6828 7.14667 54.5335 7.41867 54.5335 7.76C54.5335 7.856 54.5442 7.952 54.5655 8.048C54.5868 8.13333 54.6242 8.21333 54.6775 8.288C54.7415 8.352 54.7948 8.41067 54.8375 8.464C54.8908 8.51733 54.9708 8.57067 55.0775 8.624C55.1948 8.66667 55.2802 8.704 55.3335 8.736C55.3975 8.768 55.5042 8.80533 55.6535 8.848C55.8135 8.88 55.9255 8.90667 55.9895 8.928C56.0535 8.93867 56.1762 8.96533 56.3575 9.008C56.5495 9.05067 56.6722 9.07733 56.7255 9.088C57.1202 9.17333 57.4135 9.24267 57.6055 9.296C57.8082 9.34933 58.0802 9.45067 58.4215 9.6C58.7735 9.73867 59.0402 9.888 59.2215 10.048C59.4028 10.1973 59.5628 10.4107 59.7015 10.688C59.8508 10.9547 59.9255 11.2587 59.9255 11.6C59.9255 12.4 59.6108 13.0453 58.9815 13.536C58.3628 14.016 57.5362 14.256 56.5015 14.256C55.3815 14.256 54.5175 14.0107 53.9095 13.52C53.3122 13.0293 52.9922 12.32 52.9495 11.392H54.2935C54.3682 12.5547 55.1148 13.136 56.5335 13.136C57.1415 13.136 57.6268 13.0133 57.9895 12.768C58.3628 12.512 58.5495 12.176 58.5495 11.76C58.5495 11.4827 58.4535 11.2533 58.2615 11.072C58.0695 10.8907 57.8562 10.7627 57.6215 10.688C57.3868 10.6027 57.0508 10.5067 56.6135 10.4C56.5495 10.3893 56.5015 10.3787 56.4695 10.368C56.3735 10.3467 56.1655 10.304 55.8455 10.24C55.5362 10.1653 55.3122 10.1067 55.1735 10.064C55.0348 10.0213 54.8322 9.95733 54.5655 9.872C54.3095 9.776 54.1175 9.68 53.9895 9.584C53.8615 9.47733 53.7175 9.34933 53.5575 9.2C53.4082 9.04 53.3015 8.85867 53.2375 8.656C53.1735 8.44267 53.1415 8.20267 53.1415 7.936C53.1415 7.18933 53.4242 6.59733 53.9895 6.16C54.5655 5.72267 55.3335 5.504 56.2935 5.504C57.2642 5.504 58.0535 5.73333 58.6615 6.192C59.2802 6.65067 59.5895 7.30133 59.5895 8.144ZM64.9975 5.744V6.864H63.3495V11.68C63.3495 11.9467 63.3495 12.1227 63.3495 12.208C63.3602 12.2933 63.3922 12.4107 63.4455 12.56C63.4988 12.6987 63.5895 12.7893 63.7175 12.832C63.8455 12.8747 64.0268 12.896 64.2615 12.896C64.4642 12.896 64.7095 12.88 64.9975 12.848V14.016C64.6135 14.0587 64.2668 14.08 63.9575 14.08C63.5735 14.08 63.2535 14.0373 62.9975 13.952C62.7415 13.8667 62.5442 13.7707 62.4055 13.664C62.2775 13.5573 62.1815 13.3707 62.1175 13.104C62.0535 12.8267 62.0162 12.5973 62.0055 12.416C61.9948 12.224 61.9895 11.9093 61.9895 11.472C61.9895 11.44 61.9895 11.4187 61.9895 11.408C61.9895 11.3867 61.9895 11.36 61.9895 11.328C61.9895 11.296 61.9895 11.2693 61.9895 11.248V6.864H60.5975V5.744H61.9895V3.296H63.3495V5.744H64.9975ZM67.1644 6.688C67.8897 5.89867 68.8764 5.504 70.1244 5.504C71.3724 5.504 72.343 5.88267 73.0364 6.64C73.7297 7.39733 74.0764 8.45867 74.0764 9.824C74.0764 11.2213 73.7297 12.3093 73.0364 13.088C72.343 13.8667 71.367 14.256 70.1084 14.256C68.8497 14.256 67.863 13.872 67.1484 13.104C66.4337 12.336 66.0764 11.2693 66.0764 9.904C66.0764 8.54933 66.439 7.47733 67.1644 6.688ZM71.9804 7.52C71.5217 6.93333 70.8924 6.64 70.0924 6.64C69.2924 6.64 68.6577 6.93333 68.1884 7.52C67.719 8.10667 67.4844 8.89067 67.4844 9.872C67.4844 10.8853 67.7137 11.68 68.1724 12.256C68.6417 12.8213 69.2924 13.104 70.1244 13.104C70.9244 13.104 71.5484 12.816 71.9964 12.24C72.455 11.664 72.6844 10.8693 72.6844 9.856C72.6844 8.87467 72.4497 8.096 71.9804 7.52ZM76.9759 5.744V6.944C77.3385 6.45333 77.7279 6.096 78.1439 5.872C78.5599 5.648 79.0665 5.536 79.6639 5.536C80.7945 5.536 81.5572 6.01067 81.9519 6.96C82.6665 6 83.5785 5.52 84.6879 5.52C85.5412 5.52 86.1865 5.76 86.6239 6.24C87.0719 6.70933 87.2959 7.37067 87.2959 8.224V14H85.9359V8.8C85.9359 8.11733 85.8292 7.60533 85.6159 7.264C85.4025 6.912 84.9599 6.736 84.2879 6.736C82.8799 6.736 82.1759 7.59467 82.1759 9.312V14H80.8159V8.704C80.8159 8.07467 80.7092 7.59467 80.4959 7.264C80.2932 6.92267 79.8932 6.752 79.2959 6.752C78.4532 6.752 77.8665 7.01333 77.5359 7.536C77.2159 8.048 77.0559 8.74667 77.0559 9.632V14H75.6959V5.744H76.9759ZM96.3925 11.392C95.9765 13.312 94.7765 14.272 92.7925 14.272C91.5765 14.272 90.6218 13.8933 89.9285 13.136C89.2458 12.3787 88.9045 11.328 88.9045 9.984C88.9045 8.65067 89.2565 7.57333 89.9605 6.752C90.6752 5.92 91.6032 5.504 92.7445 5.504C94.0138 5.504 94.9525 5.936 95.5605 6.8C96.1792 7.65333 96.4885 8.736 96.4885 10.048V10.24H90.2805L90.2645 10.336C90.2645 11.2107 90.4938 11.8987 90.9525 12.4C91.4112 12.9013 92.0405 13.152 92.8405 13.152C93.4378 13.152 93.9072 13.0133 94.2485 12.736C94.6005 12.4587 94.8725 12.0107 95.0645 11.392H96.3925ZM95.0805 9.136C95.0165 8.34667 94.7765 7.73333 94.3605 7.296C93.9445 6.848 93.3952 6.624 92.7125 6.624C92.0512 6.624 91.5018 6.848 91.0645 7.296C90.6272 7.744 90.3658 8.35733 90.2805 9.136H95.0805ZM102.234 5.552V6.96C102.138 6.94933 102.021 6.944 101.882 6.944C101.445 6.944 101.066 7.01333 100.746 7.152C100.426 7.28 100.17 7.45067 99.9783 7.664C99.7969 7.87733 99.6476 8.144 99.5303 8.464C99.4129 8.784 99.3329 9.104 99.2903 9.424C99.2583 9.744 99.2423 10.1067 99.2423 10.512V14H97.8823V5.744H99.1783V7.52C99.7223 6.208 100.741 5.552 102.234 5.552ZM109.386 8.144H108.026C107.941 7.14133 107.269 6.64 106.01 6.64C105.488 6.64 105.077 6.74133 104.778 6.944C104.48 7.14667 104.33 7.41867 104.33 7.76C104.33 7.856 104.341 7.952 104.362 8.048C104.384 8.13333 104.421 8.21333 104.474 8.288C104.538 8.352 104.592 8.41067 104.634 8.464C104.688 8.51733 104.768 8.57067 104.874 8.624C104.992 8.66667 105.077 8.704 105.13 8.736C105.194 8.768 105.301 8.80533 105.45 8.848C105.61 8.88 105.722 8.90667 105.786 8.928C105.85 8.93867 105.973 8.96533 106.154 9.008C106.346 9.05067 106.469 9.07733 106.522 9.088C106.917 9.17333 107.21 9.24267 107.402 9.296C107.605 9.34933 107.877 9.45067 108.218 9.6C108.57 9.73867 108.837 9.888 109.018 10.048C109.2 10.1973 109.36 10.4107 109.498 10.688C109.648 10.9547 109.722 11.2587 109.722 11.6C109.722 12.4 109.408 13.0453 108.778 13.536C108.16 14.016 107.333 14.256 106.298 14.256C105.178 14.256 104.314 14.0107 103.706 13.52C103.109 13.0293 102.789 12.32 102.746 11.392H104.09C104.165 12.5547 104.912 13.136 106.33 13.136C106.938 13.136 107.424 13.0133 107.786 12.768C108.16 12.512 108.346 12.176 108.346 11.76C108.346 11.4827 108.25 11.2533 108.058 11.072C107.866 10.8907 107.653 10.7627 107.418 10.688C107.184 10.6027 106.848 10.5067 106.41 10.4C106.346 10.3893 106.298 10.3787 106.266 10.368C106.17 10.3467 105.962 10.304 105.642 10.24C105.333 10.1653 105.109 10.1067 104.97 10.064C104.832 10.0213 104.629 9.95733 104.362 9.872C104.106 9.776 103.914 9.68 103.786 9.584C103.658 9.47733 103.514 9.34933 103.354 9.2C103.205 9.04 103.098 8.85867 103.034 8.656C102.97 8.44267 102.938 8.20267 102.938 7.936C102.938 7.18933 103.221 6.59733 103.786 6.16C104.362 5.72267 105.13 5.504 106.09 5.504C107.061 5.504 107.85 5.73333 108.458 6.192C109.077 6.65067 109.386 7.30133 109.386 8.144Z" fill="#65717C"/>
</svg>
