<svg width="113" height="25" viewBox="0 0 113 25" fill="none" xmlns="http://www.w3.org/2000/svg">
<rect width="113" height="25" rx="4" fill="#FFF6EB"/>
<path d="M17.8333 9.63334V16.3667C17.7267 16.3467 17.6133 16.3333 17.5 16.3333C16.58 16.3333 15.8333 17.08 15.8333 18C15.8333 18.1133 15.8467 18.2267 15.8667 18.3333H9.13333C9.15333 18.2267 9.16666 18.1133 9.16666 18C9.16666 17.08 8.42 16.3333 7.5 16.3333C7.38666 16.3333 7.27333 16.3467 7.16666 16.3667V9.63334C7.27333 9.65334 7.38666 9.66667 7.5 9.66667C8.42 9.66667 9.16666 8.92001 9.16666 8.00001C9.16666 7.88667 9.15333 7.77334 9.13333 7.66667H15.8667C15.8467 7.77334 15.8333 7.88667 15.8333 8.00001C15.8333 8.92001 16.58 9.66667 17.5 9.66667C17.6133 9.66667 17.7267 9.65334 17.8333 9.63334Z" stroke="#F7931A" stroke-width="1.5" stroke-linecap="round" stroke-linejoin="round"/>
<path d="M9.16667 7.99999C9.16667 8.91999 8.42 9.66666 7.5 9.66666C7.38667 9.66666 7.27334 9.65333 7.16667 9.63333C6.40667 9.47999 5.83334 8.80666 5.83334 7.99999C5.83334 7.07999 6.58 6.33333 7.5 6.33333C8.30667 6.33333 8.98 6.90666 9.13334 7.66666C9.15334 7.77333 9.16667 7.88666 9.16667 7.99999Z" stroke="#F7931A" stroke-width="1.5" stroke-linecap="round" stroke-linejoin="round"/>
<path d="M19.1667 7.99999C19.1667 8.80666 18.5933 9.47999 17.8333 9.63333C17.7267 9.65333 17.6133 9.66666 17.5 9.66666C16.58 9.66666 15.8333 8.91999 15.8333 7.99999C15.8333 7.88666 15.8467 7.77333 15.8667 7.66666C16.02 6.90666 16.6933 6.33333 17.5 6.33333C18.42 6.33333 19.1667 7.07999 19.1667 7.99999Z" stroke="#F7931A" stroke-width="1.5" stroke-linecap="round" stroke-linejoin="round"/>
<path d="M9.16667 18C9.16667 18.1133 9.15334 18.2267 9.13334 18.3333C8.98 19.0933 8.30667 19.6667 7.5 19.6667C6.58 19.6667 5.83334 18.92 5.83334 18C5.83334 17.1933 6.40667 16.52 7.16667 16.3667C7.27334 16.3467 7.38667 16.3333 7.5 16.3333C8.42 16.3333 9.16667 17.08 9.16667 18Z" stroke="#F7931A" stroke-width="1.5" stroke-linecap="round" stroke-linejoin="round"/>
<path d="M19.1667 18C19.1667 18.92 18.42 19.6667 17.5 19.6667C16.6933 19.6667 16.02 19.0933 15.8667 18.3333C15.8467 18.2267 15.8333 18.1133 15.8333 18C15.8333 17.08 16.58 16.3333 17.5 16.3333C17.6133 16.3333 17.7267 16.3467 17.8333 16.3667C18.5933 16.52 19.1667 17.1933 19.1667 18Z" stroke="#F7931A" stroke-width="1.5" stroke-linecap="round" stroke-linejoin="round"/>
<path d="M27.4 7.456H30.652C31.244 7.456 31.764 7.52 32.212 7.648C32.66 7.768 33.072 7.996 33.448 8.332C34.288 9.084 34.708 10.168 34.708 11.584C34.708 13.096 34.308 14.252 33.508 15.052C33.156 15.404 32.772 15.652 32.356 15.796C31.948 15.932 31.408 16 30.736 16H27.4V7.456ZM28.888 8.728V14.74H30.652C31.588 14.74 32.248 14.468 32.632 13.924C33.016 13.38 33.208 12.624 33.208 11.656C33.208 10.736 32.992 10.02 32.56 9.508C32.128 8.988 31.46 8.728 30.556 8.728H28.888ZM38.8082 9.628C39.7522 9.628 40.5042 9.924 41.0642 10.516C41.6242 11.108 41.9042 11.904 41.9042 12.904C41.9042 13.912 41.6242 14.712 41.0642 15.304C40.5122 15.896 39.7602 16.192 38.8082 16.192C37.8402 16.192 37.0722 15.896 36.5042 15.304C35.9362 14.712 35.6522 13.912 35.6522 12.904C35.6522 11.904 35.9362 11.108 36.5042 10.516C37.0802 9.924 37.8482 9.628 38.8082 9.628ZM40.0562 11.296C39.7522 10.904 39.3282 10.708 38.7842 10.708C38.2402 10.708 37.8122 10.904 37.5002 11.296C37.1882 11.688 37.0322 12.224 37.0322 12.904C37.0322 13.6 37.1882 14.144 37.5002 14.536C37.8122 14.928 38.2442 15.124 38.7962 15.124C39.3322 15.124 39.7522 14.928 40.0562 14.536C40.3682 14.136 40.5242 13.588 40.5242 12.892C40.5242 12.212 40.3682 11.68 40.0562 11.296ZM48.9814 7.456V16H47.6974V15.148C47.3054 15.828 46.6454 16.168 45.7174 16.168C44.8454 16.168 44.1494 15.872 43.6294 15.28C43.1174 14.688 42.8614 13.892 42.8614 12.892C42.8614 11.9 43.1134 11.112 43.6174 10.528C44.1294 9.936 44.8134 9.64 45.6694 9.64C46.5414 9.64 47.1974 9.964 47.6374 10.612V7.456H48.9814ZM45.9214 10.744C45.4014 10.744 44.9894 10.936 44.6854 11.32C44.3894 11.696 44.2414 12.212 44.2414 12.868C44.2414 13.548 44.3934 14.084 44.6974 14.476C45.0094 14.868 45.4334 15.064 45.9694 15.064C46.5054 15.064 46.9214 14.872 47.2174 14.488C47.5214 14.104 47.6734 13.572 47.6734 12.892C47.6734 12.212 47.5174 11.684 47.2054 11.308C46.9014 10.932 46.4734 10.744 45.9214 10.744ZM53.3774 9.628C54.3214 9.628 55.0734 9.924 55.6334 10.516C56.1934 11.108 56.4734 11.904 56.4734 12.904C56.4734 13.912 56.1934 14.712 55.6334 15.304C55.0814 15.896 54.3294 16.192 53.3774 16.192C52.4094 16.192 51.6414 15.896 51.0734 15.304C50.5054 14.712 50.2214 13.912 50.2214 12.904C50.2214 11.904 50.5054 11.108 51.0734 10.516C51.6494 9.924 52.4174 9.628 53.3774 9.628ZM54.6254 11.296C54.3214 10.904 53.8974 10.708 53.3534 10.708C52.8094 10.708 52.3814 10.904 52.0694 11.296C51.7574 11.688 51.6014 12.224 51.6014 12.904C51.6014 13.6 51.7574 14.144 52.0694 14.536C52.3814 14.928 52.8134 15.124 53.3654 15.124C53.9014 15.124 54.3214 14.928 54.6254 14.536C54.9374 14.136 55.0934 13.588 55.0934 12.892C55.0934 12.212 54.9374 11.68 54.6254 11.296ZM64.4545 12.064V13.336H60.9385V12.064H64.4545ZM75.2304 14.704V16H69.3744V7.456H70.8864V14.704H75.2304ZM81.701 14.068C81.549 14.74 81.217 15.264 80.705 15.64C80.201 16.016 79.597 16.204 78.893 16.204C77.957 16.204 77.213 15.904 76.661 15.304C76.117 14.696 75.845 13.92 75.845 12.976C75.845 12.008 76.125 11.208 76.685 10.576C77.253 9.944 77.973 9.628 78.845 9.628C79.749 9.628 80.465 9.94 80.993 10.564C81.521 11.18 81.785 12.024 81.785 13.096V13.24H77.213C77.229 13.864 77.385 14.348 77.681 14.692C77.977 15.028 78.389 15.196 78.917 15.196C79.293 15.196 79.597 15.108 79.829 14.932C80.069 14.748 80.257 14.46 80.393 14.068H81.701ZM80.417 12.328C80.377 11.808 80.213 11.4 79.925 11.104C79.645 10.8 79.281 10.648 78.833 10.648C78.385 10.648 78.021 10.792 77.741 11.08C77.469 11.368 77.301 11.784 77.237 12.328H80.417ZM88.381 9.808L86.005 12.076L88.597 16H86.929L85.045 13.012L84.229 13.78V16H82.897V7.456H84.229V12.268L86.701 9.808H88.381ZM94.8863 9.808L92.5103 12.076L95.1023 16H93.4343L91.5503 13.012L90.7343 13.78V16H89.4023V7.456H90.7343V12.268L93.2063 9.808H94.8863ZM97.2996 7.42V8.764H95.9316V7.42H97.2996ZM97.2996 9.808V16H95.9316V9.808H97.2996ZM103.954 7.456V16H102.442V7.456H103.954ZM107.354 7.456V16H105.842V7.456H107.354Z" fill="#EA8A15"/>
</svg>
