<svg width="103" height="25" viewBox="0 0 103 25" fill="none" xmlns="http://www.w3.org/2000/svg">
<rect width="103" height="25" rx="4" fill="#EBF5FF"/>
<path d="M19.3333 9.63333V16.3667C19.2267 16.3467 19.1133 16.3333 19 16.3333C18.08 16.3333 17.3333 17.08 17.3333 18C17.3333 18.1133 17.3467 18.2267 17.3667 18.3333H10.6333C10.6533 18.2267 10.6667 18.1133 10.6667 18C10.6667 17.08 9.92 16.3333 9 16.3333C8.88666 16.3333 8.77333 16.3467 8.66666 16.3667V9.63333C8.77333 9.65333 8.88666 9.66666 9 9.66666C9.92 9.66666 10.6667 8.92 10.6667 8C10.6667 7.88666 10.6533 7.77333 10.6333 7.66666H17.3667C17.3467 7.77333 17.3333 7.88666 17.3333 8C17.3333 8.92 18.08 9.66666 19 9.66666C19.1133 9.66666 19.2267 9.65333 19.3333 9.63333Z" stroke="#1A72F7" stroke-width="1.5" stroke-linecap="round" stroke-linejoin="round"/>
<path d="M10.6667 8C10.6667 8.92 9.92 9.66667 9 9.66667C8.88667 9.66667 8.77334 9.65334 8.66667 9.63334C7.90667 9.48 7.33334 8.80667 7.33334 8C7.33334 7.08 8.08 6.33334 9 6.33334C9.80667 6.33334 10.48 6.90667 10.6333 7.66667C10.6533 7.77334 10.6667 7.88667 10.6667 8Z" stroke="#1A72F7" stroke-width="1.5" stroke-linecap="round" stroke-linejoin="round"/>
<path d="M20.6667 8C20.6667 8.80667 20.0933 9.48 19.3333 9.63334C19.2267 9.65334 19.1133 9.66667 19 9.66667C18.08 9.66667 17.3333 8.92 17.3333 8C17.3333 7.88667 17.3467 7.77334 17.3667 7.66667C17.52 6.90667 18.1933 6.33334 19 6.33334C19.92 6.33334 20.6667 7.08 20.6667 8Z" stroke="#1A72F7" stroke-width="1.5" stroke-linecap="round" stroke-linejoin="round"/>
<path d="M10.6667 18C10.6667 18.1133 10.6533 18.2267 10.6333 18.3333C10.48 19.0933 9.80667 19.6667 9 19.6667C8.08 19.6667 7.33334 18.92 7.33334 18C7.33334 17.1933 7.90667 16.52 8.66667 16.3667C8.77334 16.3467 8.88667 16.3333 9 16.3333C9.92 16.3333 10.6667 17.08 10.6667 18Z" stroke="#1A72F7" stroke-width="1.5" stroke-linecap="round" stroke-linejoin="round"/>
<path d="M20.6667 18C20.6667 18.92 19.92 19.6667 19 19.6667C18.1933 19.6667 17.52 19.0933 17.3667 18.3333C17.3467 18.2267 17.3333 18.1133 17.3333 18C17.3333 17.08 18.08 16.3333 19 16.3333C19.1133 16.3333 19.2267 16.3467 19.3333 16.3667C20.0933 16.52 20.6667 17.1933 20.6667 18Z" stroke="#1A72F7" stroke-width="1.5" stroke-linecap="round" stroke-linejoin="round"/>
<path d="M28.9 7.456H32.152C32.744 7.456 33.264 7.52 33.712 7.648C34.16 7.768 34.572 7.996 34.948 8.332C35.788 9.084 36.208 10.168 36.208 11.584C36.208 13.096 35.808 14.252 35.008 15.052C34.656 15.404 34.272 15.652 33.856 15.796C33.448 15.932 32.908 16 32.236 16H28.9V7.456ZM30.388 8.728V14.74H32.152C33.088 14.74 33.748 14.468 34.132 13.924C34.516 13.38 34.708 12.624 34.708 11.656C34.708 10.736 34.492 10.02 34.06 9.508C33.628 8.988 32.96 8.728 32.056 8.728H30.388ZM40.3082 9.628C41.2522 9.628 42.0042 9.924 42.5642 10.516C43.1242 11.108 43.4042 11.904 43.4042 12.904C43.4042 13.912 43.1242 14.712 42.5642 15.304C42.0122 15.896 41.2602 16.192 40.3082 16.192C39.3402 16.192 38.5722 15.896 38.0042 15.304C37.4362 14.712 37.1522 13.912 37.1522 12.904C37.1522 11.904 37.4362 11.108 38.0042 10.516C38.5802 9.924 39.3482 9.628 40.3082 9.628ZM41.5562 11.296C41.2522 10.904 40.8282 10.708 40.2842 10.708C39.7402 10.708 39.3122 10.904 39.0002 11.296C38.6882 11.688 38.5322 12.224 38.5322 12.904C38.5322 13.6 38.6882 14.144 39.0002 14.536C39.3122 14.928 39.7442 15.124 40.2962 15.124C40.8322 15.124 41.2522 14.928 41.5562 14.536C41.8682 14.136 42.0242 13.588 42.0242 12.892C42.0242 12.212 41.8682 11.68 41.5562 11.296ZM50.4814 7.456V16H49.1974V15.148C48.8054 15.828 48.1454 16.168 47.2174 16.168C46.3454 16.168 45.6494 15.872 45.1294 15.28C44.6174 14.688 44.3614 13.892 44.3614 12.892C44.3614 11.9 44.6134 11.112 45.1174 10.528C45.6294 9.936 46.3134 9.64 47.1694 9.64C48.0414 9.64 48.6974 9.964 49.1374 10.612V7.456H50.4814ZM47.4214 10.744C46.9014 10.744 46.4894 10.936 46.1854 11.32C45.8894 11.696 45.7414 12.212 45.7414 12.868C45.7414 13.548 45.8934 14.084 46.1974 14.476C46.5094 14.868 46.9334 15.064 47.4694 15.064C48.0054 15.064 48.4214 14.872 48.7174 14.488C49.0214 14.104 49.1734 13.572 49.1734 12.892C49.1734 12.212 49.0174 11.684 48.7054 11.308C48.4014 10.932 47.9734 10.744 47.4214 10.744ZM54.8774 9.628C55.8214 9.628 56.5734 9.924 57.1334 10.516C57.6934 11.108 57.9734 11.904 57.9734 12.904C57.9734 13.912 57.6934 14.712 57.1334 15.304C56.5814 15.896 55.8294 16.192 54.8774 16.192C53.9094 16.192 53.1414 15.896 52.5734 15.304C52.0054 14.712 51.7214 13.912 51.7214 12.904C51.7214 11.904 52.0054 11.108 52.5734 10.516C53.1494 9.924 53.9174 9.628 54.8774 9.628ZM56.1254 11.296C55.8214 10.904 55.3974 10.708 54.8534 10.708C54.3094 10.708 53.8814 10.904 53.5694 11.296C53.2574 11.688 53.1014 12.224 53.1014 12.904C53.1014 13.6 53.2574 14.144 53.5694 14.536C53.8814 14.928 54.3134 15.124 54.8654 15.124C55.4014 15.124 55.8214 14.928 56.1254 14.536C56.4374 14.136 56.5934 13.588 56.5934 12.892C56.5934 12.212 56.4374 11.68 56.1254 11.296ZM65.9545 12.064V13.336H62.4385V12.064H65.9545ZM72.4104 7.456V16H70.8984V7.456H72.4104ZM79.6022 9.808L77.2262 12.076L79.8182 16H78.1502L76.2662 13.012L75.4502 13.78V16H74.1182V7.456H75.4502V12.268L77.9222 9.808H79.6022ZM86.1556 14.068C86.0036 14.74 85.6716 15.264 85.1596 15.64C84.6556 16.016 84.0516 16.204 83.3476 16.204C82.4116 16.204 81.6676 15.904 81.1156 15.304C80.5716 14.696 80.2996 13.92 80.2996 12.976C80.2996 12.008 80.5796 11.208 81.1396 10.576C81.7076 9.944 82.4276 9.628 83.2996 9.628C84.2036 9.628 84.9196 9.94 85.4476 10.564C85.9756 11.18 86.2396 12.024 86.2396 13.096V13.24H81.6676C81.6836 13.864 81.8396 14.348 82.1356 14.692C82.4316 15.028 82.8436 15.196 83.3716 15.196C83.7476 15.196 84.0516 15.108 84.2836 14.932C84.5236 14.748 84.7116 14.46 84.8476 14.068H86.1556ZM84.8716 12.328C84.8316 11.808 84.6676 11.4 84.3796 11.104C84.0996 10.8 83.7356 10.648 83.2876 10.648C82.8396 10.648 82.4756 10.792 82.1956 11.08C81.9236 11.368 81.7556 11.784 81.6916 12.328H84.8716ZM88.7915 9.808V16.324C88.7915 17.052 88.6555 17.576 88.3835 17.896C88.1195 18.216 87.6475 18.376 86.9675 18.376C86.8475 18.376 86.6555 18.364 86.3915 18.34V17.224C86.5995 17.24 86.7075 17.248 86.7155 17.248C86.9715 17.248 87.1515 17.212 87.2555 17.14C87.3675 17.068 87.4235 16.916 87.4235 16.684V9.808H88.7915ZM88.7915 7.408V8.764H87.4235V7.408H88.7915ZM90.2341 11.716C90.3781 10.316 91.2821 9.616 92.9461 9.616C93.7221 9.616 94.3381 9.768 94.7941 10.072C95.2581 10.376 95.4901 10.848 95.4901 11.488V14.632C95.4901 14.808 95.5101 14.928 95.5501 14.992C95.5981 15.056 95.6861 15.088 95.8141 15.088C95.9101 15.088 96.0141 15.08 96.1261 15.064V16.024C95.7741 16.112 95.4781 16.156 95.2381 16.156C94.6541 16.156 94.3181 15.908 94.2301 15.412C93.7101 15.908 92.9861 16.156 92.0581 16.156C91.4181 16.156 90.9101 15.992 90.5341 15.664C90.1581 15.328 89.9701 14.876 89.9701 14.308C89.9701 14.132 89.9901 13.968 90.0301 13.816C90.0701 13.664 90.1141 13.532 90.1621 13.42C90.2181 13.308 90.3021 13.204 90.4141 13.108C90.5341 13.012 90.6301 12.932 90.7021 12.868C90.7821 12.804 90.9061 12.744 91.0741 12.688C91.2501 12.632 91.3781 12.592 91.4581 12.568C91.5461 12.536 91.6941 12.504 91.9021 12.472C92.1101 12.44 92.2461 12.42 92.3101 12.412C92.3821 12.396 92.5261 12.376 92.7421 12.352C93.2301 12.288 93.5621 12.236 93.7381 12.196C93.9141 12.148 94.0341 12.08 94.0981 11.992C94.1541 11.928 94.1821 11.78 94.1821 11.548C94.1821 10.924 93.7581 10.612 92.9101 10.612C92.4621 10.612 92.1341 10.696 91.9261 10.864C91.7181 11.032 91.5861 11.316 91.5301 11.716H90.2341ZM94.1701 12.892C94.0661 12.948 93.9461 13 93.8101 13.048C93.6741 13.088 93.5621 13.116 93.4741 13.132C93.3941 13.14 93.2621 13.156 93.0781 13.18C92.9021 13.204 92.7861 13.22 92.7301 13.228C92.5621 13.252 92.4301 13.276 92.3341 13.3C92.2381 13.316 92.1181 13.348 91.9741 13.396C91.8381 13.444 91.7301 13.504 91.6501 13.576C91.5781 13.64 91.5141 13.732 91.4581 13.852C91.4021 13.964 91.3741 14.1 91.3741 14.26C91.3741 14.556 91.4701 14.784 91.6621 14.944C91.8621 15.104 92.1381 15.184 92.4901 15.184C93.0981 15.184 93.5661 15.02 93.8941 14.692C94.0781 14.508 94.1701 14.152 94.1701 13.624V12.892Z" fill="#1A72F7"/>
</svg>
