<svg width="84" height="36" viewBox="0 0 84 36" fill="none" xmlns="http://www.w3.org/2000/svg">
<rect x="48.5" y="0.5" width="35" height="35" rx="7.5" fill="white"/>
<path d="M71.2667 19H60.7333C59.7333 19 59.3333 19.4267 59.3333 20.4867V23.18C59.3333 24.24 59.7333 24.6667 60.7333 24.6667H71.2667C72.2667 24.6667 72.6667 24.24 72.6667 23.18V20.4867C72.6667 19.4267 72.2667 19 71.2667 19Z" fill="white" stroke="#65717C" stroke-width="1.5" stroke-linecap="round" stroke-linejoin="round"/>
<path d="M71.2667 11.3333H60.7333C59.7333 11.3333 59.3333 11.76 59.3333 12.82V15.5133C59.3333 16.5733 59.7333 17 60.7333 17H71.2667C72.2667 17 72.6667 16.5733 72.6667 15.5133V12.82C72.6667 11.76 72.2667 11.3333 71.2667 11.3333Z" fill="white" stroke="#65717C" stroke-width="1.5" stroke-linecap="round" stroke-linejoin="round"/>
<rect x="48.5" y="0.5" width="35" height="35" rx="7.5" stroke="#E1E1E1"/>
<rect x="0.5" y="0.5" width="35" height="35" rx="7.5" fill="white"/>
<path d="M24.6667 15.68V12.6533C24.6667 11.7133 24.24 11.3333 23.18 11.3333H20.4867C19.4267 11.3333 19 11.7133 19 12.6533V15.6733C19 16.62 19.4267 16.9933 20.4867 16.9933H23.18C24.24 17 24.6667 16.62 24.6667 15.68Z" fill="white" stroke="#5444F2" stroke-width="1.5" stroke-linecap="round" stroke-linejoin="round"/>
<path d="M24.6667 23.18V20.4867C24.6667 19.4267 24.24 19 23.18 19H20.4867C19.4267 19 19 19.4267 19 20.4867V23.18C19 24.24 19.4267 24.6667 20.4867 24.6667H23.18C24.24 24.6667 24.6667 24.24 24.6667 23.18Z" fill="white" stroke="#5444F2" stroke-width="1.5" stroke-linecap="round" stroke-linejoin="round"/>
<path d="M17 15.68V12.6533C17 11.7133 16.5733 11.3333 15.5133 11.3333H12.82C11.76 11.3333 11.3333 11.7133 11.3333 12.6533V15.6733C11.3333 16.62 11.76 16.9933 12.82 16.9933H15.5133C16.5733 17 17 16.62 17 15.68Z" stroke="#5444F2" stroke-width="1.5" stroke-linecap="round" stroke-linejoin="round"/>
<path d="M17 23.18V20.4867C17 19.4267 16.5733 19 15.5133 19H12.82C11.76 19 11.3333 19.4267 11.3333 20.4867V23.18C11.3333 24.24 11.76 24.6667 12.82 24.6667H15.5133C16.5733 24.6667 17 24.24 17 23.18Z" stroke="#5444F2" stroke-width="1.5" stroke-linecap="round" stroke-linejoin="round"/>
<rect x="0.5" y="0.5" width="35" height="35" rx="7.5" stroke="#5444F2"/>
</svg>
