<svg width="107" height="20" viewBox="0 0 107 20" fill="none" xmlns="http://www.w3.org/2000/svg">
<path d="M8.33335 3.33334H11.6667C15.35 3.33334 18.3334 6.31668 18.3334 10C18.3334 13.6833 15.35 16.6667 11.6667 16.6667H8.33335C4.65002 16.6667 1.66669 13.6833 1.66669 10C1.66669 6.31668 4.65002 3.33334 8.33335 3.33334Z" stroke="#65717C" stroke-width="1.5" stroke-linecap="round" stroke-linejoin="round"/>
<path d="M8.33333 13.3333C10.1743 13.3333 11.6667 11.8409 11.6667 9.99999C11.6667 8.15904 10.1743 6.66666 8.33333 6.66666C6.49238 6.66666 5 8.15904 5 9.99999C5 11.8409 6.49238 13.3333 8.33333 13.3333Z" stroke="#65717C" stroke-width="1.5" stroke-linecap="round" stroke-linejoin="round"/>
<path d="M40.832 12.688V14H33.28V2.608H34.784V12.688H40.832ZM43.3546 2.608V4.272H41.9786V2.608H43.3546ZM43.3546 5.744V14H41.9786V5.744H43.3546ZM44.6615 5.744H46.1815L48.5175 12.672L50.7895 5.744H52.2135L49.1895 14H47.7335L44.6615 5.744ZM60.5175 11.392C60.1015 13.312 58.9015 14.272 56.9175 14.272C55.7015 14.272 54.7468 13.8933 54.0535 13.136C53.3708 12.3787 53.0295 11.328 53.0295 9.984C53.0295 8.65067 53.3815 7.57333 54.0855 6.752C54.8002 5.92 55.7282 5.504 56.8695 5.504C58.1388 5.504 59.0775 5.936 59.6855 6.8C60.3042 7.65333 60.6135 8.736 60.6135 10.048V10.24H54.4055L54.3895 10.336C54.3895 11.2107 54.6188 11.8987 55.0775 12.4C55.5362 12.9013 56.1655 13.152 56.9655 13.152C57.5628 13.152 58.0322 13.0133 58.3735 12.736C58.7255 12.4587 58.9975 12.0107 59.1895 11.392H60.5175ZM59.2055 9.136C59.1415 8.34667 58.9015 7.73333 58.4855 7.296C58.0695 6.848 57.5202 6.624 56.8375 6.624C56.1762 6.624 55.6268 6.848 55.1895 7.296C54.7522 7.744 54.4908 8.35733 54.4055 9.136H59.2055ZM67.7884 5.744V6.944C68.151 6.45333 68.5404 6.096 68.9564 5.872C69.3724 5.648 69.879 5.536 70.4764 5.536C71.607 5.536 72.3697 6.01067 72.7644 6.96C73.479 6 74.391 5.52 75.5004 5.52C76.3537 5.52 76.999 5.76 77.4364 6.24C77.8844 6.70933 78.1084 7.37067 78.1084 8.224V14H76.7484V8.8C76.7484 8.11733 76.6417 7.60533 76.4284 7.264C76.215 6.912 75.7724 6.736 75.1004 6.736C73.6924 6.736 72.9884 7.59467 72.9884 9.312V14H71.6284V8.704C71.6284 8.07467 71.5217 7.59467 71.3084 7.264C71.1057 6.92267 70.7057 6.752 70.1084 6.752C69.2657 6.752 68.679 7.01333 68.3484 7.536C68.0284 8.048 67.8684 8.74667 67.8684 9.632V14H66.5084V5.744H67.7884ZM80.805 6.688C81.5303 5.89867 82.517 5.504 83.765 5.504C85.013 5.504 85.9837 5.88267 86.677 6.64C87.3703 7.39733 87.717 8.45867 87.717 9.824C87.717 11.2213 87.3703 12.3093 86.677 13.088C85.9837 13.8667 85.0077 14.256 83.749 14.256C82.4903 14.256 81.5037 13.872 80.789 13.104C80.0743 12.336 79.717 11.2693 79.717 9.904C79.717 8.54933 80.0797 7.47733 80.805 6.688ZM85.621 7.52C85.1623 6.93333 84.533 6.64 83.733 6.64C82.933 6.64 82.2983 6.93333 81.829 7.52C81.3597 8.10667 81.125 8.89067 81.125 9.872C81.125 10.8853 81.3543 11.68 81.813 12.256C82.2823 12.8213 82.933 13.104 83.765 13.104C84.565 13.104 85.189 12.816 85.637 12.24C86.0957 11.664 86.325 10.8693 86.325 9.856C86.325 8.87467 86.0903 8.096 85.621 7.52ZM96.7765 2.608V14H95.4965V12.784C94.9738 13.744 94.0672 14.224 92.7765 14.224C91.6032 14.224 90.6698 13.8347 89.9765 13.056C89.2938 12.2667 88.9525 11.2 88.9525 9.856C88.9525 8.608 89.2725 7.57333 89.9125 6.752C90.5632 5.92 91.4965 5.504 92.7125 5.504C93.8965 5.504 94.7978 5.952 95.4165 6.848V2.608H96.7765ZM92.8885 6.672C92.1098 6.672 91.4912 6.95467 91.0325 7.52C90.5845 8.08533 90.3605 8.85333 90.3605 9.824C90.3605 10.8267 90.5898 11.6267 91.0485 12.224C91.5178 12.8107 92.1418 13.104 92.9205 13.104C93.7098 13.104 94.3285 12.8213 94.7765 12.256C95.2245 11.68 95.4485 10.8853 95.4485 9.872C95.4485 8.96533 95.2352 8.208 94.8085 7.6C94.3925 6.98133 93.7525 6.672 92.8885 6.672ZM105.877 11.392C105.461 13.312 104.261 14.272 102.277 14.272C101.061 14.272 100.106 13.8933 99.4129 13.136C98.7302 12.3787 98.3889 11.328 98.3889 9.984C98.3889 8.65067 98.7409 7.57333 99.4449 6.752C100.16 5.92 101.088 5.504 102.229 5.504C103.498 5.504 104.437 5.936 105.045 6.8C105.664 7.65333 105.973 8.736 105.973 10.048V10.24H99.7649L99.7489 10.336C99.7489 11.2107 99.9782 11.8987 100.437 12.4C100.896 12.9013 101.525 13.152 102.325 13.152C102.922 13.152 103.392 13.0133 103.733 12.736C104.085 12.4587 104.357 12.0107 104.549 11.392H105.877ZM104.565 9.136C104.501 8.34667 104.261 7.73333 103.845 7.296C103.429 6.848 102.88 6.624 102.197 6.624C101.536 6.624 100.986 6.848 100.549 7.296C100.112 7.744 99.8502 8.35733 99.7649 9.136H104.565Z" fill="#65717C"/>
</svg>
