<svg width="88" height="19" viewBox="0 0 88 19" fill="none" xmlns="http://www.w3.org/2000/svg">
<path d="M76.8325 15.75L81.16 15.75C82.75 15.75 82.75 15.75 83.7625 14.25L86.1475 10.125C86.5075 9.5025 86.5075 8.49 86.1475 7.875L83.7625 3.75C82.75 2.25 82.75 2.25 81.1675 2.25L76.8325 2.25C75.25 2.25 75.25 2.25 74.2375 3.75L71.8525 7.875C71.4925 8.49 71.4925 9.5025 71.8525 10.125L74.2375 14.25C75.25 15.75 75.25 15.75 76.8325 15.75Z" stroke="#5444F2" stroke-width="1.5" stroke-linecap="round" stroke-linejoin="round"/>
<path d="M81.25 9C81.25 7.75736 80.2426 6.75 79 6.75C77.7574 6.75 76.75 7.75736 76.75 9C76.75 10.2426 77.7574 11.25 79 11.25C80.2426 11.25 81.25 10.2426 81.25 9Z" fill="white" stroke="#5444F2" stroke-width="1.5" stroke-linecap="round" stroke-linejoin="round"/>
<path d="M13.4775 2.608V14H11.5735V5.216L8.4055 14H6.7735L3.5255 5.216V14H1.6375V2.608H4.4375L7.6215 11.52L10.6935 2.608H13.4775ZM15.5363 8.288C15.7283 6.42133 16.9336 5.488 19.1523 5.488C20.1869 5.488 21.0083 5.69067 21.6163 6.096C22.2349 6.50133 22.5443 7.13067 22.5443 7.984V12.176C22.5443 12.4107 22.5709 12.5707 22.6243 12.656C22.6883 12.7413 22.8056 12.784 22.9763 12.784C23.1043 12.784 23.2429 12.7733 23.3923 12.752V14.032C22.9229 14.1493 22.5283 14.208 22.2083 14.208C21.4296 14.208 20.9816 13.8773 20.8643 13.216C20.1709 13.8773 19.2056 14.208 17.9683 14.208C17.1149 14.208 16.4376 13.9893 15.9363 13.552C15.4349 13.104 15.1842 12.5013 15.1842 11.744C15.1842 11.5093 15.2109 11.2907 15.2643 11.088C15.3176 10.8853 15.3763 10.7093 15.4403 10.56C15.5149 10.4107 15.6269 10.272 15.7763 10.144C15.9363 10.016 16.0643 9.90933 16.1603 9.824C16.2669 9.73867 16.4323 9.65867 16.6562 9.584C16.8909 9.50933 17.0616 9.456 17.1683 9.424C17.2856 9.38133 17.4829 9.33867 17.7603 9.296C18.0376 9.25333 18.2189 9.22667 18.3043 9.216C18.4003 9.19467 18.5923 9.168 18.8802 9.136C19.5309 9.05067 19.9736 8.98133 20.2083 8.928C20.4429 8.864 20.6029 8.77333 20.6883 8.656C20.7629 8.57067 20.8003 8.37333 20.8003 8.064C20.8003 7.232 20.2349 6.816 19.1043 6.816C18.5069 6.816 18.0696 6.928 17.7923 7.152C17.5149 7.376 17.3389 7.75467 17.2643 8.288H15.5363ZM20.7843 9.856C20.6456 9.93067 20.4856 10 20.3043 10.064C20.1229 10.1173 19.9736 10.1547 19.8563 10.176C19.7496 10.1867 19.5736 10.208 19.3283 10.24C19.0936 10.272 18.9389 10.2933 18.8643 10.304C18.6403 10.336 18.4643 10.368 18.3363 10.4C18.2083 10.4213 18.0483 10.464 17.8563 10.528C17.6749 10.592 17.5309 10.672 17.4243 10.768C17.3283 10.8533 17.2429 10.976 17.1683 11.136C17.0936 11.2853 17.0563 11.4667 17.0563 11.68C17.0563 12.0747 17.1843 12.3787 17.4403 12.592C17.7069 12.8053 18.0749 12.912 18.5443 12.912C19.3549 12.912 19.9789 12.6933 20.4163 12.256C20.6616 12.0107 20.7843 11.536 20.7843 10.832V9.856ZM26.2509 5.744V6.96C26.9122 6 27.8242 5.52 28.9869 5.52C29.9255 5.52 30.6242 5.776 31.0829 6.288C31.5522 6.8 31.7869 7.536 31.7869 8.496V14H29.9629V9.2C29.9629 8.86933 29.9469 8.59733 29.9149 8.384C29.8829 8.16 29.8135 7.936 29.7069 7.712C29.6109 7.488 29.4509 7.32267 29.2269 7.216C29.0029 7.09867 28.7149 7.04 28.3629 7.04C27.0189 7.04 26.3469 7.87733 26.3469 9.552V14H24.5229V5.744H26.2509ZM33.6144 8.288C33.8064 6.42133 35.0117 5.488 37.2304 5.488C38.265 5.488 39.0864 5.69067 39.6944 6.096C40.313 6.50133 40.6224 7.13067 40.6224 7.984V12.176C40.6224 12.4107 40.649 12.5707 40.7024 12.656C40.7664 12.7413 40.8837 12.784 41.0544 12.784C41.1824 12.784 41.321 12.7733 41.4704 12.752V14.032C41.001 14.1493 40.6064 14.208 40.2864 14.208C39.5077 14.208 39.0597 13.8773 38.9424 13.216C38.249 13.8773 37.2837 14.208 36.0464 14.208C35.193 14.208 34.5157 13.9893 34.0144 13.552C33.513 13.104 33.2624 12.5013 33.2624 11.744C33.2624 11.5093 33.289 11.2907 33.3424 11.088C33.3957 10.8853 33.4544 10.7093 33.5184 10.56C33.593 10.4107 33.705 10.272 33.8544 10.144C34.0144 10.016 34.1424 9.90933 34.2384 9.824C34.345 9.73867 34.5104 9.65867 34.7344 9.584C34.969 9.50933 35.1397 9.456 35.2464 9.424C35.3637 9.38133 35.561 9.33867 35.8384 9.296C36.1157 9.25333 36.297 9.22667 36.3824 9.216C36.4784 9.19467 36.6704 9.168 36.9584 9.136C37.609 9.05067 38.0517 8.98133 38.2864 8.928C38.521 8.864 38.681 8.77333 38.7664 8.656C38.841 8.57067 38.8784 8.37333 38.8784 8.064C38.8784 7.232 38.313 6.816 37.1824 6.816C36.585 6.816 36.1477 6.928 35.8704 7.152C35.593 7.376 35.417 7.75467 35.3424 8.288H33.6144ZM38.8624 9.856C38.7237 9.93067 38.5637 10 38.3824 10.064C38.201 10.1173 38.0517 10.1547 37.9344 10.176C37.8277 10.1867 37.6517 10.208 37.4064 10.24C37.1717 10.272 37.017 10.2933 36.9424 10.304C36.7184 10.336 36.5424 10.368 36.4144 10.4C36.2864 10.4213 36.1264 10.464 35.9344 10.528C35.753 10.592 35.609 10.672 35.5024 10.768C35.4064 10.8533 35.321 10.976 35.2464 11.136C35.1717 11.2853 35.1344 11.4667 35.1344 11.68C35.1344 12.0747 35.2624 12.3787 35.5184 12.592C35.785 12.8053 36.153 12.912 36.6224 12.912C37.433 12.912 38.057 12.6933 38.4944 12.256C38.7397 12.0107 38.8624 11.536 38.8624 10.832V9.856ZM50.153 5.744V13.04C50.153 14.4587 49.849 15.5093 49.241 16.192C48.6437 16.8747 47.625 17.216 46.185 17.216C43.9237 17.216 42.6917 16.3787 42.489 14.704H44.313C44.4837 15.5253 45.1237 15.936 46.233 15.936C46.9903 15.936 47.5397 15.744 47.881 15.36C48.233 14.976 48.409 14.3573 48.409 13.504V12.528C47.8117 13.456 46.937 13.92 45.785 13.92C44.6863 13.92 43.8117 13.552 43.161 12.816C42.521 12.0693 42.201 11.0667 42.201 9.808C42.201 8.51733 42.537 7.48267 43.209 6.704C43.881 5.91467 44.7717 5.52 45.881 5.52C46.4677 5.52 46.9583 5.632 47.353 5.856C47.7477 6.06933 48.1157 6.416 48.457 6.896V5.744H50.153ZM46.201 6.992C45.5183 6.992 44.9797 7.23733 44.585 7.728C44.201 8.21867 44.009 8.90133 44.009 9.776C44.009 10.608 44.2063 11.2693 44.601 11.76C45.0063 12.2507 45.5397 12.496 46.201 12.496C46.8837 12.496 47.4223 12.2453 47.817 11.744C48.2117 11.232 48.409 10.544 48.409 9.68C48.409 8.83733 48.2117 8.18133 47.817 7.712C47.433 7.232 46.8943 6.992 46.201 6.992ZM59.4614 11.424C59.2587 12.32 58.816 13.0187 58.1334 13.52C57.4614 14.0213 56.656 14.272 55.7174 14.272C54.4694 14.272 53.4774 13.872 52.7414 13.072C52.016 12.2613 51.6534 11.2267 51.6534 9.968C51.6534 8.67733 52.0267 7.61067 52.7734 6.768C53.5307 5.92533 54.4907 5.504 55.6534 5.504C56.8587 5.504 57.8134 5.92 58.5174 6.752C59.2214 7.57333 59.5734 8.69867 59.5734 10.128V10.32H53.4774C53.4987 11.152 53.7067 11.7973 54.1014 12.256C54.496 12.704 55.0454 12.928 55.7494 12.928C56.2507 12.928 56.656 12.8107 56.9654 12.576C57.2854 12.3307 57.536 11.9467 57.7174 11.424H59.4614ZM57.7494 9.104C57.696 8.41067 57.4774 7.86667 57.0934 7.472C56.72 7.06667 56.2347 6.864 55.6374 6.864C55.04 6.864 54.5547 7.056 54.1814 7.44C53.8187 7.824 53.5947 8.37867 53.5094 9.104H57.7494Z" fill="#5444F2"/>
</svg>
