<svg width="16" height="16" viewBox="0 0 16 16" fill="none" xmlns="http://www.w3.org/2000/svg">
<path d="M6.66667 12.6667C6.66667 13.4 7.26667 14 8.00001 14C8.73334 14 9.33334 13.4 9.33334 12.6667C9.33334 11.9333 8.73334 11.3333 8.00001 11.3333C7.26667 11.3333 6.66667 11.9333 6.66667 12.6667Z" stroke="black" stroke-width="1.5"/>
<path d="M6.66667 3.33333C6.66667 4.06666 7.26667 4.66666 8.00001 4.66666C8.73334 4.66666 9.33334 4.06666 9.33334 3.33333C9.33334 2.6 8.73334 2 8.00001 2C7.26667 2 6.66667 2.6 6.66667 3.33333Z" stroke="black" stroke-width="1.5"/>
<path d="M6.66667 8C6.66667 8.73334 7.26667 9.33334 8.00001 9.33334C8.73334 9.33334 9.33334 8.73334 9.33334 8C9.33334 7.26667 8.73334 6.66667 8.00001 6.66667C7.26667 6.66667 6.66667 7.26667 6.66667 8Z" stroke="black" stroke-width="1.5"/>
</svg>
