<svg width="100" height="20" viewBox="0 0 100 20" fill="none" xmlns="http://www.w3.org/2000/svg">
<path d="M14.1667 8.33332H15.8334C17.5 8.33332 18.3334 7.49999 18.3334 5.83332V4.16666C18.3334 2.49999 17.5 1.66666 15.8334 1.66666H14.1667C12.5 1.66666 11.6667 2.49999 11.6667 4.16666V5.83332C11.6667 7.49999 12.5 8.33332 14.1667 8.33332Z" stroke="#65717C" stroke-width="1.5" stroke-miterlimit="10" stroke-linecap="round" stroke-linejoin="round"/>
<path d="M4.16669 18.3333H5.83335C7.50002 18.3333 8.33335 17.5 8.33335 15.8333V14.1667C8.33335 12.5 7.50002 11.6667 5.83335 11.6667H4.16669C2.50002 11.6667 1.66669 12.5 1.66669 14.1667V15.8333C1.66669 17.5 2.50002 18.3333 4.16669 18.3333Z" stroke="#65717C" stroke-width="1.5" stroke-miterlimit="10" stroke-linecap="round" stroke-linejoin="round"/>
<path d="M5.00002 8.33332C6.84097 8.33332 8.33335 6.84094 8.33335 4.99999C8.33335 3.15904 6.84097 1.66666 5.00002 1.66666C3.15907 1.66666 1.66669 3.15904 1.66669 4.99999C1.66669 6.84094 3.15907 8.33332 5.00002 8.33332Z" stroke="#65717C" stroke-width="1.5" stroke-miterlimit="10" stroke-linecap="round" stroke-linejoin="round"/>
<path d="M15 18.3333C16.841 18.3333 18.3334 16.8409 18.3334 15C18.3334 13.159 16.841 11.6667 15 11.6667C13.1591 11.6667 11.6667 13.159 11.6667 15C11.6667 16.8409 13.1591 18.3333 15 18.3333Z" stroke="#65717C" stroke-width="1.5" stroke-miterlimit="10" stroke-linecap="round" stroke-linejoin="round"/>
<path d="M38.064 2.336C39.792 2.336 41.136 2.88 42.096 3.968C43.056 5.04533 43.536 6.45867 43.536 8.208C43.536 9.968 43.0613 11.4187 42.112 12.56C41.1627 13.7013 39.8187 14.272 38.08 14.272C37.1947 14.272 36.4 14.112 35.696 13.792C34.992 13.472 34.416 13.0293 33.968 12.464C33.5307 11.8987 33.1947 11.2533 32.96 10.528C32.736 9.80267 32.624 9.01867 32.624 8.176C32.624 6.39467 33.1147 4.976 34.096 3.92C35.088 2.864 36.4107 2.336 38.064 2.336ZM38.064 3.648C36.7947 3.648 35.8187 4.096 35.136 4.992C34.464 5.87733 34.128 6.976 34.128 8.288C34.128 9.71733 34.4853 10.8587 35.2 11.712C35.9253 12.5547 36.8907 12.976 38.096 12.976C39.2907 12.976 40.2453 12.5493 40.96 11.696C41.6747 10.8427 42.032 9.70667 42.032 8.288C42.032 6.88 41.6693 5.75467 40.944 4.912C40.2293 4.06933 39.2693 3.648 38.064 3.648ZM44.3803 5.744H45.9003L48.2363 12.672L50.5083 5.744H51.9323L48.9083 14H47.4523L44.3803 5.744ZM60.2362 11.392C59.8203 13.312 58.6203 14.272 56.6363 14.272C55.4203 14.272 54.4656 13.8933 53.7723 13.136C53.0896 12.3787 52.7483 11.328 52.7483 9.984C52.7483 8.65067 53.1003 7.57333 53.8043 6.752C54.5189 5.92 55.4469 5.504 56.5883 5.504C57.8576 5.504 58.7963 5.936 59.4043 6.8C60.0229 7.65333 60.3323 8.736 60.3323 10.048V10.24H54.1243L54.1083 10.336C54.1083 11.2107 54.3376 11.8987 54.7963 12.4C55.2549 12.9013 55.8843 13.152 56.6843 13.152C57.2816 13.152 57.7509 13.0133 58.0923 12.736C58.4443 12.4587 58.7163 12.0107 58.9083 11.392H60.2362ZM58.9243 9.136C58.8603 8.34667 58.6203 7.73333 58.2043 7.296C57.7883 6.848 57.2389 6.624 56.5563 6.624C55.8949 6.624 55.3456 6.848 54.9083 7.296C54.4709 7.744 54.2096 8.35733 54.1243 9.136H58.9243ZM66.078 5.552V6.96C65.982 6.94933 65.8647 6.944 65.726 6.944C65.2887 6.944 64.91 7.01333 64.59 7.152C64.27 7.28 64.014 7.45067 63.822 7.664C63.6407 7.87733 63.4913 8.144 63.374 8.464C63.2567 8.784 63.1767 9.104 63.134 9.424C63.102 9.744 63.086 10.1067 63.086 10.512V14H61.726V5.744H63.022V7.52C63.566 6.208 64.5847 5.552 66.078 5.552ZM66.3021 5.744H67.8221L70.1581 12.672L72.4301 5.744H73.8541L70.8301 14H69.3741L66.3021 5.744ZM76.5421 2.608V4.272H75.1661V2.608H76.5421ZM76.5421 5.744V14H75.1661V5.744H76.5421ZM85.705 11.392C85.289 13.312 84.089 14.272 82.105 14.272C80.889 14.272 79.9343 13.8933 79.241 13.136C78.5583 12.3787 78.217 11.328 78.217 9.984C78.217 8.65067 78.569 7.57333 79.273 6.752C79.9877 5.92 80.9157 5.504 82.057 5.504C83.3263 5.504 84.265 5.936 84.873 6.8C85.4917 7.65333 85.801 8.736 85.801 10.048V10.24H79.593L79.577 10.336C79.577 11.2107 79.8063 11.8987 80.265 12.4C80.7237 12.9013 81.353 13.152 82.153 13.152C82.7503 13.152 83.2197 13.0133 83.561 12.736C83.913 12.4587 84.185 12.0107 84.377 11.392H85.705ZM84.393 9.136C84.329 8.34667 84.089 7.73333 83.673 7.296C83.257 6.848 82.7077 6.624 82.025 6.624C81.3637 6.624 80.8143 6.848 80.377 7.296C79.9397 7.744 79.6783 8.35733 79.593 9.136H84.393ZM86.4908 5.744H87.9948L89.8828 12.544L91.5628 5.744H93.0508L94.7948 12.544L96.6668 5.744H98.0748L95.4348 14H93.9948L92.2988 7.472L90.6188 14H89.1468L86.4908 5.744Z" fill="#65717C"/>
</svg>
