<svg width="474" height="44" viewBox="0 0 474 44" fill="none" xmlns="http://www.w3.org/2000/svg">
<rect x="0.25" y="0.25" width="473.5" height="43.5" rx="7.75" fill="white" stroke="#E1E1E1" stroke-width="0.5"/>
<path d="M452.667 28C456.164 28 459 25.1645 459 21.6667C459 18.1689 456.164 15.3333 452.667 15.3333C449.169 15.3333 446.333 18.1689 446.333 21.6667C446.333 25.1645 449.169 28 452.667 28Z" stroke="#65717C" stroke-width="1.5" stroke-linecap="round" stroke-linejoin="round"/>
<path d="M459.667 28.6667L458.333 27.3333" stroke="#65717C" stroke-width="1.5" stroke-linecap="round" stroke-linejoin="round"/>
<path d="M24.328 17.952H22.872C22.712 16.4053 21.768 15.632 20.04 15.632C19.2187 15.632 18.584 15.7973 18.136 16.128C17.688 16.4587 17.464 16.9227 17.464 17.52C17.464 17.7333 17.496 17.92 17.56 18.08C17.624 18.24 17.7307 18.384 17.88 18.512C18.04 18.6293 18.1893 18.7307 18.328 18.816C18.4667 18.9013 18.6853 18.9867 18.984 19.072C19.2827 19.1573 19.5227 19.2213 19.704 19.264C19.8853 19.296 20.168 19.3547 20.552 19.44C21.0213 19.536 21.4107 19.6267 21.72 19.712C22.0293 19.7867 22.3973 19.9147 22.824 20.096C23.2507 20.2773 23.5867 20.48 23.832 20.704C24.088 20.9173 24.3067 21.2053 24.488 21.568C24.68 21.9307 24.776 22.3413 24.776 22.8C24.776 23.6 24.552 24.272 24.104 24.816C23.656 25.3493 23.112 25.7227 22.472 25.936C21.832 26.1493 21.1227 26.256 20.344 26.256C18.9147 26.256 17.768 25.92 16.904 25.248C16.0507 24.5653 15.624 23.5627 15.624 22.24H17.08C17.112 23.2107 17.4373 23.92 18.056 24.368C18.6747 24.8053 19.48 25.024 20.472 25.024C21.2507 25.024 21.9173 24.864 22.472 24.544C23.0267 24.2133 23.304 23.68 23.304 22.944C23.304 22.6027 23.2293 22.3147 23.08 22.08C22.9307 21.8347 22.696 21.6373 22.376 21.488C22.056 21.328 21.736 21.2 21.416 21.104C21.096 21.008 20.6747 20.9013 20.152 20.784C20.0773 20.7733 20.024 20.7627 19.992 20.752C18.8187 20.4853 18.0507 20.272 17.688 20.112C16.5787 19.632 16.024 18.8053 16.024 17.632C16.024 16.544 16.424 15.7333 17.224 15.2C18.0347 14.656 19.0107 14.384 20.152 14.384C21.4 14.384 22.3973 14.6827 23.144 15.28C23.8907 15.8773 24.2853 16.768 24.328 17.952ZM33.455 23.392C33.039 25.312 31.839 26.272 29.855 26.272C28.639 26.272 27.6843 25.8933 26.991 25.136C26.3083 24.3787 25.967 23.328 25.967 21.984C25.967 20.6507 26.319 19.5733 27.023 18.752C27.7377 17.92 28.6657 17.504 29.807 17.504C31.0763 17.504 32.015 17.936 32.623 18.8C33.2417 19.6533 33.551 20.736 33.551 22.048V22.24H27.343L27.327 22.336C27.327 23.2107 27.5563 23.8987 28.015 24.4C28.4737 24.9013 29.103 25.152 29.903 25.152C30.5003 25.152 30.9697 25.0133 31.311 24.736C31.663 24.4587 31.935 24.0107 32.127 23.392H33.455ZM32.143 21.136C32.079 20.3467 31.839 19.7333 31.423 19.296C31.007 18.848 30.4577 18.624 29.775 18.624C29.1137 18.624 28.5643 18.848 28.127 19.296C27.6897 19.744 27.4283 20.3573 27.343 21.136H32.143ZM42.3048 24.912V25.968C42.0274 26.0747 41.7181 26.128 41.3768 26.128C40.5981 26.128 40.1981 25.7227 40.1768 24.912C39.3981 25.7867 38.4008 26.224 37.1848 26.224C36.3741 26.224 35.7288 26.016 35.2488 25.6C34.7794 25.184 34.5448 24.6133 34.5448 23.888C34.5448 22.416 35.5208 21.5573 37.4728 21.312C37.6008 21.2907 37.7874 21.2693 38.0328 21.248C38.9608 21.1413 39.5314 21.0187 39.7448 20.88C39.9901 20.7093 40.1128 20.416 40.1128 20C40.1128 19.0933 39.4888 18.64 38.2408 18.64C37.6008 18.64 37.1154 18.7733 36.7848 19.04C36.4541 19.296 36.2568 19.7227 36.1928 20.32H34.8648C34.8861 19.4347 35.2008 18.7467 35.8088 18.256C36.4168 17.7653 37.2541 17.52 38.3208 17.52C39.4834 17.52 40.3474 17.7867 40.9128 18.32C41.0941 18.4907 41.2274 18.7147 41.3128 18.992C41.3981 19.2693 41.4461 19.4987 41.4568 19.68C41.4674 19.8507 41.4728 20.112 41.4728 20.464C41.4728 20.8693 41.4621 21.4827 41.4408 22.304C41.4194 23.1253 41.4088 23.7387 41.4088 24.144C41.4088 24.4427 41.4461 24.656 41.5208 24.784C41.6061 24.9013 41.7554 24.96 41.9688 24.96C42.0541 24.96 42.1661 24.944 42.3048 24.912ZM40.1128 21.712C40.0168 21.7867 39.9154 21.8507 39.8088 21.904C39.7021 21.9573 39.5634 22 39.3928 22.032C39.2328 22.064 39.1208 22.0907 39.0568 22.112C39.0034 22.1227 38.8648 22.144 38.6408 22.176C38.4168 22.1973 38.2994 22.208 38.2888 22.208C37.9581 22.2507 37.7394 22.2827 37.6328 22.304C37.5368 22.3147 37.3448 22.3573 37.0568 22.432C36.7794 22.5067 36.5821 22.592 36.4648 22.688C36.3474 22.784 36.2301 22.928 36.1128 23.12C36.0061 23.3013 35.9528 23.52 35.9528 23.776C35.9528 24.2027 36.0968 24.5387 36.3848 24.784C36.6834 25.0293 37.0888 25.152 37.6008 25.152C38.2514 25.152 38.8328 24.96 39.3448 24.576C39.8568 24.192 40.1128 23.7387 40.1128 23.216V21.712ZM47.8905 17.552V18.96C47.7945 18.9493 47.6772 18.944 47.5385 18.944C47.1012 18.944 46.7225 19.0133 46.4025 19.152C46.0825 19.28 45.8265 19.4507 45.6345 19.664C45.4532 19.8773 45.3038 20.144 45.1865 20.464C45.0692 20.784 44.9892 21.104 44.9465 21.424C44.9145 21.744 44.8985 22.1067 44.8985 22.512V26H43.5385V17.744H44.8345V19.52C45.3785 18.208 46.3972 17.552 47.8905 17.552ZM55.7374 22.992C55.62 23.984 55.2414 24.7733 54.6014 25.36C53.972 25.9467 53.1507 26.24 52.1374 26.24C50.8894 26.24 49.924 25.856 49.2414 25.088C48.5587 24.3093 48.2174 23.2747 48.2174 21.984C48.2174 20.608 48.5747 19.52 49.2894 18.72C50.004 17.9093 50.9694 17.504 52.1854 17.504C53.1987 17.504 54.0094 17.76 54.6174 18.272C55.2254 18.7733 55.5827 19.4933 55.6894 20.432H54.2814C54.036 19.2373 53.3427 18.64 52.2014 18.64C51.412 18.64 50.788 18.9333 50.3294 19.52C49.8707 20.096 49.6414 20.88 49.6414 21.872C49.6414 22.8747 49.86 23.664 50.2974 24.24C50.7347 24.816 51.3374 25.104 52.1054 25.104C52.724 25.104 53.2254 24.9227 53.6094 24.56C54.004 24.1973 54.2547 23.6747 54.3614 22.992H55.7374ZM58.5871 14.608V18.912C59.1951 17.9947 60.0965 17.536 61.2911 17.536C63.1471 17.536 64.0751 18.4747 64.0751 20.352V26H62.7151V20.672C62.7151 20.0427 62.5818 19.5627 62.3151 19.232C62.0591 18.8907 61.5898 18.72 60.9071 18.72C60.0751 18.72 59.4778 18.9867 59.1151 19.52C58.7631 20.0533 58.5871 20.816 58.5871 21.808V26H57.2271V14.608H58.5871ZM74.2989 14.576V15.76C74.0642 15.7173 73.8135 15.696 73.5469 15.696C73.1202 15.696 72.8375 15.7653 72.6989 15.904C72.5709 16.0427 72.5069 16.3413 72.5069 16.8V17.744H74.0909V18.864H72.5069V26H71.1309V18.864H69.7389V17.744H71.1309V16.64C71.1309 15.8933 71.3229 15.3547 71.7069 15.024C72.0909 14.6827 72.6615 14.512 73.4189 14.512C73.6535 14.512 73.9469 14.5333 74.2989 14.576ZM75.9613 18.688C76.6866 17.8987 77.6733 17.504 78.9213 17.504C80.1693 17.504 81.1399 17.8827 81.8333 18.64C82.5266 19.3973 82.8733 20.4587 82.8733 21.824C82.8733 23.2213 82.5266 24.3093 81.8333 25.088C81.1399 25.8667 80.1639 26.256 78.9053 26.256C77.6466 26.256 76.6599 25.872 75.9453 25.104C75.2306 24.336 74.8733 23.2693 74.8733 21.904C74.8733 20.5493 75.2359 19.4773 75.9613 18.688ZM80.7773 19.52C80.3186 18.9333 79.6893 18.64 78.8893 18.64C78.0893 18.64 77.4546 18.9333 76.9853 19.52C76.5159 20.1067 76.2812 20.8907 76.2812 21.872C76.2812 22.8853 76.5106 23.68 76.9693 24.256C77.4386 24.8213 78.0893 25.104 78.9213 25.104C79.7213 25.104 80.3453 24.816 80.7933 24.24C81.2519 23.664 81.4813 22.8693 81.4813 21.856C81.4813 20.8747 81.2466 20.096 80.7773 19.52ZM88.7968 17.552V18.96C88.7008 18.9493 88.5834 18.944 88.4448 18.944C88.0074 18.944 87.6288 19.0133 87.3088 19.152C86.9888 19.28 86.7328 19.4507 86.5408 19.664C86.3594 19.8773 86.2101 20.144 86.0928 20.464C85.9754 20.784 85.8954 21.104 85.8528 21.424C85.8208 21.744 85.8048 22.1067 85.8048 22.512V26H84.4448V17.744H85.7408V19.52C86.2848 18.208 87.3034 17.552 88.7968 17.552ZM93.474 17.744H94.994L97.33 24.672L99.602 17.744H101.026L98.002 26H96.546L93.474 17.744ZM103.714 14.608V16.272H102.338V14.608H103.714ZM103.714 17.744V26H102.338V17.744H103.714ZM110.125 17.552V18.96C110.029 18.9493 109.912 18.944 109.773 18.944C109.336 18.944 108.957 19.0133 108.637 19.152C108.317 19.28 108.061 19.4507 107.869 19.664C107.688 19.8773 107.538 20.144 107.421 20.464C107.304 20.784 107.224 21.104 107.181 21.424C107.149 21.744 107.133 22.1067 107.133 22.512V26H105.773V17.744H107.069V19.52C107.613 18.208 108.632 17.552 110.125 17.552ZM114.685 17.744V18.864H113.037V23.68C113.037 23.9467 113.037 24.1227 113.037 24.208C113.048 24.2933 113.08 24.4107 113.133 24.56C113.186 24.6987 113.277 24.7893 113.405 24.832C113.533 24.8747 113.714 24.896 113.949 24.896C114.152 24.896 114.397 24.88 114.685 24.848V26.016C114.301 26.0587 113.954 26.08 113.645 26.08C113.261 26.08 112.941 26.0373 112.685 25.952C112.429 25.8667 112.232 25.7707 112.093 25.664C111.965 25.5573 111.869 25.3707 111.805 25.104C111.741 24.8267 111.704 24.5973 111.693 24.416C111.682 24.224 111.677 23.9093 111.677 23.472C111.677 23.44 111.677 23.4187 111.677 23.408C111.677 23.3867 111.677 23.36 111.677 23.328C111.677 23.296 111.677 23.2693 111.677 23.248V18.864H110.285V17.744H111.677V15.296H113.037V17.744H114.685ZM123.044 17.744V26H121.78V24.704C121.076 25.7173 120.127 26.224 118.932 26.224C118.057 26.224 117.38 25.984 116.9 25.504C116.42 25.024 116.18 24.3307 116.18 23.424V17.744H117.54V23.056C117.54 23.7067 117.663 24.2027 117.908 24.544C118.164 24.8747 118.617 25.04 119.268 25.04C120.879 25.04 121.684 24.048 121.684 22.064V17.744H123.044ZM132.399 24.912V25.968C132.121 26.0747 131.812 26.128 131.471 26.128C130.692 26.128 130.292 25.7227 130.271 24.912C129.492 25.7867 128.495 26.224 127.279 26.224C126.468 26.224 125.823 26.016 125.343 25.6C124.873 25.184 124.639 24.6133 124.639 23.888C124.639 22.416 125.615 21.5573 127.567 21.312C127.695 21.2907 127.881 21.2693 128.127 21.248C129.055 21.1413 129.625 21.0187 129.839 20.88C130.084 20.7093 130.207 20.416 130.207 20C130.207 19.0933 129.583 18.64 128.335 18.64C127.695 18.64 127.209 18.7733 126.879 19.04C126.548 19.296 126.351 19.7227 126.287 20.32H124.959C124.98 19.4347 125.295 18.7467 125.903 18.256C126.511 17.7653 127.348 17.52 128.415 17.52C129.577 17.52 130.441 17.7867 131.007 18.32C131.188 18.4907 131.321 18.7147 131.407 18.992C131.492 19.2693 131.54 19.4987 131.551 19.68C131.561 19.8507 131.567 20.112 131.567 20.464C131.567 20.8693 131.556 21.4827 131.535 22.304C131.513 23.1253 131.503 23.7387 131.503 24.144C131.503 24.4427 131.54 24.656 131.615 24.784C131.7 24.9013 131.849 24.96 132.062 24.96C132.148 24.96 132.26 24.944 132.399 24.912ZM130.207 21.712C130.111 21.7867 130.009 21.8507 129.903 21.904C129.796 21.9573 129.657 22 129.487 22.032C129.327 22.064 129.215 22.0907 129.151 22.112C129.097 22.1227 128.959 22.144 128.735 22.176C128.511 22.1973 128.393 22.208 128.383 22.208C128.052 22.2507 127.833 22.2827 127.727 22.304C127.631 22.3147 127.439 22.3573 127.151 22.432C126.873 22.5067 126.676 22.592 126.559 22.688C126.441 22.784 126.324 22.928 126.207 23.12C126.1 23.3013 126.047 23.52 126.047 23.776C126.047 24.2027 126.191 24.5387 126.479 24.784C126.777 25.0293 127.183 25.152 127.695 25.152C128.345 25.152 128.927 24.96 129.439 24.576C129.951 24.192 130.207 23.7387 130.207 23.216V21.712ZM135.12 14.608V26H133.744V14.608H135.12ZM148.992 24.912V25.968C148.715 26.0747 148.406 26.128 148.064 26.128C147.286 26.128 146.886 25.7227 146.864 24.912C146.086 25.7867 145.088 26.224 143.872 26.224C143.062 26.224 142.416 26.016 141.936 25.6C141.467 25.184 141.232 24.6133 141.232 23.888C141.232 22.416 142.208 21.5573 144.16 21.312C144.288 21.2907 144.475 21.2693 144.72 21.248C145.648 21.1413 146.219 21.0187 146.432 20.88C146.678 20.7093 146.8 20.416 146.8 20C146.8 19.0933 146.176 18.64 144.928 18.64C144.288 18.64 143.803 18.7733 143.472 19.04C143.142 19.296 142.944 19.7227 142.88 20.32H141.552C141.574 19.4347 141.888 18.7467 142.496 18.256C143.104 17.7653 143.942 17.52 145.008 17.52C146.171 17.52 147.035 17.7867 147.6 18.32C147.782 18.4907 147.915 18.7147 148 18.992C148.086 19.2693 148.134 19.4987 148.144 19.68C148.155 19.8507 148.16 20.112 148.16 20.464C148.16 20.8693 148.15 21.4827 148.128 22.304C148.107 23.1253 148.096 23.7387 148.096 24.144C148.096 24.4427 148.134 24.656 148.208 24.784C148.294 24.9013 148.443 24.96 148.656 24.96C148.742 24.96 148.854 24.944 148.992 24.912ZM146.8 21.712C146.704 21.7867 146.603 21.8507 146.496 21.904C146.39 21.9573 146.251 22 146.08 22.032C145.92 22.064 145.808 22.0907 145.744 22.112C145.691 22.1227 145.552 22.144 145.328 22.176C145.104 22.1973 144.987 22.208 144.976 22.208C144.646 22.2507 144.427 22.2827 144.32 22.304C144.224 22.3147 144.032 22.3573 143.744 22.432C143.467 22.5067 143.27 22.592 143.152 22.688C143.035 22.784 142.918 22.928 142.8 23.12C142.694 23.3013 142.64 23.52 142.64 23.776C142.64 24.2027 142.784 24.5387 143.072 24.784C143.371 25.0293 143.776 25.152 144.288 25.152C144.939 25.152 145.52 24.96 146.032 24.576C146.544 24.192 146.8 23.7387 146.8 23.216V21.712ZM157.378 22.992C157.261 23.984 156.882 24.7733 156.242 25.36C155.613 25.9467 154.791 26.24 153.778 26.24C152.53 26.24 151.565 25.856 150.882 25.088C150.199 24.3093 149.858 23.2747 149.858 21.984C149.858 20.608 150.215 19.52 150.93 18.72C151.645 17.9093 152.61 17.504 153.826 17.504C154.839 17.504 155.65 17.76 156.258 18.272C156.866 18.7733 157.223 19.4933 157.33 20.432H155.922C155.677 19.2373 154.983 18.64 153.842 18.64C153.053 18.64 152.429 18.9333 151.97 19.52C151.511 20.096 151.282 20.88 151.282 21.872C151.282 22.8747 151.501 23.664 151.938 24.24C152.375 24.816 152.978 25.104 153.746 25.104C154.365 25.104 154.866 24.9227 155.25 24.56C155.645 24.1973 155.895 23.6747 156.002 22.992H157.378ZM165.972 22.992C165.854 23.984 165.476 24.7733 164.836 25.36C164.206 25.9467 163.385 26.24 162.372 26.24C161.124 26.24 160.158 25.856 159.476 25.088C158.793 24.3093 158.452 23.2747 158.452 21.984C158.452 20.608 158.809 19.52 159.524 18.72C160.238 17.9093 161.204 17.504 162.42 17.504C163.433 17.504 164.244 17.76 164.852 18.272C165.46 18.7733 165.817 19.4933 165.924 20.432H164.516C164.27 19.2373 163.577 18.64 162.436 18.64C161.646 18.64 161.022 18.9333 160.564 19.52C160.105 20.096 159.876 20.88 159.876 21.872C159.876 22.8747 160.094 23.664 160.532 24.24C160.969 24.816 161.572 25.104 162.34 25.104C162.958 25.104 163.46 24.9227 163.844 24.56C164.238 24.1973 164.489 23.6747 164.596 22.992H165.972ZM168.118 18.688C168.843 17.8987 169.83 17.504 171.078 17.504C172.326 17.504 173.296 17.8827 173.99 18.64C174.683 19.3973 175.03 20.4587 175.03 21.824C175.03 23.2213 174.683 24.3093 173.99 25.088C173.296 25.8667 172.32 26.256 171.062 26.256C169.803 26.256 168.816 25.872 168.102 25.104C167.387 24.336 167.03 23.2693 167.03 21.904C167.03 20.5493 167.392 19.4773 168.118 18.688ZM172.934 19.52C172.475 18.9333 171.846 18.64 171.046 18.64C170.246 18.64 169.611 18.9333 169.142 19.52C168.672 20.1067 168.438 20.8907 168.438 21.872C168.438 22.8853 168.667 23.68 169.126 24.256C169.595 24.8213 170.246 25.104 171.078 25.104C171.878 25.104 172.502 24.816 172.95 24.24C173.408 23.664 173.638 22.8693 173.638 21.856C173.638 20.8747 173.403 20.096 172.934 19.52ZM183.497 17.744V26H182.233V24.704C181.529 25.7173 180.58 26.224 179.385 26.224C178.51 26.224 177.833 25.984 177.353 25.504C176.873 25.024 176.633 24.3307 176.633 23.424V17.744H177.993V23.056C177.993 23.7067 178.116 24.2027 178.361 24.544C178.617 24.8747 179.07 25.04 179.721 25.04C181.332 25.04 182.137 24.048 182.137 22.064V17.744H183.497ZM186.82 17.744V19.024C187.502 18.0213 188.441 17.52 189.636 17.52C190.606 17.52 191.305 17.776 191.732 18.288C192.169 18.7893 192.388 19.5307 192.388 20.512V26H191.028V21.136C191.028 20.7307 191.012 20.416 190.98 20.192C190.958 19.9573 190.894 19.712 190.788 19.456C190.681 19.1893 190.5 18.9973 190.244 18.88C189.988 18.7627 189.657 18.704 189.252 18.704C187.684 18.704 186.9 19.696 186.9 21.68V26H185.54V17.744H186.82ZM197.966 17.744V18.864H196.318V23.68C196.318 23.9467 196.318 24.1227 196.318 24.208C196.329 24.2933 196.361 24.4107 196.414 24.56C196.468 24.6987 196.558 24.7893 196.686 24.832C196.814 24.8747 196.996 24.896 197.23 24.896C197.433 24.896 197.678 24.88 197.966 24.848V26.016C197.582 26.0587 197.236 26.08 196.926 26.08C196.542 26.08 196.222 26.0373 195.966 25.952C195.71 25.8667 195.513 25.7707 195.374 25.664C195.246 25.5573 195.15 25.3707 195.086 25.104C195.022 24.8267 194.985 24.5973 194.974 24.416C194.964 24.224 194.958 23.9093 194.958 23.472C194.958 23.44 194.958 23.4187 194.958 23.408C194.958 23.3867 194.958 23.36 194.958 23.328C194.958 23.296 194.958 23.2693 194.958 23.248V18.864H193.566V17.744H194.958V15.296H196.318V17.744H197.966Z" fill="#65717C"/>
</svg>
