<svg width="91" height="20" viewBox="0 0 91 20" fill="none" xmlns="http://www.w3.org/2000/svg">
<path d="M10 12.5C11.3807 12.5 12.5 11.3807 12.5 10C12.5 8.61929 11.3807 7.5 10 7.5C8.61929 7.5 7.5 8.61929 7.5 10C7.5 11.3807 8.61929 12.5 10 12.5Z" stroke="#65717C" stroke-width="1.5" stroke-miterlimit="10" stroke-linecap="round" stroke-linejoin="round"/>
<path d="M1.66669 10.7333V9.26666C1.66669 8.4 2.37502 7.68333 3.25002 7.68333C4.75835 7.68333 5.37502 6.61666 4.61669 5.30833C4.18335 4.55833 4.44169 3.58333 5.20002 3.15L6.64169 2.325C7.30002 1.93333 8.15002 2.16666 8.54169 2.825L8.63335 2.98333C9.38335 4.29166 10.6167 4.29166 11.375 2.98333L11.4667 2.825C11.8584 2.16666 12.7084 1.93333 13.3667 2.325L14.8084 3.15C15.5667 3.58333 15.825 4.55833 15.3917 5.30833C14.6334 6.61666 15.25 7.68333 16.7584 7.68333C17.625 7.68333 18.3417 8.39166 18.3417 9.26666V10.7333C18.3417 11.6 17.6334 12.3167 16.7584 12.3167C15.25 12.3167 14.6334 13.3833 15.3917 14.6917C15.825 15.45 15.5667 16.4167 14.8084 16.85L13.3667 17.675C12.7084 18.0667 11.8584 17.8333 11.4667 17.175L11.375 17.0167C10.625 15.7083 9.39169 15.7083 8.63335 17.0167L8.54169 17.175C8.15002 17.8333 7.30002 18.0667 6.64169 17.675L5.20002 16.85C4.44169 16.4167 4.18335 15.4417 4.61669 14.6917C5.37502 13.3833 4.75835 12.3167 3.25002 12.3167C2.37502 12.3167 1.66669 11.6 1.66669 10.7333Z" stroke="#65717C" stroke-width="1.5" stroke-miterlimit="10" stroke-linecap="round" stroke-linejoin="round"/>
<path d="M41.328 5.952H39.872C39.712 4.40533 38.768 3.632 37.04 3.632C36.2187 3.632 35.584 3.79733 35.136 4.128C34.688 4.45867 34.464 4.92267 34.464 5.52C34.464 5.73333 34.496 5.92 34.56 6.08C34.624 6.24 34.7307 6.384 34.88 6.512C35.04 6.62933 35.1893 6.73067 35.328 6.816C35.4667 6.90133 35.6853 6.98667 35.984 7.072C36.2827 7.15733 36.5227 7.22133 36.704 7.264C36.8853 7.296 37.168 7.35467 37.552 7.44C38.0213 7.536 38.4107 7.62667 38.72 7.712C39.0293 7.78667 39.3973 7.91467 39.824 8.096C40.2507 8.27733 40.5867 8.48 40.832 8.704C41.088 8.91733 41.3067 9.20533 41.488 9.568C41.68 9.93067 41.776 10.3413 41.776 10.8C41.776 11.6 41.552 12.272 41.104 12.816C40.656 13.3493 40.112 13.7227 39.472 13.936C38.832 14.1493 38.1227 14.256 37.344 14.256C35.9147 14.256 34.768 13.92 33.904 13.248C33.0507 12.5653 32.624 11.5627 32.624 10.24H34.08C34.112 11.2107 34.4373 11.92 35.056 12.368C35.6747 12.8053 36.48 13.024 37.472 13.024C38.2507 13.024 38.9173 12.864 39.472 12.544C40.0267 12.2133 40.304 11.68 40.304 10.944C40.304 10.6027 40.2293 10.3147 40.08 10.08C39.9307 9.83467 39.696 9.63733 39.376 9.488C39.056 9.328 38.736 9.2 38.416 9.104C38.096 9.008 37.6747 8.90133 37.152 8.784C37.0773 8.77333 37.024 8.76267 36.992 8.752C35.8187 8.48533 35.0507 8.272 34.688 8.112C33.5787 7.632 33.024 6.80533 33.024 5.632C33.024 4.544 33.424 3.73333 34.224 3.2C35.0347 2.656 36.0107 2.384 37.152 2.384C38.4 2.384 39.3973 2.68267 40.144 3.28C40.8907 3.87733 41.2853 4.768 41.328 5.952ZM50.455 11.392C50.039 13.312 48.839 14.272 46.855 14.272C45.639 14.272 44.6843 13.8933 43.991 13.136C43.3083 12.3787 42.967 11.328 42.967 9.984C42.967 8.65067 43.319 7.57333 44.023 6.752C44.7377 5.92 45.6657 5.504 46.807 5.504C48.0763 5.504 49.015 5.936 49.623 6.8C50.2417 7.65333 50.551 8.736 50.551 10.048V10.24H44.343L44.327 10.336C44.327 11.2107 44.5563 11.8987 45.015 12.4C45.4737 12.9013 46.103 13.152 46.903 13.152C47.5003 13.152 47.9697 13.0133 48.311 12.736C48.663 12.4587 48.935 12.0107 49.127 11.392H50.455ZM49.143 9.136C49.079 8.34667 48.839 7.73333 48.423 7.296C48.007 6.848 47.4577 6.624 46.775 6.624C46.1137 6.624 45.5643 6.848 45.127 7.296C44.6897 7.744 44.4283 8.35733 44.343 9.136H49.143ZM55.5288 5.744V6.864H53.8808V11.68C53.8808 11.9467 53.8808 12.1227 53.8808 12.208C53.8914 12.2933 53.9234 12.4107 53.9768 12.56C54.0301 12.6987 54.1208 12.7893 54.2488 12.832C54.3768 12.8747 54.5581 12.896 54.7928 12.896C54.9954 12.896 55.2408 12.88 55.5288 12.848V14.016C55.1448 14.0587 54.7981 14.08 54.4888 14.08C54.1048 14.08 53.7848 14.0373 53.5288 13.952C53.2728 13.8667 53.0754 13.7707 52.9368 13.664C52.8088 13.5573 52.7128 13.3707 52.6488 13.104C52.5848 12.8267 52.5474 12.5973 52.5368 12.416C52.5261 12.224 52.5208 11.9093 52.5208 11.472C52.5208 11.44 52.5208 11.4187 52.5208 11.408C52.5208 11.3867 52.5208 11.36 52.5208 11.328C52.5208 11.296 52.5208 11.2693 52.5208 11.248V6.864H51.1288V5.744H52.5208V3.296H53.8808V5.744H55.5288ZM60.5756 5.744V6.864H58.9276V11.68C58.9276 11.9467 58.9276 12.1227 58.9276 12.208C58.9383 12.2933 58.9703 12.4107 59.0236 12.56C59.077 12.6987 59.1676 12.7893 59.2956 12.832C59.4236 12.8747 59.605 12.896 59.8396 12.896C60.0423 12.896 60.2876 12.88 60.5756 12.848V14.016C60.1916 14.0587 59.845 14.08 59.5356 14.08C59.1516 14.08 58.8316 14.0373 58.5756 13.952C58.3196 13.8667 58.1223 13.7707 57.9836 13.664C57.8556 13.5573 57.7596 13.3707 57.6956 13.104C57.6316 12.8267 57.5943 12.5973 57.5836 12.416C57.573 12.224 57.5676 11.9093 57.5676 11.472C57.5676 11.44 57.5676 11.4187 57.5676 11.408C57.5676 11.3867 57.5676 11.36 57.5676 11.328C57.5676 11.296 57.5676 11.2693 57.5676 11.248V6.864H56.1756V5.744H57.5676V3.296H58.9276V5.744H60.5756ZM63.5265 2.608V4.272H62.1505V2.608H63.5265ZM63.5265 5.744V14H62.1505V5.744H63.5265ZM66.9134 5.744V7.024C67.596 6.02133 68.5347 5.52 69.7294 5.52C70.7 5.52 71.3987 5.776 71.8254 6.288C72.2627 6.78933 72.4814 7.53067 72.4814 8.512V14H71.1214V9.136C71.1214 8.73067 71.1054 8.416 71.0734 8.192C71.052 7.95733 70.988 7.712 70.8814 7.456C70.7747 7.18933 70.5934 6.99733 70.3374 6.88C70.0814 6.76267 69.7507 6.704 69.3454 6.704C67.7774 6.704 66.9934 7.696 66.9934 9.68V14H65.6334V5.744H66.9134ZM81.676 5.744V13.104C81.676 13.8187 81.6387 14.368 81.564 14.752C81.4893 15.1467 81.3507 15.5147 81.148 15.856C80.54 16.8587 79.452 17.36 77.884 17.36C76.956 17.36 76.172 17.168 75.532 16.784C74.892 16.4107 74.5187 15.792 74.412 14.928H75.804C75.964 15.8453 76.6733 16.304 77.932 16.304C78.7747 16.304 79.3827 16.0907 79.756 15.664C80.14 15.2373 80.3427 14.5493 80.364 13.6L80.38 12.592C79.8573 13.5947 78.9827 14.096 77.756 14.096C76.6467 14.096 75.7613 13.7173 75.1 12.96C74.4493 12.2027 74.124 11.184 74.124 9.904C74.124 8.69867 74.4493 7.66933 75.1 6.816C75.7507 5.952 76.6573 5.52 77.82 5.52C78.396 5.52 78.908 5.64267 79.356 5.888C79.8147 6.13333 80.172 6.48533 80.428 6.944V5.744H81.676ZM77.884 6.704C77.148 6.704 76.5667 6.992 76.14 7.568C75.724 8.13333 75.516 8.91733 75.516 9.92C75.516 10.8267 75.7347 11.5573 76.172 12.112C76.6093 12.656 77.1907 12.928 77.916 12.928C78.6733 12.928 79.2653 12.64 79.692 12.064C80.1293 11.488 80.348 10.6987 80.348 9.696C80.348 8.75733 80.1293 8.02667 79.692 7.504C79.2653 6.97067 78.6627 6.704 77.884 6.704ZM89.8395 8.144H88.4795C88.3942 7.14133 87.7222 6.64 86.4635 6.64C85.9408 6.64 85.5302 6.74133 85.2315 6.944C84.9328 7.14667 84.7835 7.41867 84.7835 7.76C84.7835 7.856 84.7942 7.952 84.8155 8.048C84.8368 8.13333 84.8742 8.21333 84.9275 8.288C84.9915 8.352 85.0448 8.41067 85.0875 8.464C85.1408 8.51733 85.2208 8.57067 85.3275 8.624C85.4448 8.66667 85.5302 8.704 85.5835 8.736C85.6475 8.768 85.7542 8.80533 85.9035 8.848C86.0635 8.88 86.1755 8.90667 86.2395 8.928C86.3035 8.93867 86.4262 8.96533 86.6075 9.008C86.7995 9.05067 86.9222 9.07733 86.9755 9.088C87.3702 9.17333 87.6635 9.24267 87.8555 9.296C88.0582 9.34933 88.3302 9.45067 88.6715 9.6C89.0235 9.73867 89.2902 9.888 89.4715 10.048C89.6528 10.1973 89.8128 10.4107 89.9515 10.688C90.1008 10.9547 90.1755 11.2587 90.1755 11.6C90.1755 12.4 89.8608 13.0453 89.2315 13.536C88.6128 14.016 87.7862 14.256 86.7515 14.256C85.6315 14.256 84.7675 14.0107 84.1595 13.52C83.5622 13.0293 83.2422 12.32 83.1995 11.392H84.5435C84.6182 12.5547 85.3648 13.136 86.7835 13.136C87.3915 13.136 87.8768 13.0133 88.2395 12.768C88.6128 12.512 88.7995 12.176 88.7995 11.76C88.7995 11.4827 88.7035 11.2533 88.5115 11.072C88.3195 10.8907 88.1062 10.7627 87.8715 10.688C87.6368 10.6027 87.3008 10.5067 86.8635 10.4C86.7995 10.3893 86.7515 10.3787 86.7195 10.368C86.6235 10.3467 86.4155 10.304 86.0955 10.24C85.7862 10.1653 85.5622 10.1067 85.4235 10.064C85.2848 10.0213 85.0822 9.95733 84.8155 9.872C84.5595 9.776 84.3675 9.68 84.2395 9.584C84.1115 9.47733 83.9675 9.34933 83.8075 9.2C83.6582 9.04 83.5515 8.85867 83.4875 8.656C83.4235 8.44267 83.3915 8.20267 83.3915 7.936C83.3915 7.18933 83.6742 6.59733 84.2395 6.16C84.8155 5.72267 85.5835 5.504 86.5435 5.504C87.5142 5.504 88.3035 5.73333 88.9115 6.192C89.5302 6.65067 89.8395 7.30133 89.8395 8.144Z" fill="#65717C"/>
</svg>
