<svg width="123" height="20" viewBox="0 0 123 20" fill="none" xmlns="http://www.w3.org/2000/svg">
<path d="M2.98334 4.29998H14.5167C15.9 4.29998 17.0167 5.41665 17.0167 6.79998V9.56665" stroke="#65717C" stroke-width="1.5" stroke-miterlimit="10" stroke-linecap="round" stroke-linejoin="round"/>
<path d="M5.61667 1.66667L2.98334 4.29998L5.61667 6.93334" stroke="#65717C" stroke-width="1.5" stroke-miterlimit="10" stroke-linecap="round" stroke-linejoin="round"/>
<path d="M17.0167 15.7H5.48334C4.1 15.7 2.98334 14.5834 2.98334 13.2V10.4333" stroke="#65717C" stroke-width="1.5" stroke-miterlimit="10" stroke-linecap="round" stroke-linejoin="round"/>
<path d="M14.3834 18.3333L17.0167 15.7L14.3834 13.0667" stroke="#65717C" stroke-width="1.5" stroke-miterlimit="10" stroke-linecap="round" stroke-linejoin="round"/>
<path d="M41.168 2.608V3.92H37.344V14H35.84V3.92H32.016V2.608H41.168ZM45.0468 5.552V6.96C44.9508 6.94933 44.8334 6.944 44.6948 6.944C44.2574 6.944 43.8788 7.01333 43.5588 7.152C43.2388 7.28 42.9828 7.45067 42.7908 7.664C42.6094 7.87733 42.4601 8.144 42.3428 8.464C42.2254 8.784 42.1454 9.104 42.1028 9.424C42.0708 9.744 42.0548 10.1067 42.0548 10.512V14H40.6948V5.744H41.9908V7.52C42.5348 6.208 43.5534 5.552 45.0468 5.552ZM53.3829 12.912V13.968C53.1055 14.0747 52.7962 14.128 52.4549 14.128C51.6762 14.128 51.2762 13.7227 51.2549 12.912C50.4762 13.7867 49.4789 14.224 48.2629 14.224C47.4522 14.224 46.8069 14.016 46.3269 13.6C45.8575 13.184 45.6229 12.6133 45.6229 11.888C45.6229 10.416 46.5989 9.55733 48.5509 9.312C48.6789 9.29067 48.8655 9.26933 49.1109 9.248C50.0389 9.14133 50.6095 9.01867 50.8229 8.88C51.0682 8.70933 51.1909 8.416 51.1909 8C51.1909 7.09333 50.5669 6.64 49.3189 6.64C48.6789 6.64 48.1935 6.77333 47.8629 7.04C47.5322 7.296 47.3349 7.72267 47.2709 8.32H45.9429C45.9642 7.43467 46.2789 6.74667 46.8869 6.256C47.4949 5.76533 48.3322 5.52 49.3989 5.52C50.5615 5.52 51.4255 5.78667 51.9909 6.32C52.1722 6.49067 52.3055 6.71467 52.3909 6.992C52.4762 7.26933 52.5242 7.49867 52.5349 7.68C52.5455 7.85067 52.5509 8.112 52.5509 8.464C52.5509 8.86933 52.5402 9.48267 52.5189 10.304C52.4975 11.1253 52.4869 11.7387 52.4869 12.144C52.4869 12.4427 52.5242 12.656 52.5989 12.784C52.6842 12.9013 52.8335 12.96 53.0469 12.96C53.1322 12.96 53.2442 12.944 53.3829 12.912ZM51.1909 9.712C51.0949 9.78667 50.9935 9.85067 50.8869 9.904C50.7802 9.95733 50.6415 10 50.4709 10.032C50.3109 10.064 50.1989 10.0907 50.1349 10.112C50.0815 10.1227 49.9429 10.144 49.7189 10.176C49.4949 10.1973 49.3775 10.208 49.3669 10.208C49.0362 10.2507 48.8175 10.2827 48.7109 10.304C48.6149 10.3147 48.4229 10.3573 48.1349 10.432C47.8575 10.5067 47.6602 10.592 47.5429 10.688C47.4255 10.784 47.3082 10.928 47.1909 11.12C47.0842 11.3013 47.0309 11.52 47.0309 11.776C47.0309 12.2027 47.1749 12.5387 47.4629 12.784C47.7615 13.0293 48.1669 13.152 48.6789 13.152C49.3295 13.152 49.9109 12.96 50.4229 12.576C50.9349 12.192 51.1909 11.7387 51.1909 11.216V9.712ZM55.9446 5.744V7.024C56.6273 6.02133 57.566 5.52 58.7606 5.52C59.7313 5.52 60.43 5.776 60.8566 6.288C61.294 6.78933 61.5126 7.53067 61.5126 8.512V14H60.1526V9.136C60.1526 8.73067 60.1366 8.416 60.1046 8.192C60.0833 7.95733 60.0193 7.712 59.9126 7.456C59.806 7.18933 59.6246 6.99733 59.3686 6.88C59.1126 6.76267 58.782 6.704 58.3766 6.704C56.8086 6.704 56.0246 7.696 56.0246 9.68V14H54.6646V5.744H55.9446ZM69.6833 8.144H68.3233C68.2379 7.14133 67.5659 6.64 66.3073 6.64C65.7846 6.64 65.3739 6.74133 65.0753 6.944C64.7766 7.14667 64.6273 7.41867 64.6273 7.76C64.6273 7.856 64.6379 7.952 64.6593 8.048C64.6806 8.13333 64.7179 8.21333 64.7713 8.288C64.8353 8.352 64.8886 8.41067 64.9313 8.464C64.9846 8.51733 65.0646 8.57067 65.1713 8.624C65.2886 8.66667 65.3739 8.704 65.4273 8.736C65.4913 8.768 65.5979 8.80533 65.7473 8.848C65.9073 8.88 66.0193 8.90667 66.0833 8.928C66.1473 8.93867 66.2699 8.96533 66.4513 9.008C66.6433 9.05067 66.7659 9.07733 66.8193 9.088C67.2139 9.17333 67.5073 9.24267 67.6993 9.296C67.9019 9.34933 68.1739 9.45067 68.5153 9.6C68.8673 9.73867 69.1339 9.888 69.3153 10.048C69.4966 10.1973 69.6566 10.4107 69.7953 10.688C69.9446 10.9547 70.0193 11.2587 70.0193 11.6C70.0193 12.4 69.7046 13.0453 69.0753 13.536C68.4566 14.016 67.6299 14.256 66.5953 14.256C65.4753 14.256 64.6113 14.0107 64.0033 13.52C63.4059 13.0293 63.0859 12.32 63.0433 11.392H64.3873C64.4619 12.5547 65.2086 13.136 66.6273 13.136C67.2353 13.136 67.7206 13.0133 68.0833 12.768C68.4566 12.512 68.6433 12.176 68.6433 11.76C68.6433 11.4827 68.5473 11.2533 68.3553 11.072C68.1633 10.8907 67.9499 10.7627 67.7153 10.688C67.4806 10.6027 67.1446 10.5067 66.7073 10.4C66.6433 10.3893 66.5953 10.3787 66.5633 10.368C66.4673 10.3467 66.2593 10.304 65.9393 10.24C65.6299 10.1653 65.4059 10.1067 65.2673 10.064C65.1286 10.0213 64.9259 9.95733 64.6593 9.872C64.4033 9.776 64.2113 9.68 64.0833 9.584C63.9553 9.47733 63.8113 9.34933 63.6513 9.2C63.5019 9.04 63.3953 8.85867 63.3313 8.656C63.2673 8.44267 63.2353 8.20267 63.2353 7.936C63.2353 7.18933 63.5179 6.59733 64.0833 6.16C64.6593 5.72267 65.4273 5.504 66.3873 5.504C67.3579 5.504 68.1473 5.73333 68.7553 6.192C69.3739 6.65067 69.6833 7.30133 69.6833 8.144ZM78.8673 12.912V13.968C78.5899 14.0747 78.2806 14.128 77.9393 14.128C77.1606 14.128 76.7606 13.7227 76.7393 12.912C75.9606 13.7867 74.9633 14.224 73.7473 14.224C72.9366 14.224 72.2913 14.016 71.8113 13.6C71.3419 13.184 71.1073 12.6133 71.1073 11.888C71.1073 10.416 72.0833 9.55733 74.0353 9.312C74.1633 9.29067 74.3499 9.26933 74.5953 9.248C75.5233 9.14133 76.0939 9.01867 76.3073 8.88C76.5526 8.70933 76.6753 8.416 76.6753 8C76.6753 7.09333 76.0513 6.64 74.8033 6.64C74.1633 6.64 73.6779 6.77333 73.3473 7.04C73.0166 7.296 72.8193 7.72267 72.7553 8.32H71.4273C71.4486 7.43467 71.7633 6.74667 72.3713 6.256C72.9793 5.76533 73.8166 5.52 74.8833 5.52C76.0459 5.52 76.9099 5.78667 77.4753 6.32C77.6566 6.49067 77.7899 6.71467 77.8753 6.992C77.9606 7.26933 78.0086 7.49867 78.0193 7.68C78.0299 7.85067 78.0353 8.112 78.0353 8.464C78.0353 8.86933 78.0246 9.48267 78.0033 10.304C77.9819 11.1253 77.9713 11.7387 77.9713 12.144C77.9713 12.4427 78.0086 12.656 78.0833 12.784C78.1686 12.9013 78.3179 12.96 78.5312 12.96C78.6166 12.96 78.7286 12.944 78.8673 12.912ZM76.6753 9.712C76.5793 9.78667 76.4779 9.85067 76.3713 9.904C76.2646 9.95733 76.1259 10 75.9553 10.032C75.7953 10.064 75.6833 10.0907 75.6193 10.112C75.5659 10.1227 75.4273 10.144 75.2033 10.176C74.9793 10.1973 74.8619 10.208 74.8513 10.208C74.5206 10.2507 74.3019 10.2827 74.1953 10.304C74.0993 10.3147 73.9073 10.3573 73.6193 10.432C73.3419 10.5067 73.1446 10.592 73.0273 10.688C72.9099 10.784 72.7926 10.928 72.6753 11.12C72.5686 11.3013 72.5153 11.52 72.5153 11.776C72.5153 12.2027 72.6593 12.5387 72.9473 12.784C73.2459 13.0293 73.6513 13.152 74.1633 13.152C74.8139 13.152 75.3953 12.96 75.9073 12.576C76.4193 12.192 76.6753 11.7387 76.6753 11.216V9.712ZM87.253 10.992C87.1357 11.984 86.757 12.7733 86.117 13.36C85.4877 13.9467 84.6663 14.24 83.653 14.24C82.405 14.24 81.4397 13.856 80.757 13.088C80.0743 12.3093 79.733 11.2747 79.733 9.984C79.733 8.608 80.0903 7.52 80.805 6.72C81.5197 5.90933 82.485 5.504 83.701 5.504C84.7143 5.504 85.525 5.76 86.133 6.272C86.741 6.77333 87.0983 7.49333 87.205 8.432H85.797C85.5517 7.23733 84.8583 6.64 83.717 6.64C82.9277 6.64 82.3037 6.93333 81.845 7.52C81.3863 8.096 81.157 8.88 81.157 9.872C81.157 10.8747 81.3757 11.664 81.813 12.24C82.2503 12.816 82.853 13.104 83.621 13.104C84.2397 13.104 84.741 12.9227 85.125 12.56C85.5197 12.1973 85.7703 11.6747 85.877 10.992H87.253ZM92.2788 5.744V6.864H90.6308V11.68C90.6308 11.9467 90.6308 12.1227 90.6308 12.208C90.6414 12.2933 90.6734 12.4107 90.7268 12.56C90.7801 12.6987 90.8708 12.7893 90.9988 12.832C91.1268 12.8747 91.3081 12.896 91.5428 12.896C91.7454 12.896 91.9908 12.88 92.2788 12.848V14.016C91.8948 14.0587 91.5481 14.08 91.2388 14.08C90.8548 14.08 90.5348 14.0373 90.2788 13.952C90.0228 13.8667 89.8254 13.7707 89.6868 13.664C89.5588 13.5573 89.4628 13.3707 89.3988 13.104C89.3348 12.8267 89.2974 12.5973 89.2868 12.416C89.2761 12.224 89.2708 11.9093 89.2708 11.472C89.2708 11.44 89.2708 11.4187 89.2708 11.408C89.2708 11.3867 89.2708 11.36 89.2708 11.328C89.2708 11.296 89.2708 11.2693 89.2708 11.248V6.864H87.8788V5.744H89.2708V3.296H90.6308V5.744H92.2788ZM95.2296 2.608V4.272H93.8536V2.608H95.2296ZM95.2296 5.744V14H93.8536V5.744H95.2296ZM97.9925 6.688C98.7178 5.89867 99.7045 5.504 100.953 5.504C102.201 5.504 103.171 5.88267 103.865 6.64C104.558 7.39733 104.905 8.45867 104.905 9.824C104.905 11.2213 104.558 12.3093 103.865 13.088C103.171 13.8667 102.195 14.256 100.937 14.256C99.6778 14.256 98.6912 13.872 97.9765 13.104C97.2618 12.336 96.9045 11.2693 96.9045 9.904C96.9045 8.54933 97.2672 7.47733 97.9925 6.688ZM102.809 7.52C102.35 6.93333 101.721 6.64 100.921 6.64C100.121 6.64 99.4858 6.93333 99.0165 7.52C98.5472 8.10667 98.3125 8.89067 98.3125 9.872C98.3125 10.8853 98.5418 11.68 99.0005 12.256C99.4698 12.8213 100.121 13.104 100.953 13.104C101.753 13.104 102.377 12.816 102.825 12.24C103.283 11.664 103.513 10.8693 103.513 9.856C103.513 8.87467 103.278 8.096 102.809 7.52ZM107.804 5.744V7.024C108.487 6.02133 109.425 5.52 110.62 5.52C111.591 5.52 112.289 5.776 112.716 6.288C113.153 6.78933 113.372 7.53067 113.372 8.512V14H112.012V9.136C112.012 8.73067 111.996 8.416 111.964 8.192C111.943 7.95733 111.879 7.712 111.772 7.456C111.665 7.18933 111.484 6.99733 111.228 6.88C110.972 6.76267 110.641 6.704 110.236 6.704C108.668 6.704 107.884 7.696 107.884 9.68V14H106.524V5.744H107.804ZM121.543 8.144H120.183C120.097 7.14133 119.425 6.64 118.167 6.64C117.644 6.64 117.233 6.74133 116.935 6.944C116.636 7.14667 116.487 7.41867 116.487 7.76C116.487 7.856 116.497 7.952 116.519 8.048C116.54 8.13333 116.577 8.21333 116.631 8.288C116.695 8.352 116.748 8.41067 116.791 8.464C116.844 8.51733 116.924 8.57067 117.031 8.624C117.148 8.66667 117.233 8.704 117.287 8.736C117.351 8.768 117.457 8.80533 117.607 8.848C117.767 8.88 117.879 8.90667 117.943 8.928C118.007 8.93867 118.129 8.96533 118.311 9.008C118.503 9.05067 118.625 9.07733 118.679 9.088C119.073 9.17333 119.367 9.24267 119.559 9.296C119.761 9.34933 120.033 9.45067 120.375 9.6C120.727 9.73867 120.993 9.888 121.175 10.048C121.356 10.1973 121.516 10.4107 121.655 10.688C121.804 10.9547 121.879 11.2587 121.879 11.6C121.879 12.4 121.564 13.0453 120.935 13.536C120.316 14.016 119.489 14.256 118.455 14.256C117.335 14.256 116.471 14.0107 115.863 13.52C115.265 13.0293 114.945 12.32 114.903 11.392H116.247C116.321 12.5547 117.068 13.136 118.487 13.136C119.095 13.136 119.58 13.0133 119.943 12.768C120.316 12.512 120.503 12.176 120.503 11.76C120.503 11.4827 120.407 11.2533 120.215 11.072C120.023 10.8907 119.809 10.7627 119.575 10.688C119.34 10.6027 119.004 10.5067 118.567 10.4C118.503 10.3893 118.455 10.3787 118.423 10.368C118.327 10.3467 118.119 10.304 117.799 10.24C117.489 10.1653 117.265 10.1067 117.127 10.064C116.988 10.0213 116.785 9.95733 116.519 9.872C116.263 9.776 116.071 9.68 115.943 9.584C115.815 9.47733 115.671 9.34933 115.511 9.2C115.361 9.04 115.255 8.85867 115.191 8.656C115.127 8.44267 115.095 8.20267 115.095 7.936C115.095 7.18933 115.377 6.59733 115.943 6.16C116.519 5.72267 117.287 5.504 118.247 5.504C119.217 5.504 120.007 5.73333 120.615 6.192C121.233 6.65067 121.543 7.30133 121.543 8.144Z" fill="#65717C"/>
</svg>
