<svg width="140" height="20" viewBox="0 0 140 20" fill="none" xmlns="http://www.w3.org/2000/svg">
<path d="M18.0584 11.9167L17.725 16.0833C17.6 17.3583 17.5 18.3333 15.2417 18.3333H4.75836C2.50003 18.3333 2.40003 17.3583 2.27503 16.0833L1.9417 11.9167C1.87503 11.225 2.0917 10.5833 2.48336 10.0917C2.4917 10.0833 2.4917 10.0833 2.50003 10.075C2.95836 9.51667 3.65003 9.16667 4.42503 9.16667H15.575C16.35 9.16667 17.0334 9.51667 17.4834 10.0583C17.4917 10.0667 17.5 10.075 17.5 10.0833C17.9084 10.575 18.1334 11.2167 18.0584 11.9167Z" stroke="#5444F2" stroke-width="1.5" stroke-miterlimit="10"/>
<path d="M2.91669 9.525V5.23333C2.91669 2.4 3.62502 1.69167 6.45835 1.69167H7.51669C8.57502 1.69167 8.81669 2.00833 9.21669 2.54167L10.275 3.95833C10.5417 4.30833 10.7 4.525 11.4084 4.525H13.5334C16.3667 4.525 17.075 5.23333 17.075 8.06667V9.55833" stroke="#5444F2" stroke-width="1.5" stroke-miterlimit="10" stroke-linecap="round" stroke-linejoin="round"/>
<path d="M7.85834 14.1667H12.1417" stroke="#5444F2" stroke-width="1.5" stroke-miterlimit="10" stroke-linecap="round" stroke-linejoin="round"/>
<path d="M31.968 2.608H33.632L36.912 12.528L40.224 2.608H41.808L37.744 14H36.016L31.968 2.608ZM43.964 2.608V4.272H42.588V2.608H43.964ZM43.964 5.744V14H42.588V5.744H43.964ZM50.3749 5.552V6.96C50.2789 6.94933 50.1615 6.944 50.0229 6.944C49.5855 6.944 49.2069 7.01333 48.8869 7.152C48.5669 7.28 48.3109 7.45067 48.1189 7.664C47.9375 7.87733 47.7882 8.144 47.6709 8.464C47.5535 8.784 47.4735 9.104 47.4309 9.424C47.3989 9.744 47.3829 10.1067 47.3829 10.512V14H46.0229V5.744H47.3189V7.52C47.8629 6.208 48.8815 5.552 50.3749 5.552ZM54.935 5.744V6.864H53.287V11.68C53.287 11.9467 53.287 12.1227 53.287 12.208C53.2977 12.2933 53.3297 12.4107 53.383 12.56C53.4363 12.6987 53.527 12.7893 53.655 12.832C53.783 12.8747 53.9643 12.896 54.199 12.896C54.4017 12.896 54.647 12.88 54.935 12.848V14.016C54.551 14.0587 54.2043 14.08 53.895 14.08C53.511 14.08 53.191 14.0373 52.935 13.952C52.679 13.8667 52.4817 13.7707 52.343 13.664C52.215 13.5573 52.119 13.3707 52.055 13.104C51.991 12.8267 51.9537 12.5973 51.943 12.416C51.9323 12.224 51.927 11.9093 51.927 11.472C51.927 11.44 51.927 11.4187 51.927 11.408C51.927 11.3867 51.927 11.36 51.927 11.328C51.927 11.296 51.927 11.2693 51.927 11.248V6.864H50.535V5.744H51.927V3.296H53.287V5.744H54.935ZM63.2939 5.744V14H62.0299V12.704C61.3259 13.7173 60.3765 14.224 59.1819 14.224C58.3072 14.224 57.6299 13.984 57.1499 13.504C56.6699 13.024 56.4299 12.3307 56.4299 11.424V5.744H57.7899V11.056C57.7899 11.7067 57.9125 12.2027 58.1579 12.544C58.4139 12.8747 58.8672 13.04 59.5179 13.04C61.1285 13.04 61.9339 12.048 61.9339 10.064V5.744H63.2939ZM72.6485 12.912V13.968C72.3712 14.0747 72.0618 14.128 71.7205 14.128C70.9418 14.128 70.5418 13.7227 70.5205 12.912C69.7418 13.7867 68.7445 14.224 67.5285 14.224C66.7178 14.224 66.0725 14.016 65.5925 13.6C65.1232 13.184 64.8885 12.6133 64.8885 11.888C64.8885 10.416 65.8645 9.55733 67.8165 9.312C67.9445 9.29067 68.1312 9.26933 68.3765 9.248C69.3045 9.14133 69.8752 9.01867 70.0885 8.88C70.3338 8.70933 70.4565 8.416 70.4565 8C70.4565 7.09333 69.8325 6.64 68.5845 6.64C67.9445 6.64 67.4592 6.77333 67.1285 7.04C66.7978 7.296 66.6005 7.72267 66.5365 8.32H65.2085C65.2298 7.43467 65.5445 6.74667 66.1525 6.256C66.7605 5.76533 67.5978 5.52 68.6645 5.52C69.8272 5.52 70.6912 5.78667 71.2565 6.32C71.4378 6.49067 71.5712 6.71467 71.6565 6.992C71.7418 7.26933 71.7898 7.49867 71.8005 7.68C71.8112 7.85067 71.8165 8.112 71.8165 8.464C71.8165 8.86933 71.8058 9.48267 71.7845 10.304C71.7632 11.1253 71.7525 11.7387 71.7525 12.144C71.7525 12.4427 71.7898 12.656 71.8645 12.784C71.9498 12.9013 72.0992 12.96 72.3125 12.96C72.3978 12.96 72.5098 12.944 72.6485 12.912ZM70.4565 9.712C70.3605 9.78667 70.2592 9.85067 70.1525 9.904C70.0458 9.95733 69.9072 10 69.7365 10.032C69.5765 10.064 69.4645 10.0907 69.4005 10.112C69.3472 10.1227 69.2085 10.144 68.9845 10.176C68.7605 10.1973 68.6432 10.208 68.6325 10.208C68.3018 10.2507 68.0832 10.2827 67.9765 10.304C67.8805 10.3147 67.6885 10.3573 67.4005 10.432C67.1232 10.5067 66.9258 10.592 66.8085 10.688C66.6912 10.784 66.5738 10.928 66.4565 11.12C66.3498 11.3013 66.2965 11.52 66.2965 11.776C66.2965 12.2027 66.4405 12.5387 66.7285 12.784C67.0272 13.0293 67.4325 13.152 67.9445 13.152C68.5952 13.152 69.1765 12.96 69.6885 12.576C70.2005 12.192 70.4565 11.7387 70.4565 11.216V9.712ZM75.3703 2.608V14H73.9943V2.608H75.3703ZM86.9543 2.608L91.4023 14H89.7222L88.4583 10.512H83.6743L82.3783 14H80.7782L85.2583 2.608H86.9543ZM88.0103 9.312L86.0743 4.048L84.1063 9.312H88.0103ZM99.4093 10.992C99.2919 11.984 98.9133 12.7733 98.2733 13.36C97.6439 13.9467 96.8226 14.24 95.8093 14.24C94.5613 14.24 93.5959 13.856 92.9133 13.088C92.2306 12.3093 91.8893 11.2747 91.8893 9.984C91.8893 8.608 92.2466 7.52 92.9613 6.72C93.6759 5.90933 94.6413 5.504 95.8573 5.504C96.8706 5.504 97.6813 5.76 98.2893 6.272C98.8973 6.77333 99.2546 7.49333 99.3612 8.432H97.9533C97.7079 7.23733 97.0146 6.64 95.8733 6.64C95.0839 6.64 94.4599 6.93333 94.0013 7.52C93.5426 8.096 93.3133 8.88 93.3133 9.872C93.3133 10.8747 93.5319 11.664 93.9693 12.24C94.4066 12.816 95.0093 13.104 95.7773 13.104C96.3959 13.104 96.8973 12.9227 97.2813 12.56C97.6759 12.1973 97.9266 11.6747 98.0333 10.992H99.4093ZM108.003 10.992C107.886 11.984 107.507 12.7733 106.867 13.36C106.238 13.9467 105.416 14.24 104.403 14.24C103.155 14.24 102.19 13.856 101.507 13.088C100.824 12.3093 100.483 11.2747 100.483 9.984C100.483 8.608 100.84 7.52 101.555 6.72C102.27 5.90933 103.235 5.504 104.451 5.504C105.464 5.504 106.275 5.76 106.883 6.272C107.491 6.77333 107.848 7.49333 107.955 8.432H106.547C106.302 7.23733 105.608 6.64 104.467 6.64C103.678 6.64 103.054 6.93333 102.595 7.52C102.136 8.096 101.907 8.88 101.907 9.872C101.907 10.8747 102.126 11.664 102.563 12.24C103 12.816 103.603 13.104 104.371 13.104C104.99 13.104 105.491 12.9227 105.875 12.56C106.27 12.1973 106.52 11.6747 106.627 10.992H108.003ZM110.149 6.688C110.874 5.89867 111.861 5.504 113.109 5.504C114.357 5.504 115.327 5.88267 116.021 6.64C116.714 7.39733 117.061 8.45867 117.061 9.824C117.061 11.2213 116.714 12.3093 116.021 13.088C115.327 13.8667 114.351 14.256 113.093 14.256C111.834 14.256 110.847 13.872 110.133 13.104C109.418 12.336 109.061 11.2693 109.061 9.904C109.061 8.54933 109.423 7.47733 110.149 6.688ZM114.965 7.52C114.506 6.93333 113.877 6.64 113.077 6.64C112.277 6.64 111.642 6.93333 111.173 7.52C110.703 8.10667 110.469 8.89067 110.469 9.872C110.469 10.8853 110.698 11.68 111.157 12.256C111.626 12.8213 112.277 13.104 113.109 13.104C113.909 13.104 114.533 12.816 114.981 12.24C115.439 11.664 115.669 10.8693 115.669 9.856C115.669 8.87467 115.434 8.096 114.965 7.52ZM125.528 5.744V14H124.264V12.704C123.56 13.7173 122.611 14.224 121.416 14.224C120.542 14.224 119.864 13.984 119.384 13.504C118.904 13.024 118.664 12.3307 118.664 11.424V5.744H120.024V11.056C120.024 11.7067 120.147 12.2027 120.392 12.544C120.648 12.8747 121.102 13.04 121.752 13.04C123.363 13.04 124.168 12.048 124.168 10.064V5.744H125.528ZM128.851 5.744V7.024C129.534 6.02133 130.472 5.52 131.667 5.52C132.638 5.52 133.336 5.776 133.763 6.288C134.2 6.78933 134.419 7.53067 134.419 8.512V14H133.059V9.136C133.059 8.73067 133.043 8.416 133.011 8.192C132.99 7.95733 132.926 7.712 132.819 7.456C132.712 7.18933 132.531 6.99733 132.275 6.88C132.019 6.76267 131.688 6.704 131.283 6.704C129.715 6.704 128.931 7.696 128.931 9.68V14H127.571V5.744H128.851ZM139.998 5.744V6.864H138.35V11.68C138.35 11.9467 138.35 12.1227 138.35 12.208C138.36 12.2933 138.392 12.4107 138.446 12.56C138.499 12.6987 138.59 12.7893 138.718 12.832C138.846 12.8747 139.027 12.896 139.262 12.896C139.464 12.896 139.71 12.88 139.998 12.848V14.016C139.614 14.0587 139.267 14.08 138.958 14.08C138.574 14.08 138.254 14.0373 137.998 13.952C137.742 13.8667 137.544 13.7707 137.406 13.664C137.278 13.5573 137.182 13.3707 137.118 13.104C137.054 12.8267 137.016 12.5973 137.006 12.416C136.995 12.224 136.99 11.9093 136.99 11.472C136.99 11.44 136.99 11.4187 136.99 11.408C136.99 11.3867 136.99 11.36 136.99 11.328C136.99 11.296 136.99 11.2693 136.99 11.248V6.864H135.598V5.744H136.99V3.296H138.35V5.744H139.998Z" fill="#5444F2"/>
</svg>
