<svg width="1353" height="44" viewBox="0 0 1353 44" fill="none" xmlns="http://www.w3.org/2000/svg">
<path d="M0.9 12.76H3.52L7.12 24.02L10.8 12.76H13.34L8.46 27H5.68L0.9 12.76ZM16.9619 12.7V14.94H14.6819V12.7H16.9619ZM16.9619 16.68V27H14.6819V16.68H16.9619ZM25.2861 16.48V18.66C24.8861 18.62 24.6194 18.6 24.4861 18.6C22.4994 18.6 21.5061 19.8867 21.5061 22.46V27H19.2461V16.68H21.3861V18.74C22.1194 17.2067 23.2728 16.44 24.8461 16.44L25.2861 16.48ZM31.5173 16.68V18.34H29.4373V23.78C29.4373 24.1 29.444 24.3267 29.4573 24.46C29.4707 24.58 29.5107 24.72 29.5773 24.88C29.644 25.0267 29.7573 25.1267 29.9173 25.18C30.0907 25.2333 30.324 25.26 30.6173 25.26C30.9907 25.26 31.2907 25.2467 31.5173 25.22V27.02C31.064 27.0733 30.5507 27.1 29.9773 27.1C29.5773 27.1 29.224 27.0667 28.9173 27C28.624 26.9467 28.3773 26.88 28.1773 26.8C27.9773 26.72 27.8107 26.5867 27.6773 26.4C27.544 26.2 27.4373 26.04 27.3573 25.92C27.2907 25.7867 27.2373 25.56 27.1973 25.24C27.1707 24.92 27.1573 24.68 27.1573 24.52C27.1573 24.3467 27.1573 24.0533 27.1573 23.64C27.1573 23.5867 27.1573 23.5467 27.1573 23.52C27.1573 23.48 27.1573 23.44 27.1573 23.4C27.1573 23.3467 27.1573 23.3 27.1573 23.26V18.34H25.4373V16.68H27.1573V13.58H29.4373V16.68H31.5173ZM42.1975 16.68V27H40.0575V25.46C39.1908 26.6733 38.0575 27.28 36.6575 27.28C35.5242 27.28 34.6508 26.96 34.0375 26.32C33.4375 25.6667 33.1375 24.7333 33.1375 23.52V16.68H35.4175V22.58C35.4175 22.94 35.4242 23.2333 35.4375 23.46C35.4508 23.6733 35.4908 23.92 35.5575 24.2C35.6375 24.4667 35.7442 24.6733 35.8775 24.82C36.0242 24.9667 36.2242 25.0933 36.4775 25.2C36.7442 25.3067 37.0642 25.36 37.4375 25.36C38.2908 25.36 38.9175 25.06 39.3175 24.46C39.7175 23.8467 39.9175 23.0733 39.9175 22.14V16.68H42.1975ZM44.5219 19.86C44.7619 17.5267 46.2685 16.36 49.0419 16.36C50.3352 16.36 51.3619 16.6133 52.1219 17.12C52.8952 17.6267 53.2819 18.4133 53.2819 19.48V24.72C53.2819 25.0133 53.3152 25.2133 53.3819 25.32C53.4619 25.4267 53.6085 25.48 53.8219 25.48C53.9819 25.48 54.1552 25.4667 54.3419 25.44V27.04C53.7552 27.1867 53.2619 27.26 52.8619 27.26C51.8885 27.26 51.3285 26.8467 51.1819 26.02C50.3152 26.8467 49.1085 27.26 47.5619 27.26C46.4952 27.26 45.6485 26.9867 45.0219 26.44C44.3952 25.88 44.0819 25.1267 44.0819 24.18C44.0819 23.8867 44.1152 23.6133 44.1819 23.36C44.2485 23.1067 44.3219 22.8867 44.4019 22.7C44.4952 22.5133 44.6352 22.34 44.8219 22.18C45.0219 22.02 45.1819 21.8867 45.3019 21.78C45.4352 21.6733 45.6419 21.5733 45.9219 21.48C46.2152 21.3867 46.4285 21.32 46.5619 21.28C46.7085 21.2267 46.9552 21.1733 47.3019 21.12C47.6485 21.0667 47.8752 21.0333 47.9819 21.02C48.1019 20.9933 48.3419 20.96 48.7019 20.92C49.5152 20.8133 50.0685 20.7267 50.3619 20.66C50.6552 20.58 50.8552 20.4667 50.9619 20.32C51.0552 20.2133 51.1019 19.9667 51.1019 19.58C51.1019 18.54 50.3952 18.02 48.9819 18.02C48.2352 18.02 47.6885 18.16 47.3419 18.44C46.9952 18.72 46.7752 19.1933 46.6819 19.86H44.5219ZM51.0819 21.82C50.9085 21.9133 50.7085 22 50.4819 22.08C50.2552 22.1467 50.0685 22.1933 49.9219 22.22C49.7885 22.2333 49.5685 22.26 49.2619 22.3C48.9685 22.34 48.7752 22.3667 48.6819 22.38C48.4019 22.42 48.1819 22.46 48.0219 22.5C47.8619 22.5267 47.6619 22.58 47.4219 22.66C47.1952 22.74 47.0152 22.84 46.8819 22.96C46.7619 23.0667 46.6552 23.22 46.5619 23.42C46.4685 23.6067 46.4219 23.8333 46.4219 24.1C46.4219 24.5933 46.5819 24.9733 46.9019 25.24C47.2352 25.5067 47.6952 25.64 48.2819 25.64C49.2952 25.64 50.0752 25.3667 50.6219 24.82C50.9285 24.5133 51.0819 23.92 51.0819 23.04V21.82ZM58.0752 12.76V27H55.8152V12.76H58.0752ZM72.9258 12.74L78.4258 27H75.7458L74.3858 23.22H68.7458L67.3458 27H64.7658L70.2658 12.74H72.9258ZM73.7258 21.34L71.6058 15.34L69.3858 21.34H73.7258ZM88.8256 23.1C88.6656 24.3667 88.159 25.38 87.3056 26.14C86.4523 26.8867 85.379 27.26 84.0856 27.26C82.539 27.26 81.3056 26.7733 80.3856 25.8C79.4656 24.8133 79.0056 23.5267 79.0056 21.94C79.0056 20.2333 79.4656 18.88 80.3856 17.88C81.319 16.8667 82.5723 16.36 84.1456 16.36C85.4656 16.36 86.5256 16.6933 87.3256 17.36C88.139 18.0267 88.6123 18.9533 88.7456 20.14H86.4856C86.3523 19.4867 86.0856 18.9867 85.6856 18.64C85.2856 18.2933 84.779 18.12 84.1656 18.12C83.2856 18.12 82.5923 18.4533 82.0856 19.12C81.579 19.7733 81.3256 20.6733 81.3256 21.82C81.3256 22.9667 81.5656 23.86 82.0456 24.5C82.539 25.14 83.219 25.46 84.0856 25.46C84.7656 25.46 85.319 25.26 85.7456 24.86C86.1856 24.4467 86.4656 23.86 86.5856 23.1H88.8256ZM99.9389 23.1C99.7789 24.3667 99.2722 25.38 98.4189 26.14C97.5656 26.8867 96.4922 27.26 95.1989 27.26C93.6522 27.26 92.4189 26.7733 91.4989 25.8C90.5789 24.8133 90.1189 23.5267 90.1189 21.94C90.1189 20.2333 90.5789 18.88 91.4989 17.88C92.4322 16.8667 93.6856 16.36 95.2589 16.36C96.5789 16.36 97.6389 16.6933 98.4389 17.36C99.2522 18.0267 99.7256 18.9533 99.8589 20.14H97.5989C97.4656 19.4867 97.1989 18.9867 96.7989 18.64C96.3989 18.2933 95.8922 18.12 95.2789 18.12C94.3989 18.12 93.7056 18.4533 93.1989 19.12C92.6922 19.7733 92.4389 20.6733 92.4389 21.82C92.4389 22.9667 92.6789 23.86 93.1589 24.5C93.6522 25.14 94.3322 25.46 95.1989 25.46C95.8789 25.46 96.4322 25.26 96.8589 24.86C97.2989 24.4467 97.5789 23.86 97.6989 23.1H99.9389ZM106.472 16.38C108.046 16.38 109.299 16.8733 110.232 17.86C111.166 18.8467 111.632 20.1733 111.632 21.84C111.632 23.52 111.166 24.8533 110.232 25.84C109.312 26.8267 108.059 27.32 106.472 27.32C104.859 27.32 103.579 26.8267 102.632 25.84C101.686 24.8533 101.212 23.52 101.212 21.84C101.212 20.1733 101.686 18.8467 102.632 17.86C103.592 16.8733 104.872 16.38 106.472 16.38ZM108.552 19.16C108.046 18.5067 107.339 18.18 106.432 18.18C105.526 18.18 104.812 18.5067 104.292 19.16C103.772 19.8133 103.512 20.7067 103.512 21.84C103.512 23 103.772 23.9067 104.292 24.56C104.812 25.2133 105.532 25.54 106.452 25.54C107.346 25.54 108.046 25.2133 108.552 24.56C109.072 23.8933 109.332 22.98 109.332 21.82C109.332 20.6867 109.072 19.8 108.552 19.16ZM122.608 16.68V27H120.468V25.46C119.601 26.6733 118.468 27.28 117.068 27.28C115.934 27.28 115.061 26.96 114.448 26.32C113.848 25.6667 113.548 24.7333 113.548 23.52V16.68H115.828V22.58C115.828 22.94 115.834 23.2333 115.848 23.46C115.861 23.6733 115.901 23.92 115.968 24.2C116.048 24.4667 116.154 24.6733 116.288 24.82C116.434 24.9667 116.634 25.0933 116.888 25.2C117.154 25.3067 117.474 25.36 117.848 25.36C118.701 25.36 119.328 25.06 119.728 24.46C120.128 23.8467 120.328 23.0733 120.328 22.14V16.68H122.608ZM127.212 16.68V18.2C128.039 17 129.179 16.4 130.632 16.4C131.805 16.4 132.679 16.72 133.252 17.36C133.839 18 134.132 18.92 134.132 20.12V27H131.852V21C131.852 20.5867 131.832 20.2467 131.792 19.98C131.752 19.7 131.665 19.42 131.532 19.14C131.412 18.86 131.212 18.6533 130.932 18.52C130.652 18.3733 130.292 18.3 129.852 18.3C128.172 18.3 127.332 19.3467 127.332 21.44V27H125.052V16.68H127.212ZM141.556 16.68V18.34H139.476V23.78C139.476 24.1 139.483 24.3267 139.496 24.46C139.51 24.58 139.55 24.72 139.616 24.88C139.683 25.0267 139.796 25.1267 139.956 25.18C140.13 25.2333 140.363 25.26 140.656 25.26C141.03 25.26 141.33 25.2467 141.556 25.22V27.02C141.103 27.0733 140.59 27.1 140.016 27.1C139.616 27.1 139.263 27.0667 138.956 27C138.663 26.9467 138.416 26.88 138.216 26.8C138.016 26.72 137.85 26.5867 137.716 26.4C137.583 26.2 137.476 26.04 137.396 25.92C137.33 25.7867 137.276 25.56 137.236 25.24C137.21 24.92 137.196 24.68 137.196 24.52C137.196 24.3467 137.196 24.0533 137.196 23.64C137.196 23.5867 137.196 23.5467 137.196 23.52C137.196 23.48 137.196 23.44 137.196 23.4C137.196 23.3467 137.196 23.3 137.196 23.26V18.34H135.476V16.68H137.196V13.58H139.476V16.68H141.556ZM149.043 12.76H154.463C155.45 12.76 156.316 12.8667 157.063 13.08C157.81 13.28 158.496 13.66 159.123 14.22C160.523 15.4733 161.223 17.28 161.223 19.64C161.223 22.16 160.556 24.0867 159.223 25.42C158.636 26.0067 157.996 26.42 157.303 26.66C156.623 26.8867 155.723 27 154.603 27H149.043V12.76ZM151.523 14.88V24.9H154.463C156.023 24.9 157.123 24.4467 157.763 23.54C158.403 22.6333 158.723 21.3733 158.723 19.76C158.723 18.2267 158.363 17.0333 157.643 16.18C156.923 15.3133 155.81 14.88 154.303 14.88H151.523ZM163.077 19.86C163.317 17.5267 164.823 16.36 167.597 16.36C168.89 16.36 169.917 16.6133 170.677 17.12C171.45 17.6267 171.837 18.4133 171.837 19.48V24.72C171.837 25.0133 171.87 25.2133 171.937 25.32C172.017 25.4267 172.163 25.48 172.377 25.48C172.537 25.48 172.71 25.4667 172.897 25.44V27.04C172.31 27.1867 171.817 27.26 171.417 27.26C170.443 27.26 169.883 26.8467 169.737 26.02C168.87 26.8467 167.663 27.26 166.117 27.26C165.05 27.26 164.203 26.9867 163.577 26.44C162.95 25.88 162.637 25.1267 162.637 24.18C162.637 23.8867 162.67 23.6133 162.737 23.36C162.803 23.1067 162.877 22.8867 162.957 22.7C163.05 22.5133 163.19 22.34 163.377 22.18C163.577 22.02 163.737 21.8867 163.857 21.78C163.99 21.6733 164.197 21.5733 164.477 21.48C164.77 21.3867 164.983 21.32 165.117 21.28C165.263 21.2267 165.51 21.1733 165.857 21.12C166.203 21.0667 166.43 21.0333 166.537 21.02C166.657 20.9933 166.897 20.96 167.257 20.92C168.07 20.8133 168.623 20.7267 168.917 20.66C169.21 20.58 169.41 20.4667 169.517 20.32C169.61 20.2133 169.657 19.9667 169.657 19.58C169.657 18.54 168.95 18.02 167.537 18.02C166.79 18.02 166.243 18.16 165.897 18.44C165.55 18.72 165.33 19.1933 165.237 19.86H163.077ZM169.637 21.82C169.463 21.9133 169.263 22 169.037 22.08C168.81 22.1467 168.623 22.1933 168.477 22.22C168.343 22.2333 168.123 22.26 167.817 22.3C167.523 22.34 167.33 22.3667 167.237 22.38C166.957 22.42 166.737 22.46 166.577 22.5C166.417 22.5267 166.217 22.58 165.977 22.66C165.75 22.74 165.57 22.84 165.437 22.96C165.317 23.0667 165.21 23.22 165.117 23.42C165.023 23.6067 164.977 23.8333 164.977 24.1C164.977 24.5933 165.137 24.9733 165.457 25.24C165.79 25.5067 166.25 25.64 166.837 25.64C167.85 25.64 168.63 25.3667 169.177 24.82C169.483 24.5133 169.637 23.92 169.637 23.04V21.82ZM182.47 19.68H180.29C180.157 18.5867 179.41 18.04 178.05 18.04C177.463 18.04 177.01 18.1467 176.69 18.36C176.37 18.5733 176.21 18.8667 176.21 19.24C176.21 19.36 176.217 19.4667 176.23 19.56C176.257 19.6533 176.297 19.74 176.35 19.82C176.417 19.8867 176.47 19.9467 176.51 20C176.563 20.0533 176.65 20.1067 176.77 20.16C176.89 20.2133 176.983 20.26 177.05 20.3C177.13 20.3267 177.257 20.3667 177.43 20.42C177.603 20.46 177.737 20.4933 177.83 20.52C177.937 20.5467 178.103 20.5867 178.33 20.64C178.557 20.68 178.73 20.7133 178.85 20.74C179.37 20.86 179.743 20.9533 179.97 21.02C180.21 21.0733 180.55 21.1933 180.99 21.38C181.443 21.5533 181.777 21.74 181.99 21.94C182.203 22.1267 182.397 22.3933 182.57 22.74C182.757 23.0733 182.85 23.46 182.85 23.9C182.85 24.94 182.443 25.7667 181.63 26.38C180.817 26.9933 179.723 27.3 178.35 27.3C176.883 27.3 175.757 26.9933 174.97 26.38C174.183 25.7667 173.763 24.8733 173.71 23.7H175.89C176.01 24.9933 176.843 25.64 178.39 25.64C179.057 25.64 179.59 25.5067 179.99 25.24C180.403 24.96 180.61 24.5933 180.61 24.14C180.61 23.9133 180.557 23.72 180.45 23.56C180.357 23.4 180.197 23.2667 179.97 23.16C179.743 23.04 179.523 22.9533 179.31 22.9C179.11 22.8333 178.837 22.76 178.49 22.68C178.437 22.6667 178.397 22.66 178.37 22.66C178.343 22.6467 178.31 22.64 178.27 22.64C178.23 22.6267 178.19 22.6133 178.15 22.6C176.683 22.24 175.75 21.96 175.35 21.76C174.403 21.3067 173.93 20.5533 173.93 19.5C173.93 18.5267 174.303 17.7667 175.05 17.22C175.797 16.66 176.83 16.38 178.15 16.38C179.417 16.38 180.45 16.6533 181.25 17.2C182.063 17.7467 182.47 18.5733 182.47 19.68ZM186.941 12.76V18.1C187.701 16.98 188.788 16.42 190.201 16.42C191.321 16.42 192.194 16.7267 192.821 17.34C193.448 17.94 193.761 18.8267 193.761 20V27H191.461V20.74C191.461 19.9533 191.321 19.3533 191.041 18.94C190.774 18.5267 190.248 18.32 189.461 18.32C188.581 18.32 187.941 18.6067 187.541 19.18C187.141 19.7533 186.941 20.5133 186.941 21.46V27H184.681V12.76H186.941ZM198.425 12.76V18.02C199.185 16.9533 200.312 16.42 201.805 16.42C203.179 16.42 204.279 16.9067 205.105 17.88C205.945 18.8533 206.365 20.1467 206.365 21.76C206.365 23.4267 205.939 24.7667 205.085 25.78C204.232 26.78 203.099 27.28 201.685 27.28C200.125 27.28 198.999 26.72 198.305 25.6V27H196.165V12.76H198.425ZM201.225 18.24C200.332 18.2267 199.625 18.5467 199.105 19.2C198.599 19.84 198.345 20.7267 198.345 21.86C198.345 22.9667 198.599 23.84 199.105 24.48C199.625 25.12 200.332 25.44 201.225 25.44C202.079 25.44 202.765 25.1133 203.285 24.46C203.805 23.7933 204.065 22.9067 204.065 21.8C204.065 20.7067 203.805 19.84 203.285 19.2C202.779 18.56 202.092 18.24 201.225 18.24ZM213.152 16.38C214.725 16.38 215.979 16.8733 216.912 17.86C217.845 18.8467 218.312 20.1733 218.312 21.84C218.312 23.52 217.845 24.8533 216.912 25.84C215.992 26.8267 214.739 27.32 213.152 27.32C211.539 27.32 210.259 26.8267 209.312 25.84C208.365 24.8533 207.892 23.52 207.892 21.84C207.892 20.1733 208.365 18.8467 209.312 17.86C210.272 16.8733 211.552 16.38 213.152 16.38ZM215.232 19.16C214.725 18.5067 214.019 18.18 213.112 18.18C212.205 18.18 211.492 18.5067 210.972 19.16C210.452 19.8133 210.192 20.7067 210.192 21.84C210.192 23 210.452 23.9067 210.972 24.56C211.492 25.2133 212.212 25.54 213.132 25.54C214.025 25.54 214.725 25.2133 215.232 24.56C215.752 23.8933 216.012 22.98 216.012 21.82C216.012 20.6867 215.752 19.8 215.232 19.16ZM220.127 19.86C220.367 17.5267 221.874 16.36 224.647 16.36C225.941 16.36 226.967 16.6133 227.727 17.12C228.501 17.6267 228.887 18.4133 228.887 19.48V24.72C228.887 25.0133 228.921 25.2133 228.987 25.32C229.067 25.4267 229.214 25.48 229.427 25.48C229.587 25.48 229.761 25.4667 229.947 25.44V27.04C229.361 27.1867 228.867 27.26 228.467 27.26C227.494 27.26 226.934 26.8467 226.787 26.02C225.921 26.8467 224.714 27.26 223.167 27.26C222.101 27.26 221.254 26.9867 220.627 26.44C220.001 25.88 219.687 25.1267 219.687 24.18C219.687 23.8867 219.721 23.6133 219.787 23.36C219.854 23.1067 219.927 22.8867 220.007 22.7C220.101 22.5133 220.241 22.34 220.427 22.18C220.627 22.02 220.787 21.8867 220.907 21.78C221.041 21.6733 221.247 21.5733 221.527 21.48C221.821 21.3867 222.034 21.32 222.167 21.28C222.314 21.2267 222.561 21.1733 222.907 21.12C223.254 21.0667 223.481 21.0333 223.587 21.02C223.707 20.9933 223.947 20.96 224.307 20.92C225.121 20.8133 225.674 20.7267 225.967 20.66C226.261 20.58 226.461 20.4667 226.567 20.32C226.661 20.2133 226.707 19.9667 226.707 19.58C226.707 18.54 226.001 18.02 224.587 18.02C223.841 18.02 223.294 18.16 222.947 18.44C222.601 18.72 222.381 19.1933 222.287 19.86H220.127ZM226.687 21.82C226.514 21.9133 226.314 22 226.087 22.08C225.861 22.1467 225.674 22.1933 225.527 22.22C225.394 22.2333 225.174 22.26 224.867 22.3C224.574 22.34 224.381 22.3667 224.287 22.38C224.007 22.42 223.787 22.46 223.627 22.5C223.467 22.5267 223.267 22.58 223.027 22.66C222.801 22.74 222.621 22.84 222.487 22.96C222.367 23.0667 222.261 23.22 222.167 23.42C222.074 23.6067 222.027 23.8333 222.027 24.1C222.027 24.5933 222.187 24.9733 222.507 25.24C222.841 25.5067 223.301 25.64 223.887 25.64C224.901 25.64 225.681 25.3667 226.227 24.82C226.534 24.5133 226.687 23.92 226.687 23.04V21.82ZM237.181 16.48V18.66C236.781 18.62 236.514 18.6 236.381 18.6C234.394 18.6 233.401 19.8867 233.401 22.46V27H231.141V16.68H233.281V18.74C234.014 17.2067 235.167 16.44 236.741 16.44L237.181 16.48ZM247.8 12.76V27H245.66V25.58C245.007 26.7133 243.907 27.28 242.36 27.28C240.907 27.28 239.747 26.7867 238.88 25.8C238.027 24.8133 237.6 23.4867 237.6 21.82C237.6 20.1667 238.02 18.8533 238.86 17.88C239.714 16.8933 240.854 16.4 242.28 16.4C243.734 16.4 244.827 16.94 245.56 18.02V12.76H247.8ZM242.7 18.24C241.834 18.24 241.147 18.56 240.64 19.2C240.147 19.8267 239.9 20.6867 239.9 21.78C239.9 22.9133 240.154 23.8067 240.66 24.46C241.18 25.1133 241.887 25.44 242.78 25.44C243.674 25.44 244.367 25.12 244.86 24.48C245.367 23.84 245.62 22.9533 245.62 21.82C245.62 20.6867 245.36 19.8067 244.84 19.18C244.334 18.5533 243.62 18.24 242.7 18.24Z" fill="black"/>
<rect x="1136" width="217" height="44" rx="8" fill="#5444F2"/>
<path d="M1157 22H1167" stroke="white" stroke-width="1.5" stroke-linecap="round" stroke-linejoin="round"/>
<path d="M1162 27V17" stroke="white" stroke-width="1.5" stroke-linecap="round" stroke-linejoin="round"/>
<path d="M1190.96 21.664C1190.85 23.0613 1190.35 24.1813 1189.46 25.024C1188.57 25.856 1187.42 26.272 1186 26.272C1184.39 26.272 1183.1 25.728 1182.13 24.64C1181.16 23.552 1180.67 22.1067 1180.67 20.304C1180.67 19.216 1180.88 18.2293 1181.3 17.344C1181.71 16.448 1182.34 15.728 1183.17 15.184C1184 14.6293 1184.98 14.352 1186.1 14.352C1187.3 14.352 1188.35 14.688 1189.25 15.36C1190.14 16.0213 1190.68 16.9813 1190.86 18.24H1188.88C1188.74 17.5573 1188.42 17.024 1187.92 16.64C1187.42 16.2453 1186.8 16.048 1186.06 16.048C1185.31 16.048 1184.66 16.2613 1184.13 16.688C1183.61 17.1147 1183.23 17.6427 1183.01 18.272C1182.79 18.8907 1182.69 19.568 1182.69 20.304C1182.69 20.8587 1182.75 21.3813 1182.88 21.872C1183.01 22.3627 1183.2 22.816 1183.46 23.232C1183.71 23.6373 1184.06 23.9627 1184.5 24.208C1184.94 24.4533 1185.46 24.576 1186.05 24.576C1187.74 24.576 1188.71 23.6053 1188.96 21.664H1190.96ZM1197.18 17.584V19.328C1196.86 19.296 1196.65 19.28 1196.54 19.28C1194.95 19.28 1194.15 20.3093 1194.15 22.368V26H1192.35V17.744H1194.06V19.392C1194.65 18.1653 1195.57 17.552 1196.83 17.552L1197.18 17.584ZM1205.24 23.424C1205.04 24.32 1204.6 25.0187 1203.91 25.52C1203.24 26.0213 1202.44 26.272 1201.5 26.272C1200.25 26.272 1199.26 25.872 1198.52 25.072C1197.8 24.2613 1197.43 23.2267 1197.43 21.968C1197.43 20.6773 1197.81 19.6107 1198.55 18.768C1199.31 17.9253 1200.27 17.504 1201.43 17.504C1202.64 17.504 1203.59 17.92 1204.3 18.752C1205 19.5733 1205.35 20.6987 1205.35 22.128V22.32H1199.26C1199.28 23.152 1199.49 23.7973 1199.88 24.256C1200.28 24.704 1200.83 24.928 1201.53 24.928C1202.03 24.928 1202.44 24.8107 1202.75 24.576C1203.07 24.3307 1203.32 23.9467 1203.5 23.424H1205.24ZM1203.53 21.104C1203.48 20.4107 1203.26 19.8667 1202.87 19.472C1202.5 19.0667 1202.02 18.864 1201.42 18.864C1200.82 18.864 1200.34 19.056 1199.96 19.44C1199.6 19.824 1199.38 20.3787 1199.29 21.104H1203.53ZM1206.66 20.288C1206.85 18.4213 1208.06 17.488 1210.28 17.488C1211.31 17.488 1212.13 17.6907 1212.74 18.096C1213.36 18.5013 1213.67 19.1307 1213.67 19.984V24.176C1213.67 24.4107 1213.7 24.5707 1213.75 24.656C1213.81 24.7413 1213.93 24.784 1214.1 24.784C1214.23 24.784 1214.37 24.7733 1214.52 24.752V26.032C1214.05 26.1493 1213.65 26.208 1213.33 26.208C1212.55 26.208 1212.11 25.8773 1211.99 25.216C1211.3 25.8773 1210.33 26.208 1209.09 26.208C1208.24 26.208 1207.56 25.9893 1207.06 25.552C1206.56 25.104 1206.31 24.5013 1206.31 23.744C1206.31 23.5093 1206.34 23.2907 1206.39 23.088C1206.44 22.8853 1206.5 22.7093 1206.57 22.56C1206.64 22.4107 1206.75 22.272 1206.9 22.144C1207.06 22.016 1207.19 21.9093 1207.29 21.824C1207.39 21.7387 1207.56 21.6587 1207.78 21.584C1208.02 21.5093 1208.19 21.456 1208.29 21.424C1208.41 21.3813 1208.61 21.3387 1208.89 21.296C1209.16 21.2533 1209.34 21.2267 1209.43 21.216C1209.53 21.1947 1209.72 21.168 1210.01 21.136C1210.66 21.0507 1211.1 20.9813 1211.33 20.928C1211.57 20.864 1211.73 20.7733 1211.81 20.656C1211.89 20.5707 1211.93 20.3733 1211.93 20.064C1211.93 19.232 1211.36 18.816 1210.23 18.816C1209.63 18.816 1209.19 18.928 1208.92 19.152C1208.64 19.376 1208.46 19.7547 1208.39 20.288H1206.66ZM1211.91 21.856C1211.77 21.9307 1211.61 22 1211.43 22.064C1211.25 22.1173 1211.1 22.1547 1210.98 22.176C1210.87 22.1867 1210.7 22.208 1210.45 22.24C1210.22 22.272 1210.06 22.2933 1209.99 22.304C1209.77 22.336 1209.59 22.368 1209.46 22.4C1209.33 22.4213 1209.17 22.464 1208.98 22.528C1208.8 22.592 1208.66 22.672 1208.55 22.768C1208.45 22.8533 1208.37 22.976 1208.29 23.136C1208.22 23.2853 1208.18 23.4667 1208.18 23.68C1208.18 24.0747 1208.31 24.3787 1208.57 24.592C1208.83 24.8053 1209.2 24.912 1209.67 24.912C1210.48 24.912 1211.1 24.6933 1211.54 24.256C1211.79 24.0107 1211.91 23.536 1211.91 22.832V21.856ZM1219.66 17.744V19.072H1218V23.424C1218 23.68 1218.01 23.8613 1218.02 23.968C1218.03 24.064 1218.06 24.176 1218.11 24.304C1218.17 24.4213 1218.26 24.5013 1218.38 24.544C1218.52 24.5867 1218.71 24.608 1218.94 24.608C1219.24 24.608 1219.48 24.5973 1219.66 24.576V26.016C1219.3 26.0587 1218.89 26.08 1218.43 26.08C1218.11 26.08 1217.83 26.0533 1217.58 26C1217.35 25.9573 1217.15 25.904 1216.99 25.84C1216.83 25.776 1216.7 25.6693 1216.59 25.52C1216.49 25.36 1216.4 25.232 1216.34 25.136C1216.28 25.0293 1216.24 24.848 1216.21 24.592C1216.19 24.336 1216.18 24.144 1216.18 24.016C1216.18 23.8773 1216.18 23.6427 1216.18 23.312C1216.18 23.2693 1216.18 23.2373 1216.18 23.216C1216.18 23.184 1216.18 23.152 1216.18 23.12C1216.18 23.0773 1216.18 23.04 1216.18 23.008V19.072H1214.8V17.744H1216.18V15.264H1218V17.744H1219.66ZM1228.35 23.424C1228.15 24.32 1227.71 25.0187 1227.02 25.52C1226.35 26.0213 1225.55 26.272 1224.61 26.272C1223.36 26.272 1222.37 25.872 1221.63 25.072C1220.91 24.2613 1220.54 23.2267 1220.54 21.968C1220.54 20.6773 1220.92 19.6107 1221.66 18.768C1222.42 17.9253 1223.38 17.504 1224.54 17.504C1225.75 17.504 1226.7 17.92 1227.41 18.752C1228.11 19.5733 1228.46 20.6987 1228.46 22.128V22.32H1222.37C1222.39 23.152 1222.6 23.7973 1222.99 24.256C1223.39 24.704 1223.94 24.928 1224.64 24.928C1225.14 24.928 1225.55 24.8107 1225.86 24.576C1226.18 24.3307 1226.43 23.9467 1226.61 23.424H1228.35ZM1226.64 21.104C1226.59 20.4107 1226.37 19.8667 1225.98 19.472C1225.61 19.0667 1225.13 18.864 1224.53 18.864C1223.93 18.864 1223.45 19.056 1223.07 19.44C1222.71 19.824 1222.49 20.3787 1222.4 21.104H1226.64ZM1233.26 14.608H1235.36L1238.24 23.616L1241.18 14.608H1243.22L1239.31 26H1237.09L1233.26 14.608ZM1246.11 14.56V16.352H1244.29V14.56H1246.11ZM1246.11 17.744V26H1244.29V17.744H1246.11ZM1252.77 17.584V19.328C1252.45 19.296 1252.24 19.28 1252.13 19.28C1250.54 19.28 1249.75 20.3093 1249.75 22.368V26H1247.94V17.744H1249.65V19.392C1250.24 18.1653 1251.16 17.552 1252.42 17.552L1252.77 17.584ZM1257.76 17.744V19.072H1256.09V23.424C1256.09 23.68 1256.1 23.8613 1256.11 23.968C1256.12 24.064 1256.15 24.176 1256.21 24.304C1256.26 24.4213 1256.35 24.5013 1256.48 24.544C1256.62 24.5867 1256.8 24.608 1257.04 24.608C1257.34 24.608 1257.58 24.5973 1257.76 24.576V26.016C1257.39 26.0587 1256.98 26.08 1256.53 26.08C1256.21 26.08 1255.92 26.0533 1255.68 26C1255.44 25.9573 1255.25 25.904 1255.09 25.84C1254.93 25.776 1254.79 25.6693 1254.69 25.52C1254.58 25.36 1254.49 25.232 1254.43 25.136C1254.38 25.0293 1254.33 24.848 1254.3 24.592C1254.28 24.336 1254.27 24.144 1254.27 24.016C1254.27 23.8773 1254.27 23.6427 1254.27 23.312C1254.27 23.2693 1254.27 23.2373 1254.27 23.216C1254.27 23.184 1254.27 23.152 1254.27 23.12C1254.27 23.0773 1254.27 23.04 1254.27 23.008V19.072H1252.89V17.744H1254.27V15.264H1256.09V17.744H1257.76ZM1266.3 17.744V26H1264.59V24.768C1263.9 25.7387 1262.99 26.224 1261.87 26.224C1260.96 26.224 1260.26 25.968 1259.77 25.456C1259.29 24.9333 1259.05 24.1867 1259.05 23.216V17.744H1260.88V22.464C1260.88 22.752 1260.88 22.9867 1260.89 23.168C1260.9 23.3387 1260.94 23.536 1260.99 23.76C1261.05 23.9733 1261.14 24.1387 1261.25 24.256C1261.36 24.3733 1261.52 24.4747 1261.73 24.56C1261.94 24.6453 1262.2 24.688 1262.49 24.688C1263.18 24.688 1263.68 24.448 1264 23.968C1264.32 23.4773 1264.48 22.8587 1264.48 22.112V17.744H1266.3ZM1268.16 20.288C1268.35 18.4213 1269.56 17.488 1271.78 17.488C1272.81 17.488 1273.63 17.6907 1274.24 18.096C1274.86 18.5013 1275.17 19.1307 1275.17 19.984V24.176C1275.17 24.4107 1275.2 24.5707 1275.25 24.656C1275.31 24.7413 1275.43 24.784 1275.6 24.784C1275.73 24.784 1275.87 24.7733 1276.02 24.752V26.032C1275.55 26.1493 1275.15 26.208 1274.83 26.208C1274.05 26.208 1273.61 25.8773 1273.49 25.216C1272.8 25.8773 1271.83 26.208 1270.59 26.208C1269.74 26.208 1269.06 25.9893 1268.56 25.552C1268.06 25.104 1267.81 24.5013 1267.81 23.744C1267.81 23.5093 1267.84 23.2907 1267.89 23.088C1267.94 22.8853 1268 22.7093 1268.07 22.56C1268.14 22.4107 1268.25 22.272 1268.4 22.144C1268.56 22.016 1268.69 21.9093 1268.79 21.824C1268.89 21.7387 1269.06 21.6587 1269.28 21.584C1269.52 21.5093 1269.69 21.456 1269.79 21.424C1269.91 21.3813 1270.11 21.3387 1270.39 21.296C1270.66 21.2533 1270.84 21.2267 1270.93 21.216C1271.03 21.1947 1271.22 21.168 1271.51 21.136C1272.16 21.0507 1272.6 20.9813 1272.83 20.928C1273.07 20.864 1273.23 20.7733 1273.31 20.656C1273.39 20.5707 1273.43 20.3733 1273.43 20.064C1273.43 19.232 1272.86 18.816 1271.73 18.816C1271.13 18.816 1270.69 18.928 1270.42 19.152C1270.14 19.376 1269.96 19.7547 1269.89 20.288H1268.16ZM1273.41 21.856C1273.27 21.9307 1273.11 22 1272.93 22.064C1272.75 22.1173 1272.6 22.1547 1272.48 22.176C1272.37 22.1867 1272.2 22.208 1271.95 22.24C1271.72 22.272 1271.56 22.2933 1271.49 22.304C1271.27 22.336 1271.09 22.368 1270.96 22.4C1270.83 22.4213 1270.67 22.464 1270.48 22.528C1270.3 22.592 1270.16 22.672 1270.05 22.768C1269.95 22.8533 1269.87 22.976 1269.79 23.136C1269.72 23.2853 1269.68 23.4667 1269.68 23.68C1269.68 24.0747 1269.81 24.3787 1270.07 24.592C1270.33 24.8053 1270.7 24.912 1271.17 24.912C1271.98 24.912 1272.6 24.6933 1273.04 24.256C1273.29 24.0107 1273.41 23.536 1273.41 22.832V21.856ZM1279 14.608V26H1277.2V14.608H1279ZM1290.88 14.592L1295.28 26H1293.14L1292.05 22.976H1287.54L1286.42 26H1284.36L1288.76 14.592H1290.88ZM1291.52 21.472L1289.83 16.672L1288.05 21.472H1291.52ZM1303.6 22.88C1303.48 23.8933 1303.07 24.704 1302.39 25.312C1301.71 25.9093 1300.85 26.208 1299.81 26.208C1298.57 26.208 1297.59 25.8187 1296.85 25.04C1296.12 24.2507 1295.75 23.2213 1295.75 21.952C1295.75 20.5867 1296.12 19.504 1296.85 18.704C1297.6 17.8933 1298.6 17.488 1299.86 17.488C1300.92 17.488 1301.76 17.7547 1302.4 18.288C1303.05 18.8213 1303.43 19.5627 1303.54 20.512H1301.73C1301.63 19.9893 1301.41 19.5893 1301.09 19.312C1300.77 19.0347 1300.37 18.896 1299.88 18.896C1299.17 18.896 1298.62 19.1627 1298.21 19.696C1297.81 20.2187 1297.6 20.9387 1297.6 21.856C1297.6 22.7733 1297.8 23.488 1298.18 24C1298.57 24.512 1299.12 24.768 1299.81 24.768C1300.36 24.768 1300.8 24.608 1301.14 24.288C1301.49 23.9573 1301.72 23.488 1301.81 22.88H1303.6ZM1312.49 22.88C1312.37 23.8933 1311.96 24.704 1311.28 25.312C1310.6 25.9093 1309.74 26.208 1308.7 26.208C1307.47 26.208 1306.48 25.8187 1305.74 25.04C1305.01 24.2507 1304.64 23.2213 1304.64 21.952C1304.64 20.5867 1305.01 19.504 1305.74 18.704C1306.49 17.8933 1307.49 17.488 1308.75 17.488C1309.81 17.488 1310.65 17.7547 1311.29 18.288C1311.95 18.8213 1312.32 19.5627 1312.43 20.512H1310.62C1310.52 19.9893 1310.3 19.5893 1309.98 19.312C1309.66 19.0347 1309.26 18.896 1308.77 18.896C1308.06 18.896 1307.51 19.1627 1307.1 19.696C1306.7 20.2187 1306.49 20.9387 1306.49 21.856C1306.49 22.7733 1306.69 23.488 1307.07 24C1307.47 24.512 1308.01 24.768 1308.7 24.768C1309.25 24.768 1309.69 24.608 1310.03 24.288C1310.38 23.9573 1310.61 23.488 1310.7 22.88H1312.49ZM1317.72 17.504C1318.98 17.504 1319.98 17.8987 1320.73 18.688C1321.48 19.4773 1321.85 20.5387 1321.85 21.872C1321.85 23.216 1321.48 24.2827 1320.73 25.072C1319.99 25.8613 1318.99 26.256 1317.72 26.256C1316.43 26.256 1315.41 25.8613 1314.65 25.072C1313.89 24.2827 1313.51 23.216 1313.51 21.872C1313.51 20.5387 1313.89 19.4773 1314.65 18.688C1315.42 17.8987 1316.44 17.504 1317.72 17.504ZM1319.39 19.728C1318.98 19.2053 1318.41 18.944 1317.69 18.944C1316.96 18.944 1316.39 19.2053 1315.98 19.728C1315.56 20.2507 1315.35 20.9653 1315.35 21.872C1315.35 22.8 1315.56 23.5253 1315.98 24.048C1316.39 24.5707 1316.97 24.832 1317.71 24.832C1318.42 24.832 1318.98 24.5707 1319.39 24.048C1319.8 23.5147 1320.01 22.784 1320.01 21.856C1320.01 20.9493 1319.8 20.24 1319.39 19.728ZM1325.13 17.744V18.96C1325.79 18 1326.7 17.52 1327.86 17.52C1328.8 17.52 1329.5 17.776 1329.96 18.288C1330.43 18.8 1330.66 19.536 1330.66 20.496V26H1328.84V21.2C1328.84 20.8693 1328.82 20.5973 1328.79 20.384C1328.76 20.16 1328.69 19.936 1328.58 19.712C1328.49 19.488 1328.33 19.3227 1328.1 19.216C1327.88 19.0987 1327.59 19.04 1327.24 19.04C1325.89 19.04 1325.22 19.8773 1325.22 21.552V26H1323.4V17.744H1325.13ZM1336.6 17.744V19.072H1334.94V23.424C1334.94 23.68 1334.94 23.8613 1334.95 23.968C1334.96 24.064 1335 24.176 1335.05 24.304C1335.1 24.4213 1335.19 24.5013 1335.32 24.544C1335.46 24.5867 1335.65 24.608 1335.88 24.608C1336.18 24.608 1336.42 24.5973 1336.6 24.576V26.016C1336.24 26.0587 1335.83 26.08 1335.37 26.08C1335.05 26.08 1334.77 26.0533 1334.52 26C1334.29 25.9573 1334.09 25.904 1333.93 25.84C1333.77 25.776 1333.64 25.6693 1333.53 25.52C1333.42 25.36 1333.34 25.232 1333.27 25.136C1333.22 25.0293 1333.18 24.848 1333.15 24.592C1333.12 24.336 1333.11 24.144 1333.11 24.016C1333.11 23.8773 1333.11 23.6427 1333.11 23.312C1333.11 23.2693 1333.11 23.2373 1333.11 23.216C1333.11 23.184 1333.11 23.152 1333.11 23.12C1333.11 23.0773 1333.11 23.04 1333.11 23.008V19.072H1331.74V17.744H1333.11V15.264H1334.94V17.744H1336.6Z" fill="white"/>
<rect x="911.5" y="0.5" width="206" height="43" rx="7.5" fill="white"/>
<path d="M943.667 17.7917V26.2083C943.533 26.1833 943.392 26.1667 943.25 26.1667C942.1 26.1667 941.167 27.1 941.167 28.25C941.167 28.3917 941.183 28.5333 941.208 28.6667H932.792C932.817 28.5333 932.833 28.3917 932.833 28.25C932.833 27.1 931.9 26.1667 930.75 26.1667C930.608 26.1667 930.467 26.1833 930.333 26.2083V17.7917C930.467 17.8167 930.608 17.8333 930.75 17.8333C931.9 17.8333 932.833 16.9 932.833 15.75C932.833 15.6083 932.817 15.4667 932.792 15.3333H941.208C941.183 15.4667 941.167 15.6083 941.167 15.75C941.167 16.9 942.1 17.8333 943.25 17.8333C943.392 17.8333 943.533 17.8167 943.667 17.7917Z" stroke="#65717C" stroke-width="1.5" stroke-linecap="round" stroke-linejoin="round"/>
<path d="M932.833 15.75C932.833 16.9 931.9 17.8333 930.75 17.8333C930.608 17.8333 930.467 17.8167 930.333 17.7917C929.383 17.6 928.667 16.7583 928.667 15.75C928.667 14.6 929.6 13.6667 930.75 13.6667C931.758 13.6667 932.6 14.3833 932.792 15.3333C932.817 15.4667 932.833 15.6083 932.833 15.75Z" stroke="#65717C" stroke-width="1.5" stroke-linecap="round" stroke-linejoin="round"/>
<path d="M945.333 15.75C945.333 16.7583 944.617 17.6 943.667 17.7917C943.533 17.8167 943.392 17.8333 943.25 17.8333C942.1 17.8333 941.167 16.9 941.167 15.75C941.167 15.6083 941.183 15.4667 941.208 15.3333C941.4 14.3833 942.242 13.6667 943.25 13.6667C944.4 13.6667 945.333 14.6 945.333 15.75Z" stroke="#65717C" stroke-width="1.5" stroke-linecap="round" stroke-linejoin="round"/>
<path d="M932.833 28.25C932.833 28.3917 932.817 28.5333 932.792 28.6667C932.6 29.6167 931.758 30.3333 930.75 30.3333C929.6 30.3333 928.667 29.4 928.667 28.25C928.667 27.2417 929.383 26.4 930.333 26.2083C930.467 26.1833 930.608 26.1667 930.75 26.1667C931.9 26.1667 932.833 27.1 932.833 28.25Z" stroke="#65717C" stroke-width="1.5" stroke-linecap="round" stroke-linejoin="round"/>
<path d="M945.333 28.25C945.333 29.4 944.4 30.3333 943.25 30.3333C942.242 30.3333 941.4 29.6167 941.208 28.6667C941.183 28.5333 941.167 28.3917 941.167 28.25C941.167 27.1 942.1 26.1667 943.25 26.1667C943.392 26.1667 943.533 26.1833 943.667 26.2083C944.617 26.4 945.333 27.2417 945.333 28.25Z" stroke="#65717C" stroke-width="1.5" stroke-linecap="round" stroke-linejoin="round"/>
<path d="M968.96 21.664C968.853 23.0613 968.352 24.1813 967.456 25.024C966.571 25.856 965.419 26.272 964 26.272C962.389 26.272 961.099 25.728 960.128 24.64C959.157 23.552 958.672 22.1067 958.672 20.304C958.672 19.216 958.88 18.2293 959.296 17.344C959.712 16.448 960.336 15.728 961.168 15.184C962 14.6293 962.976 14.352 964.096 14.352C965.301 14.352 966.352 14.688 967.248 15.36C968.144 16.0213 968.683 16.9813 968.864 18.24H966.88C966.741 17.5573 966.421 17.024 965.92 16.64C965.419 16.2453 964.8 16.048 964.064 16.048C963.307 16.048 962.661 16.2613 962.128 16.688C961.605 17.1147 961.232 17.6427 961.008 18.272C960.795 18.8907 960.688 19.568 960.688 20.304C960.688 20.8587 960.752 21.3813 960.88 21.872C961.008 22.3627 961.2 22.816 961.456 23.232C961.712 23.6373 962.059 23.9627 962.496 24.208C962.944 24.4533 963.461 24.576 964.048 24.576C965.744 24.576 966.715 23.6053 966.96 21.664H968.96ZM975.179 17.584V19.328C974.859 19.296 974.646 19.28 974.539 19.28C972.95 19.28 972.155 20.3093 972.155 22.368V26H970.347V17.744H972.059V19.392C972.646 18.1653 973.568 17.552 974.827 17.552L975.179 17.584ZM983.243 23.424C983.04 24.32 982.597 25.0187 981.915 25.52C981.243 26.0213 980.437 26.272 979.499 26.272C978.251 26.272 977.259 25.872 976.523 25.072C975.797 24.2613 975.435 23.2267 975.435 21.968C975.435 20.6773 975.808 19.6107 976.555 18.768C977.312 17.9253 978.272 17.504 979.435 17.504C980.64 17.504 981.595 17.92 982.299 18.752C983.003 19.5733 983.355 20.6987 983.355 22.128V22.32H977.259C977.28 23.152 977.488 23.7973 977.883 24.256C978.277 24.704 978.827 24.928 979.531 24.928C980.032 24.928 980.437 24.8107 980.747 24.576C981.067 24.3307 981.317 23.9467 981.499 23.424H983.243ZM981.531 21.104C981.477 20.4107 981.259 19.8667 980.875 19.472C980.501 19.0667 980.016 18.864 979.419 18.864C978.821 18.864 978.336 19.056 977.963 19.44C977.6 19.824 977.376 20.3787 977.291 21.104H981.531ZM984.661 20.288C984.853 18.4213 986.059 17.488 988.277 17.488C989.312 17.488 990.133 17.6907 990.741 18.096C991.36 18.5013 991.669 19.1307 991.669 19.984V24.176C991.669 24.4107 991.696 24.5707 991.749 24.656C991.813 24.7413 991.931 24.784 992.101 24.784C992.229 24.784 992.368 24.7733 992.517 24.752V26.032C992.048 26.1493 991.653 26.208 991.333 26.208C990.555 26.208 990.107 25.8773 989.989 25.216C989.296 25.8773 988.331 26.208 987.093 26.208C986.24 26.208 985.563 25.9893 985.061 25.552C984.56 25.104 984.309 24.5013 984.309 23.744C984.309 23.5093 984.336 23.2907 984.389 23.088C984.443 22.8853 984.501 22.7093 984.565 22.56C984.64 22.4107 984.752 22.272 984.901 22.144C985.061 22.016 985.189 21.9093 985.285 21.824C985.392 21.7387 985.557 21.6587 985.781 21.584C986.016 21.5093 986.187 21.456 986.293 21.424C986.411 21.3813 986.608 21.3387 986.885 21.296C987.163 21.2533 987.344 21.2267 987.429 21.216C987.525 21.1947 987.717 21.168 988.005 21.136C988.656 21.0507 989.099 20.9813 989.333 20.928C989.568 20.864 989.728 20.7733 989.813 20.656C989.888 20.5707 989.925 20.3733 989.925 20.064C989.925 19.232 989.36 18.816 988.229 18.816C987.632 18.816 987.195 18.928 986.917 19.152C986.64 19.376 986.464 19.7547 986.389 20.288H984.661ZM989.909 21.856C989.771 21.9307 989.611 22 989.429 22.064C989.248 22.1173 989.099 22.1547 988.981 22.176C988.875 22.1867 988.699 22.208 988.453 22.24C988.219 22.272 988.064 22.2933 987.989 22.304C987.765 22.336 987.589 22.368 987.461 22.4C987.333 22.4213 987.173 22.464 986.981 22.528C986.8 22.592 986.656 22.672 986.549 22.768C986.453 22.8533 986.368 22.976 986.293 23.136C986.219 23.2853 986.181 23.4667 986.181 23.68C986.181 24.0747 986.309 24.3787 986.565 24.592C986.832 24.8053 987.2 24.912 987.669 24.912C988.48 24.912 989.104 24.6933 989.541 24.256C989.787 24.0107 989.909 23.536 989.909 22.832V21.856ZM997.664 17.744V19.072H996V23.424C996 23.68 996.005 23.8613 996.016 23.968C996.027 24.064 996.059 24.176 996.112 24.304C996.165 24.4213 996.256 24.5013 996.384 24.544C996.523 24.5867 996.709 24.608 996.944 24.608C997.243 24.608 997.483 24.5973 997.664 24.576V26.016C997.301 26.0587 996.891 26.08 996.432 26.08C996.112 26.08 995.829 26.0533 995.584 26C995.349 25.9573 995.152 25.904 994.992 25.84C994.832 25.776 994.699 25.6693 994.592 25.52C994.485 25.36 994.4 25.232 994.336 25.136C994.283 25.0293 994.24 24.848 994.208 24.592C994.187 24.336 994.176 24.144 994.176 24.016C994.176 23.8773 994.176 23.6427 994.176 23.312C994.176 23.2693 994.176 23.2373 994.176 23.216C994.176 23.184 994.176 23.152 994.176 23.12C994.176 23.0773 994.176 23.04 994.176 23.008V19.072H992.8V17.744H994.176V15.264H996V17.744H997.664ZM1006.35 23.424C1006.15 24.32 1005.71 25.0187 1005.02 25.52C1004.35 26.0213 1003.55 26.272 1002.61 26.272C1001.36 26.272 1000.37 25.872 999.632 25.072C998.907 24.2613 998.544 23.2267 998.544 21.968C998.544 20.6773 998.917 19.6107 999.664 18.768C1000.42 17.9253 1001.38 17.504 1002.54 17.504C1003.75 17.504 1004.7 17.92 1005.41 18.752C1006.11 19.5733 1006.46 20.6987 1006.46 22.128V22.32H1000.37C1000.39 23.152 1000.6 23.7973 1000.99 24.256C1001.39 24.704 1001.94 24.928 1002.64 24.928C1003.14 24.928 1003.55 24.8107 1003.86 24.576C1004.18 24.3307 1004.43 23.9467 1004.61 23.424H1006.35ZM1004.64 21.104C1004.59 20.4107 1004.37 19.8667 1003.98 19.472C1003.61 19.0667 1003.13 18.864 1002.53 18.864C1001.93 18.864 1001.45 19.056 1001.07 19.44C1000.71 19.824 1000.49 20.3787 1000.4 21.104H1004.64ZM1021.78 14.608V26H1019.71L1014.4 17.616V26H1012.51V14.608H1014.61L1019.86 23.008V14.608H1021.78ZM1031.24 23.424C1031.04 24.32 1030.6 25.0187 1029.91 25.52C1029.24 26.0213 1028.44 26.272 1027.5 26.272C1026.25 26.272 1025.26 25.872 1024.52 25.072C1023.8 24.2613 1023.43 23.2267 1023.43 21.968C1023.43 20.6773 1023.81 19.6107 1024.55 18.768C1025.31 17.9253 1026.27 17.504 1027.43 17.504C1028.64 17.504 1029.59 17.92 1030.3 18.752C1031 19.5733 1031.35 20.6987 1031.35 22.128V22.32H1025.26C1025.28 23.152 1025.49 23.7973 1025.88 24.256C1026.28 24.704 1026.83 24.928 1027.53 24.928C1028.03 24.928 1028.44 24.8107 1028.75 24.576C1029.07 24.3307 1029.32 23.9467 1029.5 23.424H1031.24ZM1029.53 21.104C1029.48 20.4107 1029.26 19.8667 1028.87 19.472C1028.5 19.0667 1028.02 18.864 1027.42 18.864C1026.82 18.864 1026.34 19.056 1025.96 19.44C1025.6 19.824 1025.38 20.3787 1025.29 21.104H1029.53ZM1031.97 17.744H1033.91L1035.54 23.936L1037.09 17.744H1038.93L1040.45 23.936L1042.17 17.744H1044.02L1041.41 26H1039.54L1037.99 19.872L1036.45 26H1034.53L1031.97 17.744ZM1049.87 14.608H1055.07C1056.27 14.608 1057.18 14.8693 1057.81 15.392C1058.45 15.904 1058.77 16.5973 1058.77 17.472C1058.77 18.016 1058.62 18.5067 1058.32 18.944C1058.02 19.3707 1057.63 19.68 1057.14 19.872C1057.8 20.032 1058.32 20.352 1058.7 20.832C1059.09 21.312 1059.28 21.9147 1059.28 22.64C1059.28 23.6427 1058.94 24.4533 1058.27 25.072C1057.61 25.6907 1056.75 26 1055.68 26H1049.87V14.608ZM1051.82 16.224V19.36H1054.54C1055.31 19.36 1055.88 19.2427 1056.24 19.008C1056.6 18.7627 1056.78 18.3573 1056.78 17.792C1056.78 17.152 1056.59 16.7307 1056.21 16.528C1055.83 16.3253 1055.3 16.224 1054.61 16.224H1051.82ZM1051.82 20.8V24.368H1054.82C1055.58 24.368 1056.19 24.24 1056.62 23.984C1057.06 23.728 1057.28 23.264 1057.28 22.592C1057.28 22.2187 1057.21 21.9093 1057.07 21.664C1056.94 21.408 1056.75 21.2213 1056.5 21.104C1056.25 20.9867 1055.99 20.9067 1055.73 20.864C1055.46 20.8213 1055.15 20.8 1054.78 20.8H1051.82ZM1065.59 17.584V19.328C1065.27 19.296 1065.05 19.28 1064.95 19.28C1063.36 19.28 1062.56 20.3093 1062.56 22.368V26H1060.75V17.744H1062.47V19.392C1063.05 18.1653 1063.97 17.552 1065.23 17.552L1065.59 17.584ZM1066.46 20.288C1066.65 18.4213 1067.86 17.488 1070.07 17.488C1071.11 17.488 1071.93 17.6907 1072.54 18.096C1073.16 18.5013 1073.47 19.1307 1073.47 19.984V24.176C1073.47 24.4107 1073.49 24.5707 1073.55 24.656C1073.61 24.7413 1073.73 24.784 1073.9 24.784C1074.03 24.784 1074.16 24.7733 1074.31 24.752V26.032C1073.84 26.1493 1073.45 26.208 1073.13 26.208C1072.35 26.208 1071.9 25.8773 1071.79 25.216C1071.09 25.8773 1070.13 26.208 1068.89 26.208C1068.04 26.208 1067.36 25.9893 1066.86 25.552C1066.36 25.104 1066.11 24.5013 1066.11 23.744C1066.11 23.5093 1066.13 23.2907 1066.19 23.088C1066.24 22.8853 1066.3 22.7093 1066.36 22.56C1066.44 22.4107 1066.55 22.272 1066.7 22.144C1066.86 22.016 1066.99 21.9093 1067.08 21.824C1067.19 21.7387 1067.35 21.6587 1067.58 21.584C1067.81 21.5093 1067.98 21.456 1068.09 21.424C1068.21 21.3813 1068.4 21.3387 1068.68 21.296C1068.96 21.2533 1069.14 21.2267 1069.23 21.216C1069.32 21.1947 1069.51 21.168 1069.8 21.136C1070.45 21.0507 1070.9 20.9813 1071.13 20.928C1071.36 20.864 1071.52 20.7733 1071.61 20.656C1071.68 20.5707 1071.72 20.3733 1071.72 20.064C1071.72 19.232 1071.16 18.816 1070.03 18.816C1069.43 18.816 1068.99 18.928 1068.71 19.152C1068.44 19.376 1068.26 19.7547 1068.19 20.288H1066.46ZM1071.71 21.856C1071.57 21.9307 1071.41 22 1071.23 22.064C1071.04 22.1173 1070.9 22.1547 1070.78 22.176C1070.67 22.1867 1070.5 22.208 1070.25 22.24C1070.02 22.272 1069.86 22.2933 1069.79 22.304C1069.56 22.336 1069.39 22.368 1069.26 22.4C1069.13 22.4213 1068.97 22.464 1068.78 22.528C1068.6 22.592 1068.45 22.672 1068.35 22.768C1068.25 22.8533 1068.16 22.976 1068.09 23.136C1068.02 23.2853 1067.98 23.4667 1067.98 23.68C1067.98 24.0747 1068.11 24.3787 1068.36 24.592C1068.63 24.8053 1069 24.912 1069.47 24.912C1070.28 24.912 1070.9 24.6933 1071.34 24.256C1071.58 24.0107 1071.71 23.536 1071.71 22.832V21.856ZM1077.17 17.744V18.96C1077.83 18 1078.75 17.52 1079.91 17.52C1080.85 17.52 1081.55 17.776 1082 18.288C1082.47 18.8 1082.71 19.536 1082.71 20.496V26H1080.88V21.2C1080.88 20.8693 1080.87 20.5973 1080.84 20.384C1080.8 20.16 1080.74 19.936 1080.63 19.712C1080.53 19.488 1080.37 19.3227 1080.15 19.216C1079.92 19.0987 1079.64 19.04 1079.28 19.04C1077.94 19.04 1077.27 19.8773 1077.27 21.552V26H1075.44V17.744H1077.17ZM1092.1 22.88C1091.98 23.8933 1091.57 24.704 1090.89 25.312C1090.21 25.9093 1089.35 26.208 1088.31 26.208C1087.07 26.208 1086.09 25.8187 1085.35 25.04C1084.62 24.2507 1084.25 23.2213 1084.25 21.952C1084.25 20.5867 1084.62 19.504 1085.35 18.704C1086.1 17.8933 1087.1 17.488 1088.36 17.488C1089.42 17.488 1090.26 17.7547 1090.9 18.288C1091.55 18.8213 1091.93 19.5627 1092.04 20.512H1090.23C1090.13 19.9893 1089.91 19.5893 1089.59 19.312C1089.27 19.0347 1088.87 18.896 1088.38 18.896C1087.67 18.896 1087.12 19.1627 1086.71 19.696C1086.31 20.2187 1086.1 20.9387 1086.1 21.856C1086.1 22.7733 1086.3 23.488 1086.68 24C1087.07 24.512 1087.62 24.768 1088.31 24.768C1088.86 24.768 1089.3 24.608 1089.64 24.288C1089.99 23.9573 1090.22 23.488 1090.31 22.88H1092.1ZM1095.33 14.608V18.88C1095.94 17.984 1096.81 17.536 1097.94 17.536C1098.83 17.536 1099.53 17.7813 1100.03 18.272C1100.54 18.752 1100.79 19.4613 1100.79 20.4V26H1098.95V20.992C1098.95 20.3627 1098.83 19.8827 1098.61 19.552C1098.4 19.2213 1097.98 19.056 1097.35 19.056C1096.64 19.056 1096.13 19.2853 1095.81 19.744C1095.49 20.2027 1095.33 20.8107 1095.33 21.568V26H1093.52V14.608H1095.33Z" fill="#65717C"/>
<rect x="911.5" y="0.5" width="206" height="43" rx="7.5" stroke="#E1E1E1"/>
</svg>
