<svg width="85" height="20" viewBox="0 0 85 20" fill="none" xmlns="http://www.w3.org/2000/svg">
<path d="M10.55 2.09844L10.525 2.15678L8.10836 7.76511H5.73336C5.1667 7.76511 4.62503 7.88178 4.13336 8.09011L5.5917 4.60678L5.62503 4.52344L5.68336 4.39011C5.70003 4.34011 5.7167 4.29011 5.7417 4.24844C6.83336 1.72344 8.0667 1.14844 10.55 2.09844Z" stroke="#65717C" stroke-width="1.5" stroke-linecap="round" stroke-linejoin="round"/>
<path d="M15.0417 7.93178C14.6667 7.81512 14.2667 7.76512 13.8667 7.76512H8.10834L10.525 2.15678L10.55 2.09845C10.675 2.14012 10.7917 2.19845 10.9167 2.24845L12.7583 3.02345C13.7833 3.44845 14.5 3.89012 14.9333 4.42345C15.0167 4.52345 15.0833 4.61512 15.1417 4.72345C15.2167 4.84012 15.275 4.95678 15.3083 5.08178C15.3417 5.15678 15.3667 5.23178 15.3833 5.29845C15.6083 5.99845 15.475 6.85678 15.0417 7.93178Z" stroke="#65717C" stroke-width="1.5" stroke-linecap="round" stroke-linejoin="round"/>
<path d="M17.9348 11.832V13.457C17.9348 13.6236 17.9265 13.7903 17.9181 13.957C17.7598 16.8653 16.1348 18.332 13.0515 18.332H6.55145C6.35145 18.332 6.15145 18.3153 5.95979 18.2903C3.30979 18.1153 1.89312 16.6986 1.71812 14.0486C1.69312 13.857 1.67645 13.657 1.67645 13.457V11.832C1.67645 10.157 2.69312 8.7153 4.14312 8.0903C4.64312 7.88196 5.17645 7.7653 5.74312 7.7653H13.8765C14.2848 7.7653 14.6848 7.82363 15.0515 7.93196C16.7098 8.4403 17.9348 9.9903 17.9348 11.832Z" stroke="#65717C" stroke-width="1.5" stroke-linecap="round" stroke-linejoin="round"/>
<path d="M5.59169 4.60678L4.13335 8.09011C2.68335 8.71511 1.66669 10.1568 1.66669 11.8318V9.39011C1.66669 7.02345 3.35002 5.04845 5.59169 4.60678Z" stroke="#65717C" stroke-width="1.5" stroke-linecap="round" stroke-linejoin="round"/>
<path d="M17.9322 9.38972V11.8314C17.9322 9.99805 16.7155 8.43972 15.0488 7.93972C15.4822 6.85638 15.6072 6.00638 15.3988 5.29805C15.3822 5.22305 15.3572 5.14805 15.3238 5.08138C16.8738 5.88138 17.9322 7.52305 17.9322 9.38972Z" stroke="#65717C" stroke-width="1.5" stroke-linecap="round" stroke-linejoin="round"/>
<path d="M33.224 2.608H34.776L37.032 12.128L39.608 2.608H41.256L43.8 12.128L46.136 2.608H47.64L44.6 14H43.016L40.392 4.464L37.736 14H36.152L33.224 2.608ZM55.5548 12.912V13.968C55.2774 14.0747 54.9681 14.128 54.6268 14.128C53.8481 14.128 53.4481 13.7227 53.4268 12.912C52.6481 13.7867 51.6508 14.224 50.4348 14.224C49.6241 14.224 48.9788 14.016 48.4988 13.6C48.0294 13.184 47.7948 12.6133 47.7948 11.888C47.7948 10.416 48.7708 9.55733 50.7228 9.312C50.8508 9.29067 51.0374 9.26933 51.2828 9.248C52.2108 9.14133 52.7814 9.01867 52.9948 8.88C53.2401 8.70933 53.3628 8.416 53.3628 8C53.3628 7.09333 52.7388 6.64 51.4908 6.64C50.8508 6.64 50.3654 6.77333 50.0348 7.04C49.7041 7.296 49.5068 7.72267 49.4428 8.32H48.1148C48.1361 7.43467 48.4508 6.74667 49.0588 6.256C49.6668 5.76533 50.5041 5.52 51.5708 5.52C52.7334 5.52 53.5974 5.78667 54.1628 6.32C54.3441 6.49067 54.4774 6.71467 54.5628 6.992C54.6481 7.26933 54.6961 7.49867 54.7068 7.68C54.7174 7.85067 54.7228 8.112 54.7228 8.464C54.7228 8.86933 54.7121 9.48267 54.6908 10.304C54.6694 11.1253 54.6588 11.7387 54.6588 12.144C54.6588 12.4427 54.6961 12.656 54.7708 12.784C54.8561 12.9013 55.0054 12.96 55.2188 12.96C55.3041 12.96 55.4161 12.944 55.5548 12.912ZM53.3628 9.712C53.2668 9.78667 53.1654 9.85067 53.0588 9.904C52.9521 9.95733 52.8134 10 52.6428 10.032C52.4828 10.064 52.3708 10.0907 52.3068 10.112C52.2534 10.1227 52.1148 10.144 51.8908 10.176C51.6668 10.1973 51.5494 10.208 51.5388 10.208C51.2081 10.2507 50.9894 10.2827 50.8828 10.304C50.7868 10.3147 50.5948 10.3573 50.3068 10.432C50.0294 10.5067 49.8321 10.592 49.7148 10.688C49.5974 10.784 49.4801 10.928 49.3628 11.12C49.2561 11.3013 49.2028 11.52 49.2028 11.776C49.2028 12.2027 49.3468 12.5387 49.6348 12.784C49.9334 13.0293 50.3388 13.152 50.8508 13.152C51.5014 13.152 52.0828 12.96 52.5948 12.576C53.1068 12.192 53.3628 11.7387 53.3628 11.216V9.712ZM58.2765 2.608V14H56.9005V2.608H58.2765ZM61.8234 2.608V14H60.4474V2.608H61.8234ZM70.9862 11.392C70.5703 13.312 69.3703 14.272 67.3863 14.272C66.1703 14.272 65.2156 13.8933 64.5223 13.136C63.8396 12.3787 63.4983 11.328 63.4983 9.984C63.4983 8.65067 63.8503 7.57333 64.5543 6.752C65.2689 5.92 66.1969 5.504 67.3383 5.504C68.6076 5.504 69.5463 5.936 70.1543 6.8C70.7729 7.65333 71.0823 8.736 71.0823 10.048V10.24H64.8743L64.8583 10.336C64.8583 11.2107 65.0876 11.8987 65.5463 12.4C66.0049 12.9013 66.6343 13.152 67.4343 13.152C68.0316 13.152 68.5009 13.0133 68.8423 12.736C69.1943 12.4587 69.4663 12.0107 69.6583 11.392H70.9862ZM69.6743 9.136C69.6103 8.34667 69.3703 7.73333 68.9543 7.296C68.5383 6.848 67.9889 6.624 67.3063 6.624C66.6449 6.624 66.0956 6.848 65.6583 7.296C65.2209 7.744 64.9596 8.35733 64.8743 9.136H69.6743ZM76.06 5.744V6.864H74.412V11.68C74.412 11.9467 74.412 12.1227 74.412 12.208C74.4227 12.2933 74.4547 12.4107 74.508 12.56C74.5613 12.6987 74.652 12.7893 74.78 12.832C74.908 12.8747 75.0893 12.896 75.324 12.896C75.5267 12.896 75.772 12.88 76.06 12.848V14.016C75.676 14.0587 75.3293 14.08 75.02 14.08C74.636 14.08 74.316 14.0373 74.06 13.952C73.804 13.8667 73.6067 13.7707 73.468 13.664C73.34 13.5573 73.244 13.3707 73.18 13.104C73.116 12.8267 73.0787 12.5973 73.068 12.416C73.0573 12.224 73.052 11.9093 73.052 11.472C73.052 11.44 73.052 11.4187 73.052 11.408C73.052 11.3867 73.052 11.36 73.052 11.328C73.052 11.296 73.052 11.2693 73.052 11.248V6.864H71.66V5.744H73.052V3.296H74.412V5.744H76.06ZM83.6989 8.144H82.3389C82.2535 7.14133 81.5815 6.64 80.3229 6.64C79.8002 6.64 79.3895 6.74133 79.0909 6.944C78.7922 7.14667 78.6429 7.41867 78.6429 7.76C78.6429 7.856 78.6535 7.952 78.6749 8.048C78.6962 8.13333 78.7335 8.21333 78.7869 8.288C78.8509 8.352 78.9042 8.41067 78.9469 8.464C79.0002 8.51733 79.0802 8.57067 79.1869 8.624C79.3042 8.66667 79.3895 8.704 79.4429 8.736C79.5069 8.768 79.6135 8.80533 79.7629 8.848C79.9229 8.88 80.0349 8.90667 80.0989 8.928C80.1629 8.93867 80.2855 8.96533 80.4669 9.008C80.6589 9.05067 80.7815 9.07733 80.8349 9.088C81.2295 9.17333 81.5229 9.24267 81.7149 9.296C81.9175 9.34933 82.1895 9.45067 82.5309 9.6C82.8829 9.73867 83.1495 9.888 83.3309 10.048C83.5122 10.1973 83.6722 10.4107 83.8109 10.688C83.9602 10.9547 84.0349 11.2587 84.0349 11.6C84.0349 12.4 83.7202 13.0453 83.0909 13.536C82.4722 14.016 81.6455 14.256 80.6109 14.256C79.4909 14.256 78.6269 14.0107 78.0189 13.52C77.4215 13.0293 77.1015 12.32 77.0589 11.392H78.4029C78.4775 12.5547 79.2242 13.136 80.6429 13.136C81.2509 13.136 81.7362 13.0133 82.0989 12.768C82.4722 12.512 82.6589 12.176 82.6589 11.76C82.6589 11.4827 82.5629 11.2533 82.3709 11.072C82.1789 10.8907 81.9655 10.7627 81.7309 10.688C81.4962 10.6027 81.1602 10.5067 80.7229 10.4C80.6589 10.3893 80.6109 10.3787 80.5789 10.368C80.4829 10.3467 80.2749 10.304 79.9549 10.24C79.6455 10.1653 79.4215 10.1067 79.2829 10.064C79.1442 10.0213 78.9415 9.95733 78.6749 9.872C78.4189 9.776 78.2269 9.68 78.0989 9.584C77.9709 9.47733 77.8269 9.34933 77.6669 9.2C77.5175 9.04 77.4109 8.85867 77.3469 8.656C77.2829 8.44267 77.2509 8.20267 77.2509 7.936C77.2509 7.18933 77.5335 6.59733 78.0989 6.16C78.6749 5.72267 79.4429 5.504 80.4029 5.504C81.3735 5.504 82.1629 5.73333 82.7709 6.192C83.3895 6.65067 83.6989 7.30133 83.6989 8.144Z" fill="#65717C"/>
</svg>
